<svg width="110" height="38" viewBox="0 0 110 38" fill="none" xmlns="http://www.w3.org/2000/svg">
<path d="M13.3406 19.151C13.3406 17.6481 13.92 16.2068 14.9515 15.1441C15.9829 14.0814 17.3819 13.4844 18.8406 13.4844C20.2993 13.4844 21.6982 14.0814 22.7297 15.1441C23.7611 16.2068 24.3406 17.6481 24.3406 19.151C24.3406 20.6539 23.7611 22.0953 22.7297 23.158C21.6982 24.2207 20.2993 24.8177 18.8406 24.8177C17.3819 24.8177 15.9829 24.2207 14.9515 23.158C13.92 22.0953 13.3406 20.6539 13.3406 19.151V19.151Z" stroke="#262439" stroke-width="3.5"/>
<path d="M2.34058 30.485C2.34058 28.9821 2.92004 27.5408 3.95149 26.4781C4.98294 25.4154 6.38189 24.8184 7.84058 24.8184H13.3406V30.485C13.3406 31.9879 12.7611 33.4293 11.7297 34.492C10.6982 35.5547 9.29927 36.1517 7.84058 36.1517C6.38189 36.1517 4.98294 35.5547 3.95149 34.492C2.92004 33.4293 2.34058 31.9879 2.34058 30.485Z" stroke="#262439" stroke-width="3.5"/>
<path d="M13.3406 2.15137V13.4847H18.8406C20.2993 13.4847 21.6982 12.8877 22.7297 11.825C23.7611 10.7623 24.3406 9.32093 24.3406 7.81803C24.3406 6.31514 23.7611 4.8738 22.7297 3.8111C21.6982 2.74839 20.2993 2.15137 18.8406 2.15137L13.3406 2.15137Z" stroke="#262439" stroke-width="3.5"/>
<path d="M2.34058 7.81803C2.34058 9.32093 2.92004 10.7623 3.95149 11.825C4.98294 12.8877 6.38189 13.4847 7.84058 13.4847H13.3406V2.15137H7.84058C6.38189 2.15137 4.98294 2.74839 3.95149 3.8111C2.92004 4.8738 2.34058 6.31514 2.34058 7.81803Z" stroke="#262439" stroke-width="3.5"/>
<path d="M2.34058 19.151C2.34058 20.6539 2.92004 22.0953 3.95149 23.158C4.98294 24.2207 6.38189 24.8177 7.84058 24.8177H13.3406V13.4844H7.84058C6.38189 13.4844 4.98294 14.0814 3.95149 15.1441C2.92004 16.2068 2.34058 17.6481 2.34058 19.151Z" stroke="#262439" stroke-width="3.5"/>
<g clip-path="url(#clip0_302_3011)">
<path d="M41.2722 6.91602V26.3006L43.7298 26.3102V17.0795H49.6373V14.6372H43.7203V9.34871H51.4237V6.91602H41.2722ZM55.8284 10.8583C56.2545 10.8583 56.6632 10.6861 56.9646 10.3796C57.2659 10.073 57.4352 9.65723 57.4352 9.22371C57.4352 8.79018 57.2659 8.37441 56.9646 8.06786C56.6632 7.76131 56.2545 7.58909 55.8284 7.58909C55.4022 7.58909 54.9935 7.76131 54.6922 8.06786C54.3908 8.37441 54.2215 8.79018 54.2215 9.22371C54.2215 9.65723 54.3908 10.073 54.6922 10.3796C54.9935 10.6861 55.4022 10.8583 55.8284 10.8583ZM54.5902 13.291V26.3102H57.0477V13.291H54.5902Z" fill="#262439"/>
<path fill-rule="evenodd" clip-rule="evenodd" d="M66.1311 12.916C62.8796 12.916 60.6111 15.7141 60.6111 19.041C60.6111 22.3679 62.8796 25.166 66.1311 25.166C67.6245 25.166 68.8533 24.5891 69.7512 23.6276V25.3583C69.7575 25.8755 69.6629 26.3887 69.4729 26.8685C69.283 27.3482 69.0015 27.7849 68.6446 28.1533C68.2878 28.5217 67.8627 28.8144 67.394 29.0147C66.9252 29.2149 66.4221 29.3186 65.9137 29.3199C65.1292 29.3199 64.3541 29.0122 63.7397 28.5699L62.5109 30.7333C63.4611 31.3581 64.5594 31.7104 65.69 31.7531C66.8205 31.7958 67.9415 31.5273 68.9345 30.9759C69.9276 30.4245 70.756 29.6107 71.3322 28.6203C71.9085 27.6299 72.2113 26.4996 72.2088 25.3487V13.3006H69.7512V14.4641C68.8533 13.5026 67.6245 12.9256 66.1311 12.9256V12.916ZM63.0592 19.041C63.0592 16.9737 64.6093 15.3487 66.4052 15.3487C68.2011 15.3487 69.7418 16.9833 69.7418 19.041C69.7418 21.1083 68.1916 22.7237 66.4052 22.7237C64.6093 22.7237 63.0592 21.1083 63.0592 19.041Z" fill="#262439"/>
<path d="M81.0374 15.3483C80.3345 15.3609 79.6648 15.6545 79.173 16.1655C78.6813 16.6765 78.4071 17.3639 78.4097 18.079V26.3098H75.9521V13.2906H78.4097V14.4829C78.7774 13.9871 79.255 13.5868 79.8036 13.3144C80.3522 13.0421 80.9563 12.9054 81.5667 12.9156C83.2869 12.9156 84.6102 13.781 85.3664 15.1079C85.7882 14.4427 86.3656 13.8942 87.0469 13.5117C87.7281 13.1291 88.492 12.9243 89.2701 12.9156C92.0584 12.9156 93.8071 15.204 93.8071 18.0406V26.3098H91.3685V18.0694C91.371 17.3543 91.0968 16.6669 90.6051 16.1559C90.1133 15.6449 89.4436 15.3513 88.7408 15.3386C88.0379 15.3513 87.3682 15.6449 86.8765 16.1559C86.3847 16.6669 86.1105 17.3543 86.1131 18.0694V26.3002H83.6556V18.0694C83.6582 17.3559 83.3853 16.67 82.8956 16.1592C82.4059 15.6484 81.7386 15.3538 81.0374 15.3386V15.3483Z" fill="#262439"/>
<path fill-rule="evenodd" clip-rule="evenodd" d="M106.879 14.7719C106.321 14.18 105.65 13.7101 104.908 13.391C104.165 13.0719 103.366 12.9103 102.56 12.9162C98.9112 12.9162 96.3213 16.0508 96.3213 19.8008C96.3213 23.5508 98.9112 26.6854 102.56 26.6854C103.366 26.6896 104.164 26.5272 104.907 26.2082C105.649 25.8892 106.32 25.4202 106.879 24.8296V26.3104H109.327V13.2912H106.87V14.7719H106.879ZM98.7694 19.8008C98.7694 17.32 100.641 15.3489 102.824 15.3489C104.998 15.3489 106.879 17.32 106.879 19.8008C106.879 22.2816 105.008 24.2431 102.824 24.2431C100.65 24.2431 98.7694 22.2816 98.7694 19.8008Z" fill="#262439"/>
</g>
<defs>
<clipPath id="clip0_302_3011">
<rect width="69" height="25" fill="white" transform="translate(40.781 6.91602)"/>
</clipPath>
</defs>
</svg>
