<svg width="313" height="121" viewBox="0 0 313 121" fill="none" xmlns="http://www.w3.org/2000/svg">
<path opacity="0.3" d="M23.424 96L1.632 28.224H16.608L32.544 80.352H26.688L42.24 28.224H54.048L69.6 80.352H63.84L79.68 28.224H94.56L72.768 96H60.96L45.312 43.872H50.88L35.232 96H23.424ZM139.868 96V69.408C139.868 66.976 139.1 65.024 137.564 63.552C136.092 62.016 134.204 61.248 131.9 61.248C130.3 61.248 128.892 61.6 127.676 62.304C126.46 62.944 125.5 63.904 124.796 65.184C124.092 66.4 123.74 67.808 123.74 69.408L118.076 66.624C118.076 62.976 118.844 59.776 120.38 57.024C121.916 54.272 124.06 52.16 126.812 50.688C129.564 49.152 132.732 48.384 136.316 48.384C139.964 48.384 143.164 49.152 145.916 50.688C148.668 52.16 150.78 54.24 152.252 56.928C153.788 59.552 154.556 62.624 154.556 66.144V96H139.868ZM109.052 96V26.304H123.74V96H109.052ZM191.157 96.96C186.869 96.96 183.029 95.904 179.637 93.792C176.309 91.68 173.653 88.8 171.669 85.152C169.749 81.504 168.789 77.344 168.789 72.672C168.789 68 169.749 63.84 171.669 60.192C173.653 56.544 176.309 53.664 179.637 51.552C183.029 49.44 186.869 48.384 191.157 48.384C194.293 48.384 197.109 48.992 199.605 50.208C202.165 51.424 204.245 53.12 205.845 55.296C207.445 57.408 208.341 59.84 208.533 62.592V82.752C208.341 85.504 207.445 87.968 205.845 90.144C204.309 92.256 202.261 93.92 199.701 95.136C197.141 96.352 194.293 96.96 191.157 96.96ZM194.133 83.712C197.269 83.712 199.797 82.688 201.717 80.64C203.637 78.528 204.597 75.872 204.597 72.672C204.597 70.496 204.149 68.576 203.253 66.912C202.421 65.248 201.205 63.968 199.605 63.072C198.069 62.112 196.277 61.632 194.229 61.632C192.181 61.632 190.357 62.112 188.757 63.072C187.221 63.968 185.973 65.248 185.013 66.912C184.117 68.576 183.669 70.496 183.669 72.672C183.669 74.784 184.117 76.672 185.013 78.336C185.909 80 187.157 81.312 188.757 82.272C190.357 83.232 192.149 83.712 194.133 83.712ZM204.021 96V83.424L206.229 72.096L204.021 60.768V49.344H218.421V96H204.021ZM243.067 96V30.048H257.755V96H243.067ZM232.507 61.824V49.344H268.315V61.824H232.507Z" fill="#F2E3FF"/>
<path d="M176.304 96L168.24 72.672H175.44L180.432 89.616L178.32 89.664L183.84 72.672H189.792L195.36 89.664L193.2 89.616L198.24 72.672H205.44L197.376 96H191.376L185.952 79.872H187.776L182.256 96H176.304ZM223.171 96.528C220.643 96.528 218.387 96.016 216.403 94.992C214.451 93.936 212.915 92.48 211.795 90.624C210.675 88.768 210.115 86.672 210.115 84.336C210.115 82 210.659 79.92 211.747 78.096C212.867 76.24 214.371 74.784 216.259 73.728C218.147 72.672 220.275 72.144 222.643 72.144C224.947 72.144 226.979 72.64 228.739 73.632C230.499 74.624 231.875 76 232.867 77.76C233.891 79.52 234.403 81.536 234.403 83.808C234.403 84.224 234.371 84.672 234.307 85.152C234.275 85.6 234.195 86.128 234.067 86.736L213.955 86.784V81.744L230.947 81.696L227.779 83.808C227.747 82.464 227.539 81.36 227.155 80.496C226.771 79.6 226.195 78.928 225.427 78.48C224.691 78 223.779 77.76 222.691 77.76C221.539 77.76 220.531 78.032 219.667 78.576C218.835 79.088 218.179 79.824 217.699 80.784C217.251 81.744 217.027 82.912 217.027 84.288C217.027 85.664 217.267 86.848 217.747 87.84C218.259 88.8 218.963 89.552 219.859 90.096C220.787 90.608 221.875 90.864 223.123 90.864C224.275 90.864 225.315 90.672 226.243 90.288C227.171 89.872 227.987 89.264 228.691 88.464L232.723 92.496C231.571 93.84 230.179 94.848 228.547 95.52C226.915 96.192 225.123 96.528 223.171 96.528ZM264.704 96.48C262.496 96.48 260.528 95.952 258.8 94.896C257.104 93.84 255.76 92.4 254.768 90.576C253.808 88.752 253.328 86.672 253.328 84.336C253.328 82 253.808 79.92 254.768 78.096C255.76 76.272 257.104 74.832 258.8 73.776C260.528 72.72 262.496 72.192 264.704 72.192C266.304 72.192 267.744 72.496 269.024 73.104C270.336 73.712 271.408 74.56 272.24 75.648C273.104 76.704 273.584 77.92 273.68 79.296V89.136C273.584 90.512 273.12 91.76 272.288 92.88C271.456 93.968 270.384 94.848 269.072 95.52C267.76 96.16 266.304 96.48 264.704 96.48ZM266 89.856C267.056 89.856 267.968 89.632 268.736 89.184C269.504 88.704 270.112 88.048 270.56 87.216C271.008 86.384 271.232 85.424 271.232 84.336C271.232 83.248 271.008 82.304 270.56 81.504C270.144 80.672 269.536 80.016 268.736 79.536C267.968 79.056 267.072 78.816 266.048 78.816C265.024 78.816 264.112 79.056 263.312 79.536C262.544 80.016 261.92 80.672 261.44 81.504C260.992 82.336 260.768 83.28 260.768 84.336C260.768 85.392 260.992 86.336 261.44 87.168C261.888 88 262.512 88.656 263.312 89.136C264.112 89.616 265.008 89.856 266 89.856ZM278.144 96H270.944V89.712L272.048 84.048L270.8 78.384V61.152H278.144V96ZM298.387 96.528C295.987 96.528 293.811 96 291.859 94.944C289.939 93.856 288.419 92.384 287.299 90.528C286.179 88.672 285.619 86.592 285.619 84.288C285.619 81.984 286.179 79.92 287.299 78.096C288.419 76.272 289.939 74.832 291.859 73.776C293.779 72.688 295.955 72.144 298.387 72.144C300.819 72.144 302.995 72.672 304.915 73.728C306.835 74.784 308.355 76.24 309.475 78.096C310.595 79.92 311.155 81.984 311.155 84.288C311.155 86.592 310.595 88.672 309.475 90.528C308.355 92.384 306.835 93.856 304.915 94.944C302.995 96 300.819 96.528 298.387 96.528ZM298.387 89.856C299.443 89.856 300.371 89.632 301.171 89.184C301.971 88.704 302.579 88.048 302.995 87.216C303.443 86.352 303.667 85.376 303.667 84.288C303.667 83.2 303.443 82.256 302.995 81.456C302.547 80.624 301.923 79.984 301.123 79.536C300.355 79.056 299.443 78.816 298.387 78.816C297.363 78.816 296.451 79.056 295.651 79.536C294.851 79.984 294.227 80.624 293.779 81.456C293.331 82.288 293.107 83.248 293.107 84.336C293.107 85.392 293.331 86.352 293.779 87.216C294.227 88.048 294.851 88.704 295.651 89.184C296.451 89.632 297.363 89.856 298.387 89.856Z" fill="#262439"/>
</svg>
