<svg width="656" height="589" viewBox="0 0 656 589" fill="none" xmlns="http://www.w3.org/2000/svg">
<g filter="url(#filter0_ii_347_4416)">
<path d="M656 319.674C656 397.054 633.331 508.465 551.91 537.215C461.698 569.068 355.57 601.482 275.724 584.173C116.581 549.673 0 376.908 0 215.216C0 53.5239 128.609 -36.346 275.724 13.9668C422.838 64.2797 656 157.982 656 319.674Z" fill="white" fill-opacity="0.01"/>
</g>
<path d="M322.776 422.948C313.406 424.659 269.464 433.925 278.306 456.322C279.582 459.429 281.614 462.168 284.217 464.29C295.249 473.544 334.786 496.196 449.316 483.842C455.803 483.144 462.315 482.713 468.839 482.592C499.017 482.033 593.849 476.924 591.422 434.932C591.422 434.932 590.166 411.424 533.347 418.627L490.133 415.939C490.133 415.939 392.703 408.426 327.072 422.074C325.658 422.395 324.22 422.687 322.776 422.948Z" fill="#8B758A"/>
<path opacity="0.7" d="M322.776 422.948C313.406 424.659 269.464 433.925 278.306 456.322C279.582 459.429 281.614 462.168 284.217 464.29C295.249 473.544 334.786 496.196 449.316 483.842C455.803 483.144 462.315 482.713 468.839 482.592C499.017 482.033 593.849 476.924 591.422 434.932C591.422 434.932 590.166 411.424 533.347 418.627L490.133 415.939C490.133 415.939 392.703 408.426 327.072 422.074C325.658 422.395 324.22 422.687 322.776 422.948Z" fill="white"/>
<path d="M390.294 416.94C193.784 435.442 166.263 318.229 166.263 318.229C151.219 277.494 164.17 250.873 183.049 225.581C201.657 200.748 226.242 181.022 254.517 168.236C299.97 147.568 331.199 143.357 331.199 143.357C331.199 143.357 462.812 109.515 531.423 211.472C531.423 211.472 596.962 293.726 554.204 345.663C554.204 345.663 532.879 374.39 476.752 395.962L434.697 408.378C420.205 412.651 405.335 415.518 390.294 416.94Z" fill="#8B758A"/>
<path opacity="0.7" d="M390.294 416.94C193.784 435.442 166.263 318.229 166.263 318.229C151.219 277.494 164.17 250.873 183.049 225.581C201.657 200.748 226.242 181.022 254.517 168.236C299.97 147.568 331.199 143.357 331.199 143.357C331.199 143.357 462.812 109.515 531.423 211.472C531.423 211.472 596.962 293.726 554.204 345.663C554.204 345.663 532.879 374.39 476.752 395.962L434.697 408.378C420.205 412.651 405.335 415.518 390.294 416.94Z" fill="white"/>
<path d="M429.611 225.283H148.519V436.989H429.611V225.283Z" fill="white"/>
<path d="M429.611 225.283H150.801V246.777H429.611V225.283Z" fill="#E6E6E6"/>
<path opacity="0.29" d="M226.365 257.202H163.174V320.39H226.365V257.202Z" fill="#8B758A"/>
<path d="M521.464 324.291H518.205V347.089H521.464V324.291Z" fill="#999999"/>
<path d="M488.488 368.322V436.443H493.125L495.795 364.924L488.488 368.322Z" fill="#CCCCCC"/>
<path d="M516.901 354.911V425.908H521.544L524.068 351.652L516.901 354.911Z" fill="#CCCCCC"/>
<path d="M490.515 363.419L529.93 345.791L512.137 342.703L491.595 333.892L490.515 363.419Z" fill="#CCCCCC"/>
<path d="M483.178 370.792L529.905 349.05V345.791L490.515 363.419C490.515 363.419 485.933 368.431 483.178 370.792Z" fill="#B3B3B3"/>
<path d="M505.825 265.018H530.427C531.159 265.018 531.861 265.308 532.379 265.826C532.897 266.344 533.188 267.046 533.188 267.779V308.66H505.825V265.018Z" fill="#999999"/>
<path d="M429.291 126.918H231.579V211.599H429.291V126.918Z" fill="#8B758A"/>
<path opacity="0.3" d="M305.845 150.372H244.607V190.106H305.845V150.372Z" fill="white"/>
<g opacity="0.3">
<path d="M265.452 179.851C265.366 179.851 265.281 179.833 265.202 179.8C265.123 179.767 265.051 179.718 264.991 179.657L256.016 170.7C255.898 170.578 255.832 170.415 255.832 170.245C255.832 170.075 255.898 169.912 256.016 169.79L264.991 160.348C265.109 160.222 265.273 160.149 265.445 160.144C265.618 160.139 265.785 160.202 265.911 160.321C266.036 160.439 266.109 160.602 266.115 160.775C266.12 160.947 266.056 161.114 265.938 161.24L257.399 170.227L265.926 178.722C265.987 178.783 266.035 178.854 266.068 178.934C266.101 179.013 266.118 179.098 266.118 179.183C266.118 179.269 266.101 179.354 266.068 179.433C266.035 179.512 265.987 179.584 265.926 179.645C265.865 179.709 265.791 179.76 265.71 179.796C265.629 179.831 265.541 179.85 265.452 179.851Z" fill="white"/>
</g>
<g opacity="0.3">
<path d="M284.49 180.5C284.404 180.501 284.32 180.485 284.24 180.453C284.161 180.42 284.089 180.373 284.029 180.312C283.968 180.252 283.919 180.18 283.886 180.101C283.853 180.022 283.836 179.937 283.836 179.851C283.836 179.765 283.853 179.68 283.886 179.601C283.919 179.522 283.968 179.45 284.029 179.39L292.525 170.894L284.047 161.895C283.978 161.835 283.923 161.762 283.884 161.679C283.845 161.596 283.824 161.506 283.822 161.415C283.82 161.324 283.838 161.233 283.873 161.149C283.908 161.065 283.96 160.989 284.027 160.926C284.093 160.863 284.171 160.815 284.257 160.784C284.343 160.754 284.435 160.741 284.526 160.748C284.617 160.755 284.706 160.78 284.786 160.823C284.867 160.866 284.937 160.925 284.994 160.997L293.963 170.439C294.023 170.499 294.07 170.57 294.102 170.648C294.135 170.726 294.152 170.81 294.152 170.894C294.152 170.979 294.135 171.063 294.102 171.141C294.07 171.219 294.023 171.29 293.963 171.35L284.994 180.312C284.928 180.378 284.849 180.428 284.762 180.461C284.675 180.493 284.582 180.507 284.49 180.5Z" fill="white"/>
</g>
<g opacity="0.3">
<path d="M270.429 179.851C270.316 179.855 270.204 179.829 270.104 179.776C270.003 179.723 269.919 179.645 269.858 179.55C269.796 179.455 269.761 179.345 269.755 179.232C269.749 179.119 269.772 179.006 269.822 178.905L278.525 161.805C278.564 161.728 278.619 161.66 278.685 161.605C278.751 161.549 278.827 161.507 278.91 161.482C278.992 161.456 279.079 161.446 279.165 161.454C279.25 161.461 279.334 161.486 279.411 161.525C279.487 161.565 279.555 161.62 279.61 161.686C279.666 161.752 279.708 161.828 279.734 161.911C279.76 161.993 279.769 162.079 279.761 162.165C279.754 162.251 279.73 162.335 279.69 162.411L271.006 179.493C270.952 179.6 270.87 179.69 270.768 179.754C270.666 179.817 270.549 179.851 270.429 179.851Z" fill="white"/>
</g>
<path d="M403.225 172.521H360.885C360.723 172.505 360.573 172.429 360.463 172.309C360.354 172.188 360.293 172.031 360.293 171.868C360.293 171.705 360.354 171.548 360.463 171.428C360.573 171.307 360.723 171.232 360.885 171.216H403.225C403.316 171.207 403.408 171.217 403.495 171.246C403.581 171.275 403.661 171.322 403.729 171.383C403.796 171.445 403.851 171.519 403.888 171.603C403.925 171.687 403.944 171.777 403.944 171.868C403.944 171.96 403.925 172.05 403.888 172.134C403.851 172.217 403.796 172.292 403.729 172.353C403.661 172.415 403.581 172.461 403.495 172.49C403.408 172.519 403.316 172.529 403.225 172.521Z" fill="white"/>
<path d="M413.002 180.336H360.885C360.723 180.32 360.573 180.245 360.463 180.124C360.354 180.004 360.293 179.846 360.293 179.684C360.293 179.521 360.354 179.364 360.463 179.243C360.573 179.122 360.723 179.047 360.885 179.031H413.002C413.164 179.047 413.314 179.122 413.424 179.243C413.533 179.364 413.594 179.521 413.594 179.684C413.594 179.846 413.533 180.004 413.424 180.124C413.314 180.245 413.164 180.32 413.002 180.336Z" fill="white"/>
<path opacity="0.3" d="M399.651 193.365H369.017C366.504 193.365 364.466 195.403 364.466 197.916V198.584C364.466 201.097 366.504 203.135 369.017 203.135H399.651C402.165 203.135 404.202 201.097 404.202 198.584V197.916C404.202 195.403 402.165 193.365 399.651 193.365Z" fill="white"/>
<path opacity="0.3" d="M429.285 126.918V211.599H231.579C231.579 211.599 264.804 175.736 319.275 166.695C321.763 166.282 324.275 166.015 326.788 165.845C343.767 164.686 423.495 157.756 429.285 126.918Z" fill="white"/>
<path d="M217.899 177.727H103.896V307.355H217.899V177.727Z" fill="#8B758A"/>
<path opacity="0.3" d="M217.899 177.727H103.896V198.571H217.899V177.727Z" fill="white"/>
<path d="M148.198 205.089H113.019V240.266H148.198V205.089Z" fill="#3A3856"/>
<path opacity="0.3" d="M184.997 190.433C186.257 190.433 187.278 189.412 187.278 188.152C187.278 186.892 186.257 185.87 184.997 185.87C183.736 185.87 182.715 186.892 182.715 188.152C182.715 189.412 183.736 190.433 184.997 190.433Z" fill="white"/>
<path opacity="0.3" d="M196.727 190.433C197.987 190.433 199.009 189.412 199.009 188.152C199.009 186.892 197.987 185.87 196.727 185.87C195.467 185.87 194.445 186.892 194.445 188.152C194.445 189.412 195.467 190.433 196.727 190.433Z" fill="white"/>
<path opacity="0.3" d="M208.452 190.433C209.712 190.433 210.733 189.412 210.733 188.152C210.733 186.892 209.712 185.87 208.452 185.87C207.191 185.87 206.17 186.892 206.17 188.152C206.17 189.412 207.191 190.433 208.452 190.433Z" fill="white"/>
<path d="M188.584 216.812H156.002C155.917 216.812 155.832 216.795 155.753 216.763C155.675 216.73 155.603 216.682 155.543 216.622C155.482 216.562 155.435 216.49 155.402 216.411C155.369 216.333 155.353 216.248 155.353 216.163C155.353 216.078 155.369 215.993 155.402 215.914C155.435 215.836 155.482 215.764 155.543 215.704C155.603 215.644 155.675 215.596 155.753 215.563C155.832 215.53 155.917 215.514 156.002 215.514H188.571C188.744 215.514 188.909 215.582 189.031 215.704C189.152 215.826 189.221 215.991 189.221 216.163C189.221 216.335 189.152 216.5 189.031 216.622C188.909 216.744 188.744 216.812 188.571 216.812H188.584Z" fill="white"/>
<path d="M198.025 224.628H156.335C156.163 224.628 155.998 224.559 155.876 224.438C155.754 224.316 155.686 224.151 155.686 223.978C155.686 223.806 155.754 223.641 155.876 223.519C155.998 223.398 156.163 223.329 156.335 223.329H198.025C198.111 223.329 198.195 223.346 198.274 223.379C198.353 223.411 198.424 223.459 198.485 223.519C198.545 223.58 198.593 223.651 198.625 223.73C198.658 223.809 198.675 223.893 198.675 223.978C198.675 224.064 198.658 224.148 198.625 224.227C198.593 224.306 198.545 224.377 198.485 224.438C198.424 224.498 198.353 224.546 198.274 224.578C198.195 224.611 198.111 224.628 198.025 224.628Z" fill="white"/>
<path d="M208.452 232.45H156.336C156.173 232.435 156.023 232.359 155.913 232.238C155.804 232.118 155.743 231.961 155.743 231.798C155.743 231.635 155.804 231.478 155.913 231.357C156.023 231.237 156.173 231.161 156.336 231.146H208.452C208.614 231.161 208.764 231.237 208.874 231.357C208.984 231.478 209.044 231.635 209.044 231.798C209.044 231.961 208.984 232.118 208.874 232.238C208.764 232.359 208.614 232.435 208.452 232.45Z" fill="white"/>
<path d="M186.951 274.156H136.145C136.054 274.165 135.962 274.155 135.876 274.126C135.789 274.097 135.709 274.051 135.642 273.989C135.574 273.928 135.52 273.853 135.483 273.769C135.446 273.686 135.427 273.595 135.427 273.504C135.427 273.413 135.446 273.322 135.483 273.239C135.52 273.155 135.574 273.08 135.642 273.019C135.709 272.957 135.789 272.911 135.876 272.882C135.962 272.853 136.054 272.843 136.145 272.852H186.951C187.113 272.867 187.263 272.943 187.373 273.063C187.482 273.184 187.543 273.341 187.543 273.504C187.543 273.667 187.482 273.824 187.373 273.945C187.263 274.065 187.113 274.141 186.951 274.156Z" fill="white"/>
<path d="M203.238 281.954H119.857C119.766 281.963 119.674 281.953 119.588 281.924C119.501 281.895 119.421 281.848 119.353 281.787C119.286 281.726 119.232 281.651 119.195 281.567C119.158 281.484 119.139 281.393 119.139 281.302C119.139 281.21 119.158 281.12 119.195 281.037C119.232 280.953 119.286 280.878 119.353 280.817C119.421 280.755 119.501 280.709 119.588 280.68C119.674 280.651 119.766 280.641 119.857 280.65H203.238C203.329 280.641 203.421 280.651 203.508 280.68C203.594 280.709 203.674 280.755 203.742 280.817C203.809 280.878 203.863 280.953 203.9 281.037C203.937 281.12 203.957 281.21 203.957 281.302C203.957 281.393 203.937 281.484 203.9 281.567C203.863 281.651 203.809 281.726 203.742 281.787C203.674 281.848 203.594 281.895 203.508 281.924C203.421 281.953 203.329 281.963 203.238 281.954Z" fill="white"/>
<path d="M187.279 289.77H135.818C135.727 289.778 135.635 289.768 135.549 289.739C135.462 289.71 135.382 289.664 135.314 289.602C135.247 289.541 135.193 289.466 135.156 289.383C135.119 289.299 135.1 289.209 135.1 289.117C135.1 289.026 135.119 288.936 135.156 288.852C135.193 288.768 135.247 288.694 135.314 288.632C135.382 288.571 135.462 288.524 135.549 288.495C135.635 288.467 135.727 288.456 135.818 288.465H187.279C187.37 288.456 187.462 288.467 187.548 288.495C187.635 288.524 187.715 288.571 187.782 288.632C187.85 288.694 187.904 288.768 187.941 288.852C187.978 288.936 187.997 289.026 187.997 289.117C187.997 289.209 187.978 289.299 187.941 289.383C187.904 289.466 187.85 289.541 187.782 289.602C187.715 289.664 187.635 289.71 187.548 289.739C187.462 289.768 187.37 289.778 187.279 289.77Z" fill="white"/>
<path opacity="0.3" d="M183.37 250.685H135.818V260.454H183.37V250.685Z" fill="white"/>
<path opacity="0.29" d="M281.085 257.202H240.699V267.627H281.085V257.202Z" fill="#8B758A"/>
<path d="M272.383 278.276H240.7C240.609 278.285 240.517 278.275 240.43 278.246C240.344 278.217 240.264 278.171 240.196 278.109C240.129 278.048 240.075 277.973 240.038 277.889C240.001 277.806 239.981 277.715 239.981 277.624C239.981 277.533 240.001 277.442 240.038 277.359C240.075 277.275 240.129 277.2 240.196 277.139C240.264 277.078 240.344 277.031 240.43 277.002C240.517 276.973 240.609 276.963 240.7 276.972H272.383C272.474 276.963 272.566 276.973 272.653 277.002C272.74 277.031 272.819 277.078 272.887 277.139C272.955 277.2 273.009 277.275 273.046 277.359C273.083 277.442 273.102 277.533 273.102 277.624C273.102 277.715 273.083 277.806 273.046 277.889C273.009 277.973 272.955 278.048 272.887 278.109C272.819 278.171 272.74 278.217 272.653 278.246C272.566 278.275 272.474 278.285 272.383 278.276Z" fill="#E6E6E6"/>
<path d="M282.712 286.093H240.699C240.527 286.093 240.362 286.024 240.24 285.902C240.118 285.781 240.05 285.615 240.05 285.443C240.05 285.271 240.118 285.106 240.24 284.984C240.362 284.862 240.527 284.794 240.699 284.794H282.712C282.884 284.794 283.049 284.862 283.171 284.984C283.292 285.106 283.361 285.271 283.361 285.443C283.361 285.615 283.292 285.781 283.171 285.902C283.049 286.024 282.884 286.093 282.712 286.093Z" fill="#E6E6E6"/>
<path d="M291.183 293.908H240.699C240.527 293.908 240.362 293.84 240.24 293.718C240.118 293.596 240.05 293.431 240.05 293.259C240.05 293.086 240.118 292.921 240.24 292.8C240.362 292.678 240.527 292.609 240.699 292.609H291.183C291.355 292.609 291.521 292.678 291.642 292.8C291.764 292.921 291.832 293.086 291.832 293.259C291.832 293.431 291.764 293.596 291.642 293.718C291.521 293.84 291.355 293.908 291.183 293.908Z" fill="#E6E6E6"/>
<path d="M315.288 301.73H240.7C240.609 301.738 240.517 301.728 240.43 301.699C240.344 301.67 240.264 301.624 240.196 301.562C240.129 301.501 240.075 301.426 240.038 301.343C240.001 301.259 239.981 301.169 239.981 301.077C239.981 300.986 240.001 300.896 240.038 300.812C240.075 300.728 240.129 300.653 240.196 300.592C240.264 300.531 240.344 300.484 240.43 300.455C240.517 300.426 240.609 300.416 240.7 300.425H315.288C315.45 300.441 315.6 300.516 315.71 300.637C315.819 300.757 315.88 300.914 315.88 301.077C315.88 301.24 315.819 301.397 315.71 301.518C315.6 301.638 315.45 301.714 315.288 301.73Z" fill="#E6E6E6"/>
<path opacity="0.29" d="M334.506 311.263H240.699V320.383H334.506V311.263Z" fill="#8B758A"/>
<path d="M238.199 342.902H164.164C164.002 342.887 163.851 342.811 163.741 342.691C163.632 342.57 163.571 342.413 163.571 342.25C163.571 342.087 163.632 341.93 163.741 341.81C163.851 341.689 164.002 341.613 164.164 341.598H238.199C238.29 341.589 238.382 341.599 238.469 341.628C238.555 341.657 238.635 341.703 238.703 341.765C238.771 341.826 238.825 341.901 238.862 341.985C238.899 342.068 238.918 342.159 238.918 342.25C238.918 342.341 238.899 342.432 238.862 342.515C238.825 342.599 238.771 342.674 238.703 342.735C238.635 342.797 238.555 342.843 238.469 342.872C238.382 342.901 238.29 342.911 238.199 342.902Z" fill="#E6E6E6"/>
<path d="M299.326 342.902H248.187C248.025 342.887 247.874 342.811 247.765 342.691C247.655 342.57 247.595 342.413 247.595 342.25C247.595 342.087 247.655 341.93 247.765 341.809C247.874 341.689 248.025 341.613 248.187 341.598H299.326C299.488 341.613 299.639 341.689 299.749 341.809C299.858 341.93 299.919 342.087 299.919 342.25C299.919 342.413 299.858 342.57 299.749 342.691C299.639 342.811 299.488 342.887 299.326 342.902Z" fill="#E6E6E6"/>
<path d="M338.414 342.902H320.494C320.331 342.887 320.181 342.811 320.071 342.691C319.962 342.57 319.901 342.413 319.901 342.25C319.901 342.087 319.962 341.93 320.071 341.809C320.181 341.689 320.331 341.613 320.494 341.598H338.414C338.576 341.613 338.726 341.689 338.836 341.809C338.946 341.93 339.006 342.087 339.006 342.25C339.006 342.413 338.946 342.57 338.836 342.691C338.726 342.811 338.576 342.887 338.414 342.902Z" fill="#E6E6E6"/>
<path opacity="0.29" d="M243.958 340.621H240.699V343.88H243.958V340.621Z" fill="#8B758A"/>
<path opacity="0.29" d="M307.144 340.621H303.885V343.88H307.144V340.621Z" fill="#8B758A"/>
<path d="M314.96 340.621H311.701V343.88H314.96V340.621Z" fill="#CCCCCC"/>
<path d="M220.504 360.421H164.498C164.336 360.405 164.185 360.33 164.075 360.209C163.966 360.089 163.905 359.931 163.905 359.769C163.905 359.606 163.966 359.449 164.075 359.328C164.185 359.207 164.336 359.132 164.498 359.116H220.522C220.684 359.132 220.835 359.207 220.944 359.328C221.054 359.449 221.114 359.606 221.114 359.769C221.114 359.931 221.054 360.089 220.944 360.209C220.835 360.33 220.684 360.405 220.522 360.421H220.504Z" fill="#E6E6E6"/>
<path d="M260.889 376.326H163.83C163.739 376.335 163.647 376.325 163.56 376.296C163.474 376.267 163.394 376.221 163.326 376.159C163.258 376.098 163.204 376.023 163.167 375.939C163.13 375.856 163.111 375.765 163.111 375.674C163.111 375.583 163.13 375.492 163.167 375.409C163.204 375.325 163.258 375.25 163.326 375.189C163.394 375.127 163.474 375.081 163.56 375.052C163.647 375.023 163.739 375.013 163.83 375.022H260.889C260.98 375.013 261.072 375.023 261.159 375.052C261.245 375.081 261.325 375.127 261.393 375.189C261.46 375.25 261.514 375.325 261.551 375.409C261.588 375.492 261.608 375.583 261.608 375.674C261.608 375.765 261.588 375.856 261.551 375.939C261.514 376.023 261.46 376.098 261.393 376.159C261.325 376.221 261.245 376.267 261.159 376.296C261.072 376.325 260.98 376.335 260.889 376.326Z" fill="#E6E6E6"/>
<path d="M282.39 360.421H239.746C239.656 360.43 239.564 360.419 239.477 360.391C239.39 360.362 239.311 360.315 239.243 360.254C239.175 360.192 239.121 360.117 239.084 360.034C239.047 359.95 239.028 359.86 239.028 359.769C239.028 359.677 239.047 359.587 239.084 359.503C239.121 359.42 239.175 359.345 239.243 359.283C239.311 359.222 239.39 359.175 239.477 359.147C239.564 359.118 239.656 359.108 239.746 359.116H282.414C282.576 359.132 282.727 359.207 282.836 359.328C282.946 359.449 283.006 359.606 283.006 359.769C283.006 359.932 282.946 360.089 282.836 360.209C282.727 360.33 282.576 360.405 282.414 360.421H282.39Z" fill="#E6E6E6"/>
<path d="M297.045 376.326H275.199C275.036 376.31 274.886 376.235 274.776 376.114C274.667 375.994 274.606 375.837 274.606 375.674C274.606 375.511 274.667 375.354 274.776 375.233C274.886 375.113 275.036 375.037 275.199 375.021H297.045C297.207 375.037 297.358 375.113 297.467 375.233C297.577 375.354 297.638 375.511 297.638 375.674C297.638 375.837 297.577 375.994 297.467 376.114C297.358 376.235 297.207 376.31 297.045 376.326Z" fill="#E6E6E6"/>
<path opacity="0.29" d="M226.365 358.14H223.106V361.398H226.365V358.14Z" fill="#8B758A"/>
<path d="M234.182 358.14H230.923V361.398H234.182V358.14Z" fill="#CCCCCC"/>
<path opacity="0.29" d="M264.804 374.044H261.545V377.303H264.804V374.044Z" fill="#8B758A"/>
<path d="M272.619 374.044H269.36V377.303H272.619V374.044Z" fill="#CCCCCC"/>
<path d="M300.625 411.254H266.101C265.939 411.238 265.789 411.163 265.679 411.042C265.569 410.922 265.509 410.765 265.509 410.602C265.509 410.439 265.569 410.282 265.679 410.161C265.789 410.04 265.939 409.965 266.101 409.949H300.625C300.716 409.941 300.808 409.951 300.894 409.98C300.981 410.008 301.061 410.055 301.128 410.116C301.196 410.178 301.25 410.253 301.287 410.336C301.324 410.42 301.343 410.51 301.343 410.602C301.343 410.693 301.324 410.783 301.287 410.867C301.25 410.95 301.196 411.025 301.128 411.087C301.061 411.148 300.981 411.195 300.894 411.224C300.808 411.252 300.716 411.263 300.625 411.254Z" fill="#E6E6E6"/>
<path d="M337.449 411.254H320.494C320.331 411.238 320.181 411.163 320.071 411.042C319.962 410.922 319.901 410.765 319.901 410.602C319.901 410.439 319.962 410.282 320.071 410.161C320.181 410.04 320.331 409.965 320.494 409.949H337.449C337.54 409.941 337.632 409.951 337.718 409.98C337.805 410.008 337.885 410.055 337.952 410.116C338.02 410.178 338.074 410.253 338.111 410.336C338.148 410.42 338.167 410.51 338.167 410.602C338.167 410.693 338.148 410.783 338.111 410.867C338.074 410.95 338.02 411.025 337.952 411.087C337.885 411.148 337.805 411.195 337.718 411.224C337.632 411.252 337.54 411.263 337.449 411.254Z" fill="#E6E6E6"/>
<path d="M307.799 408.973H304.54V412.231H307.799V408.973Z" fill="#CCCCCC"/>
<path opacity="0.29" d="M315.615 408.973H312.356V412.231H315.615V408.973Z" fill="#8B758A"/>
<path d="M337.449 376.326H313.005C312.843 376.311 312.693 376.235 312.583 376.114C312.474 375.994 312.413 375.837 312.413 375.674C312.413 375.511 312.474 375.354 312.583 375.233C312.693 375.113 312.843 375.037 313.005 375.022H337.449C337.54 375.013 337.632 375.023 337.719 375.052C337.806 375.081 337.885 375.127 337.953 375.189C338.021 375.25 338.075 375.325 338.112 375.409C338.149 375.492 338.168 375.583 338.168 375.674C338.168 375.765 338.149 375.856 338.112 375.939C338.075 376.023 338.021 376.098 337.953 376.159C337.885 376.221 337.806 376.267 337.719 376.296C337.632 376.325 337.54 376.335 337.449 376.326Z" fill="#E6E6E6"/>
<path d="M302.586 374.044H299.327V377.303H302.586V374.044Z" fill="#CCCCCC"/>
<path opacity="0.29" d="M310.402 374.044H307.144V377.303H310.402V374.044Z" fill="#8B758A"/>
<path d="M209.405 394.306H164.498C164.336 394.29 164.185 394.214 164.075 394.094C163.966 393.973 163.905 393.816 163.905 393.653C163.905 393.49 163.966 393.333 164.075 393.213C164.185 393.092 164.336 393.017 164.498 393.001H209.405C209.567 393.017 209.717 393.092 209.827 393.213C209.936 393.333 209.997 393.49 209.997 393.653C209.997 393.816 209.936 393.973 209.827 394.094C209.717 394.214 209.567 394.29 209.405 394.306Z" fill="#E6E6E6"/>
<path d="M297.045 394.306H265.125C264.962 394.29 264.812 394.214 264.702 394.094C264.593 393.973 264.532 393.816 264.532 393.653C264.532 393.49 264.593 393.333 264.702 393.213C264.812 393.092 264.962 393.017 265.125 393.001H297.045C297.207 393.017 297.358 393.092 297.467 393.213C297.577 393.333 297.637 393.49 297.637 393.653C297.637 393.816 297.577 393.973 297.467 394.094C297.358 394.214 297.207 394.29 297.045 394.306Z" fill="#E6E6E6"/>
<path d="M337.449 394.306H305.516C305.426 394.315 305.334 394.304 305.247 394.275C305.16 394.247 305.081 394.2 305.013 394.139C304.945 394.077 304.891 394.002 304.854 393.919C304.817 393.835 304.798 393.745 304.798 393.653C304.798 393.562 304.817 393.472 304.854 393.388C304.891 393.305 304.945 393.23 305.013 393.168C305.081 393.107 305.16 393.06 305.247 393.031C305.334 393.003 305.426 392.992 305.516 393.001H337.449C337.54 392.992 337.632 393.003 337.718 393.031C337.805 393.06 337.885 393.107 337.952 393.168C338.02 393.23 338.074 393.305 338.111 393.388C338.148 393.472 338.167 393.562 338.167 393.653C338.167 393.745 338.148 393.835 338.111 393.919C338.074 394.002 338.02 394.077 337.952 394.139C337.885 394.2 337.805 394.247 337.718 394.275C337.632 394.304 337.54 394.315 337.449 394.306Z" fill="#E6E6E6"/>
<path d="M213.992 392.036H210.733V395.295H213.992V392.036Z" fill="#CCCCCC"/>
<path opacity="0.29" d="M221.809 392.036H218.55V395.295H221.809V392.036Z" fill="#8B758A"/>
<path d="M228.975 392.036H225.716V395.295H228.975V392.036Z" fill="#CCCCCC"/>
<path d="M240.7 411.254H164.498C164.336 411.238 164.185 411.163 164.075 411.042C163.966 410.922 163.905 410.764 163.905 410.602C163.905 410.439 163.966 410.282 164.075 410.161C164.185 410.04 164.336 409.965 164.498 409.949H240.718C240.88 409.965 241.031 410.04 241.14 410.161C241.25 410.282 241.31 410.439 241.31 410.602C241.31 410.764 241.25 410.922 241.14 411.042C241.031 411.163 240.88 411.238 240.718 411.254H240.7Z" fill="#E6E6E6"/>
<path d="M245.257 408.973H241.998V412.231H245.257V408.973Z" fill="#CCCCCC"/>
<path opacity="0.29" d="M253.073 408.973H249.814V412.231H253.073V408.973Z" fill="#8B758A"/>
<path d="M260.24 408.973H256.981V412.231H260.24V408.973Z" fill="#CCCCCC"/>
<path opacity="0.29" d="M236.791 392.036H233.532V395.295H236.791V392.036Z" fill="#8B758A"/>
<path d="M245.912 392.036H242.653V395.295H245.912V392.036Z" fill="#CCCCCC"/>
<path opacity="0.29" d="M253.073 392.036H249.814V395.295H253.073V392.036Z" fill="#8B758A"/>
<path d="M260.895 392.036H257.636V395.295H260.895V392.036Z" fill="#CCCCCC"/>
<path d="M338.414 360.421H302.252C302.161 360.43 302.069 360.419 301.982 360.391C301.895 360.362 301.816 360.315 301.748 360.254C301.68 360.192 301.626 360.117 301.589 360.034C301.552 359.95 301.533 359.86 301.533 359.769C301.533 359.677 301.552 359.587 301.589 359.503C301.626 359.42 301.68 359.345 301.748 359.283C301.816 359.222 301.895 359.175 301.982 359.147C302.069 359.118 302.161 359.108 302.252 359.116H338.408C338.57 359.132 338.72 359.207 338.83 359.328C338.939 359.449 339 359.606 339 359.769C339 359.932 338.939 360.089 338.83 360.209C338.72 360.33 338.57 360.405 338.408 360.421H338.414Z" fill="#E6E6E6"/>
<path opacity="0.29" d="M288.902 358.14H285.643V361.398H288.902V358.14Z" fill="#8B758A"/>
<path d="M296.724 358.14H293.465V361.398H296.724V358.14Z" fill="#CCCCCC"/>
<path d="M178.807 364.682H116.271V403.767H178.807V364.682Z" fill="#8B758A"/>
<g opacity="0.3">
<path d="M138.706 394.524C138.538 394.525 138.377 394.459 138.257 394.342L128.851 385.343C128.787 385.283 128.736 385.211 128.702 385.13C128.667 385.05 128.649 384.963 128.649 384.876C128.649 384.789 128.667 384.702 128.702 384.622C128.736 384.541 128.787 384.469 128.851 384.409L138.251 375.306C138.311 375.246 138.383 375.197 138.462 375.164C138.541 375.131 138.626 375.114 138.712 375.114C138.798 375.114 138.883 375.131 138.962 375.164C139.041 375.197 139.113 375.246 139.173 375.306C139.295 375.429 139.363 375.595 139.363 375.768C139.363 375.94 139.295 376.106 139.173 376.229L130.252 384.876L139.167 393.408C139.228 393.468 139.276 393.54 139.309 393.619C139.342 393.698 139.359 393.783 139.359 393.869C139.359 393.955 139.342 394.04 139.309 394.119C139.276 394.198 139.228 394.27 139.167 394.33C139.044 394.452 138.879 394.522 138.706 394.524Z" fill="white"/>
</g>
<g opacity="0.3">
<path d="M157.312 394.525C157.183 394.524 157.057 394.485 156.95 394.413C156.843 394.34 156.76 394.238 156.712 394.118C156.663 393.998 156.652 393.866 156.679 393.74C156.706 393.613 156.77 393.498 156.863 393.408L165.778 384.755L156.863 376.223C156.738 376.104 156.666 375.94 156.662 375.768C156.658 375.595 156.723 375.428 156.842 375.304C156.961 375.179 157.125 375.107 157.297 375.103C157.47 375.099 157.636 375.163 157.761 375.282L167.167 384.282C167.23 384.342 167.281 384.415 167.315 384.495C167.35 384.575 167.367 384.661 167.368 384.749C167.369 384.837 167.352 384.924 167.319 385.005C167.285 385.087 167.236 385.16 167.173 385.222L157.767 394.324C157.648 394.448 157.484 394.52 157.312 394.525Z" fill="white"/>
</g>
<g opacity="0.3">
<path d="M143.634 393.341C143.528 393.341 143.424 393.316 143.33 393.268C143.254 393.228 143.187 393.174 143.132 393.108C143.077 393.043 143.036 392.967 143.011 392.885C142.985 392.803 142.976 392.717 142.984 392.632C142.992 392.547 143.017 392.464 143.057 392.388L151.553 376.107C151.59 376.026 151.643 375.952 151.708 375.892C151.774 375.831 151.852 375.785 151.937 375.756C152.021 375.727 152.111 375.715 152.2 375.722C152.289 375.728 152.376 375.753 152.455 375.794C152.534 375.836 152.604 375.893 152.661 375.963C152.717 376.032 152.758 376.113 152.782 376.199C152.807 376.285 152.813 376.375 152.801 376.464C152.789 376.552 152.758 376.638 152.712 376.714L144.216 392.995C144.161 393.101 144.077 393.19 143.974 393.251C143.871 393.312 143.753 393.343 143.634 393.341Z" fill="white"/>
</g>
<path d="M356.001 322.993H348.834V449.363H356.001V322.993Z" fill="#999999"/>
<path opacity="0.1" d="M356.001 322.993H352.742V449.363H356.001V322.993Z" fill="black"/>
<path d="M378.15 323.314H370.983V427.863H378.15V323.314Z" fill="#999999"/>
<path opacity="0.1" d="M378.151 323.314H374.892V427.863H378.151V323.314Z" fill="black"/>
<path d="M534.493 322.993H527.326V449.363H534.493V322.993Z" fill="#999999"/>
<path opacity="0.1" d="M534.493 322.993H531.234V449.363H534.493V322.993Z" fill="black"/>
<path d="M552.735 314.85H545.568V427.869H552.735V314.85Z" fill="#999999"/>
<path opacity="0.1" d="M552.735 314.85H549.477V427.869H552.735V314.85Z" fill="black"/>
<path d="M502.573 265.018H527.169C527.901 265.018 528.603 265.308 529.121 265.826C529.639 266.344 529.93 267.046 529.93 267.779V308.66H502.573V265.018Z" fill="#B3B3B3"/>
<path d="M341.018 321.039L374.631 304.115H562.518L540.355 321.039H341.018Z" fill="#CCCCCC"/>
<path d="M413.979 439.593L394.256 455.018C394.256 455.018 385.997 462.391 393.133 466.948C393.133 466.948 403.553 473.465 412.025 462.391L423.779 443.191L413.979 439.593Z" fill="#8B758A"/>
<path opacity="0.2" d="M391.829 461.735C396.684 467.002 404.318 465.904 409.094 461.128C411.339 458.829 413.342 456.074 415.478 453.665C417.347 451.468 420.035 448.331 421.941 446.213C420.242 448.482 417.657 451.729 415.872 453.986C413.803 456.486 411.788 459.235 409.549 461.596C404.567 466.517 396.532 467.591 391.835 461.753L391.829 461.735Z" fill="black"/>
<path opacity="0.2" d="M395.901 454.223C399.816 454.168 403.979 455.692 406.43 458.853C407.236 459.903 407.813 461.11 408.123 462.397C407.966 462.112 407.814 461.79 407.674 461.529C407.537 461.237 407.372 460.959 407.183 460.698C404.755 456.82 400.24 454.994 395.901 454.223Z" fill="black"/>
<path opacity="0.2" d="M400.295 451.953C403.226 451.559 407.407 452.518 408.123 455.837C406.533 453.04 403.208 452.554 400.295 451.953Z" fill="black"/>
<path opacity="0.2" d="M402.904 449.363C405.829 448.968 410.017 449.927 410.727 453.24C409.143 450.449 405.811 449.963 402.904 449.363Z" fill="black"/>
<path opacity="0.2" d="M408.117 445.454C411.042 445.06 415.229 446.019 415.939 449.332C414.356 446.535 411.024 446.055 408.117 445.454Z" fill="black"/>
<path d="M418.864 430.145L414.01 439.593C414.01 439.593 411.995 442.02 414.768 443.525C415.526 443.929 416.373 444.137 417.232 444.132H422.026C422.375 444.132 422.719 444.049 423.029 443.89C423.34 443.73 423.607 443.499 423.81 443.215L429.691 434.92C429.691 434.92 421.444 431.747 418.864 430.145Z" fill="#F9B499"/>
<path d="M417.748 409.616L419.884 416.066L423.125 406.843L417.748 409.616Z" fill="#F9B499"/>
<path d="M516.331 301.705C516.331 306.705 512.993 306.705 512.993 306.705L503.891 309.964C499.837 311.317 498.162 311.111 497.519 310.85C497.385 310.799 497.242 310.779 497.099 310.789C496.957 310.8 496.818 310.841 496.693 310.911C496.68 310.926 496.663 310.938 496.645 310.947C495.942 311.438 495.157 311.798 494.327 312.009C492.573 312.361 492.822 310.607 492.822 310.607C492.881 310.298 492.922 309.986 492.943 309.673C492.985 308.483 492.673 307.308 492.046 306.295C491.42 305.283 490.507 304.48 489.423 303.987C488.493 303.556 487.524 303.214 486.529 302.967C485.917 302.816 485.277 302.816 484.666 302.967L479.611 304.126H454.202L430.905 303.447C428.739 289.717 431.44 275.662 438.539 263.712C440.096 261.037 441.887 258.504 443.891 256.145C444.328 255.636 444.583 255.375 444.583 255.375L446.021 253.293C446.021 253.293 465.441 254.592 465.665 253.943C465.89 253.293 479.107 245.447 479.107 245.447L497.774 253.336C498.602 253.701 499.344 254.237 499.952 254.908C503.969 259.064 507.119 268.967 507.119 268.967L515.615 296.978C516.054 298.517 516.295 300.105 516.331 301.705Z" fill="#8B758A"/>
<path d="M495.109 285.079C495.109 285.079 476.454 288.113 462.49 285.213C462.132 285.14 461.78 285.049 461.428 284.952C455.941 283.506 450.26 282.934 444.594 283.259L431.207 283.149L430.546 287.579H452.92C452.92 287.579 460.203 287.816 466.089 289.77C466.089 289.77 471.951 291.724 483.688 290.419L496.929 288.805L495.109 285.079Z" fill="#3A3856"/>
<path opacity="0.2" d="M499.963 254.865C487.589 256.443 465.439 263.712 465.439 263.712C460.227 259.805 443.902 256.145 443.902 256.145C444.339 255.636 444.594 255.375 444.594 255.375L446.032 253.293C446.032 253.293 465.452 254.592 465.676 253.943C465.901 253.293 479.118 245.447 479.118 245.447L497.785 253.336C498.609 253.689 499.351 254.209 499.963 254.865Z" fill="black"/>
<path d="M461.308 254.326C461.06 254.391 460.808 254.444 460.555 254.483C456.149 255.26 451.604 253.349 447.969 249.629C444.764 246.263 442.516 242.103 441.458 237.577C438.672 226.303 443.054 215.532 451.24 213.511C459.426 211.49 468.311 218.972 471.096 230.253C473.882 241.534 469.5 252.311 461.308 254.326Z" fill="#F9B499"/>
<path d="M472.934 232.45C473.474 232.45 473.911 231.575 473.911 230.496C473.911 229.417 473.474 228.542 472.934 228.542C472.394 228.542 471.957 229.417 471.957 230.496C471.957 231.575 472.394 232.45 472.934 232.45Z" stroke="#FF0000" stroke-width="0.75" stroke-miterlimit="10"/>
<path d="M480.423 227.887C480.423 227.887 490.849 233.621 473.912 238.894C473.714 238.172 473.604 237.428 473.584 236.679C473.559 235.75 473.669 234.822 473.912 233.924L468.699 231.279C468.699 231.279 465.865 231.794 464.348 228.536C464.348 228.536 458.928 228.536 459.578 224.628C459.578 224.628 455.67 227.237 454.365 223.979C454.365 223.979 448.485 228.154 442.635 221.175C442.635 221.175 440.037 225.933 440.814 233.918C440.814 233.918 436.967 237.001 434.788 234.149C434.301 233.484 434.03 232.685 434.011 231.861C433.959 231.173 434.117 230.485 434.467 229.89C434.816 229.294 435.339 228.82 435.965 228.53C435.965 228.53 431.25 226.776 431.378 222.899C431.429 221.899 431.723 220.926 432.233 220.065C432.233 220.065 433.21 217.637 436.863 218.663C437.511 218.859 438.141 219.11 438.745 219.415C438.745 219.415 433.762 208.942 440.808 202.127C440.808 202.127 452.423 190.1 456.987 205.082C456.987 205.082 460.961 198.929 467.303 200.458C467.768 200.57 468.225 200.716 468.668 200.895C468.668 200.895 473.226 202.109 472.576 209.452C472.576 209.452 478.439 204.427 483.651 210.289C483.651 210.289 487.56 215.077 483.651 220.168C483.7 220.18 485.636 224.628 480.423 227.887Z" fill="#3A3856"/>
<path opacity="0.2" d="M443.29 219.906C443.29 219.906 441.336 213.559 447.198 209.645C447.198 209.645 451.404 206.908 457.205 210.531C457.787 210.91 458.341 211.329 458.862 211.787C460.64 213.356 462.918 214.24 465.288 214.281C465.288 214.281 471.964 213.996 472.935 221.563C472.935 221.563 465.44 215.058 459.906 218.201C459.906 218.201 456.975 208.966 449.152 211.569C449.152 211.599 444.595 212.904 443.29 219.906Z" fill="black"/>
<path opacity="0.2" d="M436.845 218.669C433.672 219.234 431.384 222.917 431.384 222.917C431.436 221.917 431.729 220.945 432.239 220.083C432.239 220.083 433.192 217.626 436.845 218.669Z" fill="black"/>
<path opacity="0.2" d="M480.424 227.887C480.424 227.887 490.849 233.621 473.912 238.894C473.618 238.196 473.505 237.434 473.585 236.679C473.631 236.247 473.742 235.824 473.912 235.423L476.516 231.279C478.47 230.108 478.47 227.237 478.47 227.237C479.598 226.787 480.573 226.023 481.279 225.035C481.796 224.322 482.127 223.491 482.243 222.618C482.358 221.745 482.254 220.857 481.941 220.034C480.588 216.588 476.516 217.553 476.516 217.553C477.82 207.844 471.952 210.969 471.952 210.969C471.345 202.158 467.571 200.562 467.334 200.471C467.799 200.582 468.256 200.728 468.699 200.908C468.699 200.908 473.257 202.121 472.607 209.464C472.607 209.464 478.47 204.439 483.682 210.301C483.682 210.301 487.591 215.089 483.682 220.18C483.701 220.18 485.637 224.628 480.424 227.887Z" fill="black"/>
<path d="M484.98 246.776L468.699 260.594C466.089 262.687 464.791 261.109 464.791 261.109L464.068 259.975L460.555 254.513C472.934 251.692 471.885 235.453 471.885 235.453H473.911C473.579 237.8 474.036 240.19 475.21 242.249C477.583 241.297 480.672 241.388 482.128 241.503C482.721 241.544 483.309 241.644 483.882 241.8C489.119 243.208 484.98 246.776 484.98 246.776Z" fill="#F9B499"/>
<path d="M484.98 246.777L468.699 260.594C466.089 262.687 464.791 261.11 464.791 261.11L464.068 259.975C471.162 256.886 478.026 248.548 478.026 248.548C480.49 244.908 476.424 242.765 475.441 242.31C475.424 242.303 475.41 242.29 475.4 242.275C475.39 242.259 475.385 242.241 475.385 242.222C475.385 242.204 475.39 242.186 475.4 242.17C475.41 242.155 475.424 242.142 475.441 242.134C477.783 241.273 480.708 241.364 482.116 241.473C482.709 241.514 483.297 241.613 483.87 241.77C489.119 243.208 484.98 246.777 484.98 246.777Z" fill="#F7A48B"/>
<path d="M460.555 254.483L462.418 257.402C462.418 257.402 473.742 251.012 471.52 241.406C471.563 241.388 470.653 252.42 460.555 254.483Z" fill="#F7A48B"/>
<path d="M448.503 253.943C452.51 254.564 456.373 255.902 459.906 257.894" stroke="#FF0000" stroke-width="0.75" stroke-miterlimit="10"/>
<path opacity="0.2" d="M516.33 301.706C516.33 306.706 512.992 306.706 512.992 306.706L503.89 309.965C499.836 311.318 498.161 311.112 497.518 310.851C497.384 310.8 497.241 310.78 497.098 310.79C496.956 310.801 496.817 310.842 496.692 310.911C496.911 310.766 497.712 310.026 496.644 307.877L493.227 302.768C493.176 302.69 493.142 302.601 493.126 302.509C493.11 302.417 493.114 302.322 493.136 302.231C493.158 302.14 493.198 302.055 493.255 301.98C493.311 301.906 493.383 301.843 493.464 301.797C493.566 301.739 493.681 301.71 493.798 301.712C493.905 301.712 494.012 301.737 494.108 301.785C494.204 301.834 494.287 301.904 494.35 301.991L498.683 308.017C498.683 308.017 499.332 310.62 507.786 306.712C507.786 306.706 515.104 303.891 516.33 301.706Z" fill="black"/>
<path opacity="0.2" d="M494.308 312.009C492.554 312.361 492.803 310.608 492.803 310.608C492.862 310.299 492.903 309.987 492.924 309.673C492.966 308.484 492.654 307.308 492.028 306.296C491.401 305.284 490.488 304.48 489.404 303.987C488.474 303.556 487.505 303.215 486.51 302.968C486.51 302.968 491.498 300.838 494.101 307.349C494.101 307.355 494.902 310.171 494.308 312.009Z" fill="black"/>
<path opacity="0.2" d="M496.056 296.281C496.056 296.281 487.56 299.855 484.647 302.956L479.592 304.115H454.202L430.905 303.447C428.739 289.718 431.44 275.663 438.539 263.713C438.721 263.713 443.934 265.018 449.141 283.258C449.141 283.258 454.317 302.561 462.491 301.706H476.752C476.752 301.706 489.545 302.149 489.545 293.677V280.649C489.545 280.649 489.939 275.54 492.027 278.75L498.666 292.361C498.666 292.361 499.964 294.982 496.056 296.281Z" fill="black"/>
<path opacity="0.2" d="M498.009 256.559C492.899 260.63 490.259 267.044 490.193 273.495C490.132 272.688 490.029 271.869 490.041 271.068C490.041 265.333 493.009 259.508 498.009 256.571V256.559Z" fill="black"/>
<path d="M473.911 296.608C473.825 296.605 473.744 296.569 473.685 296.506C473.626 296.444 473.594 296.361 473.596 296.275L474.245 276.729C474.245 263.81 477.492 254.574 477.522 254.483C477.552 254.402 477.613 254.336 477.691 254.3C477.77 254.264 477.86 254.26 477.941 254.289C477.981 254.303 478.017 254.325 478.049 254.354C478.08 254.382 478.106 254.417 478.124 254.455C478.142 254.493 478.152 254.535 478.154 254.577C478.156 254.62 478.149 254.662 478.135 254.702C478.135 254.793 474.901 263.925 474.901 276.741L474.245 296.293C474.242 296.379 474.205 296.46 474.143 296.519C474.08 296.578 473.997 296.61 473.911 296.608Z" fill="#3A3856"/>
<path d="M457.606 298.562C457.52 298.559 457.439 298.523 457.38 298.46C457.321 298.398 457.288 298.315 457.29 298.229L457.946 279.339C457.928 272.448 458.474 265.568 459.578 258.767C459.585 258.725 459.601 258.685 459.624 258.649C459.647 258.614 459.676 258.583 459.711 258.558C459.746 258.534 459.786 258.517 459.828 258.508C459.869 258.499 459.912 258.499 459.954 258.506C460.039 258.523 460.115 258.572 460.164 258.644C460.213 258.715 460.231 258.804 460.215 258.889C459.122 265.652 458.58 272.493 458.595 279.345L457.946 298.247C457.941 298.333 457.903 298.414 457.839 298.473C457.776 298.532 457.692 298.564 457.606 298.562Z" fill="#3A3856"/>
<g opacity="0.2">
<path d="M473.912 296.608C473.826 296.605 473.745 296.569 473.686 296.506C473.627 296.444 473.595 296.361 473.597 296.275L474.246 276.729C474.246 263.81 477.493 254.574 477.523 254.483C477.553 254.402 477.614 254.336 477.692 254.3C477.771 254.264 477.861 254.26 477.942 254.289C477.982 254.303 478.018 254.325 478.05 254.354C478.081 254.382 478.107 254.417 478.125 254.455C478.143 254.493 478.153 254.535 478.155 254.577C478.157 254.62 478.15 254.662 478.136 254.702C478.136 254.793 474.901 263.925 474.901 276.741L474.246 296.293C474.243 296.379 474.206 296.46 474.144 296.519C474.081 296.578 473.998 296.61 473.912 296.608Z" fill="black"/>
<path d="M457.606 298.562C457.52 298.559 457.439 298.523 457.38 298.46C457.321 298.398 457.288 298.315 457.29 298.229L457.946 279.339C457.928 272.448 458.474 265.568 459.578 258.767C459.585 258.725 459.601 258.685 459.624 258.649C459.647 258.614 459.676 258.583 459.711 258.558C459.746 258.534 459.786 258.517 459.828 258.508C459.869 258.499 459.912 258.499 459.954 258.506C460.039 258.523 460.115 258.572 460.164 258.644C460.213 258.715 460.231 258.804 460.215 258.889C459.122 265.652 458.58 272.493 458.595 279.345L457.946 298.247C457.941 298.333 457.903 298.414 457.839 298.473C457.776 298.532 457.692 298.564 457.606 298.562Z" fill="black"/>
</g>
<path d="M513.642 325.596C513.642 325.699 513.642 330.911 512.343 341.227L512.137 342.702C511.94 344.164 511.835 345.638 511.821 347.113C511.785 349.444 510.267 353.879 498.895 352.095C499.192 351.592 499.466 351.094 499.72 350.584L499.933 350.172C500.886 348.351 502.172 345.572 502.573 343.181C502.573 343.181 466.769 339.929 455.014 335.365C455.014 335.365 437.84 328.199 431.444 330.481L426.352 334.728C426.352 334.728 421.795 333.424 428.306 325.626L513.642 325.596Z" fill="#8B758A"/>
<path opacity="0.2" d="M502.573 343.182C502.573 343.182 510.947 343.74 510.638 347.429C510.606 347.77 510.503 348.101 510.335 348.399C510.166 348.697 509.937 348.956 509.661 349.159C508.544 350.014 505.868 351.155 499.86 350.306C501 348.027 501.908 345.641 502.573 343.182Z" fill="black"/>
<path opacity="0.2" d="M427.348 333.891C427.348 333.891 423.507 331.464 431.444 330.48L427.348 333.891Z" fill="black"/>
<path d="M502.573 343.182C501.963 345.605 501.077 347.951 499.933 350.173L499.72 350.585C499.581 350.846 499.453 351.077 499.338 351.283C499.223 351.489 499.053 351.823 498.895 352.096C490.824 366.308 473.674 379.063 466.696 383.875C465.775 384.506 465.009 385.337 464.455 386.306C463.901 387.275 463.574 388.357 463.498 389.47C462.053 411.825 451.761 431.122 451.761 431.122C449.57 434.259 446.299 435.77 442.658 436.255C431.068 437.821 415.277 429.168 415.277 429.168L423.773 405.065C430.94 378.365 438.101 370.543 438.101 370.543L454.207 337.096L455.038 335.366C466.744 339.929 502.573 343.182 502.573 343.182Z" fill="#3A3856"/>
<path opacity="0.2" d="M502.573 343.182C501.964 345.605 501.078 347.951 499.934 350.172L499.721 350.585C499.582 350.846 499.454 351.076 499.339 351.283C499.224 351.489 499.054 351.823 498.896 352.096C490.825 366.307 473.675 379.063 466.696 383.875C465.776 384.506 465.01 385.337 464.456 386.306C463.902 387.275 463.575 388.356 463.498 389.47C462.054 411.825 451.762 431.121 451.762 431.121C449.571 434.259 446.3 435.77 442.659 436.255C454.796 420.648 461.635 385.889 461.635 385.889C461.095 377.801 484.981 356.847 484.981 356.847C494.084 347.745 482.377 345.117 482.377 345.117C471.897 343.467 458.152 338.54 454.183 337.077L455.015 335.348C466.745 339.929 502.573 343.182 502.573 343.182Z" fill="black"/>
<path d="M442.659 361.034L422.445 369.238L430.334 385.015C430.334 385.015 426.972 394.84 423.415 406.715C423.415 406.715 415.272 412.249 406.806 411.6C406.806 411.6 399.639 393.359 395.731 374.469C395.731 374.469 390.518 363.394 399.639 356.228L426.049 334.868L431.468 330.481C431.468 330.481 435.498 327.55 455.038 335.366L442.659 361.034Z" fill="#3A3856"/>
<path d="M417.323 423.36L404.415 433.324C403.158 434.313 401.767 435.116 400.282 435.709C398.334 436.468 395.519 438.136 396.131 441.274C396.303 442.094 396.673 442.86 397.21 443.504C397.746 444.149 398.432 444.652 399.208 444.969C400.756 445.612 403.207 446.049 406.812 445.194L413.979 439.593L418.512 430.77L415.278 429.168L417.323 423.36Z" fill="#8B758A"/>
<path opacity="0.2" d="M417.323 423.36L404.415 433.324C403.158 434.313 401.767 435.116 400.282 435.709C398.334 436.468 395.519 438.136 396.131 441.274C396.303 442.094 396.673 442.86 397.21 443.504C397.746 444.149 398.432 444.652 399.208 444.969C400.756 445.612 403.207 446.049 406.812 445.194L413.979 439.593L418.512 430.77L415.278 429.168L417.323 423.36Z" fill="black"/>
<path opacity="0.2" d="M442.659 361.034L422.445 369.238L430.334 385.016C428.304 392.416 425.895 399.707 423.119 406.861C423.119 406.861 415.272 412.249 406.807 411.6C430.911 409.646 419.417 370.81 419.417 370.81C416.759 364.875 420.746 363.134 423.167 362.63C424.714 362.312 426.235 361.882 427.719 361.344L433.824 359.098C436.077 358.293 438.146 357.043 439.908 355.425C441.671 353.806 443.091 351.851 444.085 349.675C444.801 348.076 445.258 346.374 445.439 344.632C445.621 342.624 445.097 340.615 443.955 338.953C442.814 337.291 441.128 336.08 439.188 335.53C434.078 334.025 428.957 334.413 426.02 334.862L431.439 330.475C431.439 330.475 435.468 327.544 455.009 335.36L442.659 361.034Z" fill="black"/>
<path opacity="0.2" d="M396.047 440.424C400.902 443.149 406.873 442.803 411.825 440.576C412.547 440.266 413.239 439.884 413.973 439.568C413.318 440.011 412.65 440.448 411.971 440.861C407.116 443.61 400.574 443.956 396.041 440.424H396.047Z" fill="black"/>
<path opacity="0.2" d="M403.384 434.064C405.896 435.181 410.775 438.215 410.727 441.286C410.29 439.58 408.724 438.5 407.48 437.366C406.236 436.231 404.749 435.199 403.384 434.064Z" fill="black"/>
<path opacity="0.2" d="M406.812 431.474C408.693 431.741 410.161 433.44 410.726 435.175C409.372 433.931 408.298 432.584 406.812 431.474Z" fill="black"/>
<path opacity="0.2" d="M409.252 429.586C410.178 429.829 411.03 430.297 411.731 430.949C412.432 431.602 412.961 432.417 413.269 433.324C411.952 431.995 410.63 430.897 409.252 429.586Z" fill="black"/>
<path opacity="0.2" d="M412.024 427.444C413.569 428.331 414.729 429.761 415.277 431.455C414.004 430.284 412.908 428.932 412.024 427.444Z" fill="black"/>
<path d="M540.355 321.039H341.018V325.596H540.355V321.039Z" fill="#B3B3B3"/>
<path d="M540.355 321.039V325.597L562.505 308.011L562.518 304.115L540.355 321.039Z" fill="#999999"/>
<path d="M393.134 309.309H452.648L448.2 270.631C448.109 269.798 447.713 269.027 447.09 268.468C446.466 267.908 445.658 267.598 444.82 267.597H390.203C389.951 267.601 389.702 267.658 389.473 267.764C389.244 267.869 389.04 268.021 388.873 268.21C388.705 268.399 388.579 268.621 388.502 268.861C388.425 269.101 388.399 269.354 388.425 269.605L393.134 309.309Z" fill="#8B758A"/>
<path opacity="0.3" d="M452.648 309.309H393.134L388.425 269.63C388.399 269.378 388.426 269.123 388.503 268.882C388.581 268.641 388.708 268.419 388.877 268.23C389.045 268.041 389.251 267.889 389.482 267.784C389.712 267.68 389.962 267.624 390.215 267.621H444.832C445.669 267.624 446.476 267.934 447.098 268.494C447.72 269.054 448.115 269.823 448.206 270.655L452.648 309.309Z" fill="white"/>
<path opacity="0.3" d="M439.115 267.621L393.134 307.355L392.138 299.667L429.399 267.621H439.115Z" fill="white"/>
<path opacity="0.3" d="M398.783 309.309L447.058 268.464C447.677 269.033 448.08 269.798 448.199 270.63L448.43 272.657L405.289 309.309H398.783Z" fill="white"/>
<path d="M450.457 309.309H393.134V313.216H450.457V309.309Z" fill="#8B758A"/>
<path d="M468.352 309.309H450.456V313.216H468.352V309.309Z" fill="#8B758A"/>
<path opacity="0.2" d="M468.352 309.309H450.456V313.216H468.352V309.309Z" fill="black"/>
<path d="M339.713 314.522H368.022L388.406 302.641H364.06L339.713 314.522Z" fill="white"/>
<path d="M368.022 314.521H339.713V317.343H368.022V314.521Z" fill="#E6E6E6"/>
<path d="M388.406 302.641V306.197L368.022 317.344V314.522L388.406 302.641Z" fill="#CCCCCC"/>
<path opacity="0.1" d="M388.406 302.641V306.197L368.022 317.344V314.522L388.406 302.641Z" fill="black"/>
<path d="M484.646 302.956C484.646 302.956 476.472 304.091 471.933 310.286C471.933 310.286 465.834 315.839 471.823 314.856C471.823 314.856 472.109 317.696 476.915 315.784C476.915 315.784 477.746 317.793 482.983 314.856C482.983 314.856 488.227 311.919 492.79 310.608C492.802 310.614 494.726 303.108 484.646 302.956Z" fill="#F9B499"/>
<path d="M477.024 308.66C475.652 311 473.899 313.094 471.836 314.856C473.212 312.518 474.965 310.425 477.024 308.66Z" fill="#F7A48B"/>
<path d="M476.916 315.784C477.948 313.925 479.365 312.307 481.073 311.039C480.039 312.898 478.622 314.515 476.916 315.784Z" fill="#F7A48B"/>
<path d="M472.607 235.702C474.765 235.702 476.515 233.515 476.515 230.817C476.515 228.12 474.765 225.933 472.607 225.933C470.448 225.933 468.698 228.12 468.698 230.817C468.698 233.515 470.448 235.702 472.607 235.702Z" fill="#F9B499"/>
<path d="M473.911 238.894C473.911 238.894 481.314 235.902 488.621 236.637C492.708 237.082 496.47 239.073 499.137 242.201C502.081 245.599 506.14 251.364 501.795 253.306C501.088 253.599 500.326 253.733 499.561 253.699C498.797 253.664 498.049 253.462 497.371 253.105C494.337 251.595 486.503 248.912 468.37 260.782L484.98 246.776C484.98 246.776 488.918 242.844 482.856 241.6C482.332 241.498 481.799 241.447 481.266 241.449C479.221 241.484 477.186 241.742 475.197 242.219C475.197 242.219 473.911 240.132 473.911 238.894Z" fill="#8B758A"/>
<path opacity="0.3" d="M473.911 238.894C473.911 238.894 481.314 235.902 488.621 236.637C492.708 237.082 496.47 239.073 499.137 242.201C502.081 245.599 506.14 251.364 501.795 253.306C501.088 253.599 500.326 253.733 499.561 253.699C498.797 253.664 498.049 253.462 497.371 253.105C494.337 251.595 486.503 248.912 468.37 260.782L484.98 246.776C484.98 246.776 488.918 242.844 482.856 241.6C482.332 241.498 481.799 241.447 481.266 241.449C479.221 241.484 477.186 241.742 475.197 242.219C475.197 242.219 473.911 240.132 473.911 238.894Z" fill="white"/>
<path opacity="0.3" d="M494.101 242.22C490.624 246.437 485.921 249.538 481.206 252.226C480.508 252.578 479.822 252.954 479.118 253.294C484.191 249.702 489.435 246.37 494.101 242.22Z" fill="white"/>
<path opacity="0.3" d="M499.964 244.822C497.051 248.063 492.712 249.786 488.488 250.49C492.415 248.931 496.535 247.31 499.964 244.816V244.822Z" fill="white"/>
<path d="M464.79 261.109C462.096 259.489 451.828 256.983 448.357 256.164C447.683 256.014 447 255.913 446.312 255.86C443.393 255.587 443.945 253.943 443.945 253.943C443.945 251.34 447.968 249.641 447.968 249.641C451.609 253.348 456.149 255.26 460.554 254.495L464.79 261.109Z" fill="#8B758A"/>
<path opacity="0.3" d="M464.79 261.109C462.096 259.489 451.828 256.983 448.357 256.164C447.683 256.014 447 255.913 446.312 255.86C443.393 255.587 443.945 253.943 443.945 253.943C443.945 251.34 447.968 249.641 447.968 249.641C451.609 253.348 456.149 255.26 460.554 254.495L464.79 261.109Z" fill="white"/>
<path d="M419.513 293.678C422.211 293.678 424.398 291.491 424.398 288.793C424.398 286.095 422.211 283.908 419.513 283.908C416.815 283.908 414.628 286.095 414.628 288.793C414.628 291.491 416.815 293.678 419.513 293.678Z" fill="white"/>
<defs>
<filter id="filter0_ii_347_4416" x="-2" y="-2" width="660" height="593" filterUnits="userSpaceOnUse" color-interpolation-filters="sRGB">
<feFlood flood-opacity="0" result="BackgroundImageFix"/>
<feBlend mode="normal" in="SourceGraphic" in2="BackgroundImageFix" result="shape"/>
<feColorMatrix in="SourceAlpha" type="matrix" values="0 0 0 0 0 0 0 0 0 0 0 0 0 0 0 0 0 0 127 0" result="hardAlpha"/>
<feOffset dx="2" dy="-2"/>
<feGaussianBlur stdDeviation="3"/>
<feComposite in2="hardAlpha" operator="arithmetic" k2="-1" k3="1"/>
<feColorMatrix type="matrix" values="0 0 0 0 1 0 0 0 0 1 0 0 0 0 1 0 0 0 0.6 0"/>
<feBlend mode="normal" in2="shape" result="effect1_innerShadow_347_4416"/>
<feColorMatrix in="SourceAlpha" type="matrix" values="0 0 0 0 0 0 0 0 0 0 0 0 0 0 0 0 0 0 127 0" result="hardAlpha"/>
<feOffset dx="-2" dy="2"/>
<feGaussianBlur stdDeviation="1"/>
<feComposite in2="hardAlpha" operator="arithmetic" k2="-1" k3="1"/>
<feColorMatrix type="matrix" values="0 0 0 0 0.14902 0 0 0 0 0.141176 0 0 0 0 0.223529 0 0 0 0.6 0"/>
<feBlend mode="normal" in2="effect1_innerShadow_347_4416" result="effect2_innerShadow_347_4416"/>
</filter>
</defs>
</svg>
