<svg width="932" height="782" viewBox="0 0 932 782" fill="none" xmlns="http://www.w3.org/2000/svg">
    <g filter="url(#filter0_b_0_1)">
        <ellipse cx="761.783" cy="384.71" rx="64.8317" ry="61.7482" transform="rotate(-16.6181 761.783 384.71)" fill="url(#paint0_linear_0_1)"/>
        <path d="M822.949 366.455C832.531 398.56 812.982 432.825 779.157 442.921C745.331 453.016 710.2 435.071 700.618 402.965C691.036 370.86 710.584 336.594 744.41 326.499C778.235 316.404 813.367 334.349 822.949 366.455Z" stroke="url(#paint1_linear_0_1)" stroke-width="2"/>
    </g>
    <g filter="url(#filter1_f_0_1)">
        <ellipse cx="324.061" cy="602.304" rx="80.0265" ry="35.9364" transform="rotate(1.70659 324.061 602.304)" fill="url(#paint2_linear_0_1)"/>
    </g>
    <ellipse cx="332.831" cy="583.974" rx="80.0265" ry="35.9364" transform="rotate(16.4002 332.831 583.974)" fill="url(#paint3_linear_0_1)"/>
    <ellipse cx="336.26" cy="572.325" rx="80.0265" ry="30.3573" transform="rotate(16.4002 336.26 572.325)" fill="url(#paint4_linear_0_1)"/>
    <ellipse cx="336.26" cy="572.325" rx="80.0265" ry="30.3573" transform="rotate(16.4002 336.26 572.325)" fill="url(#paint5_linear_0_1)"/>
    <g filter="url(#filter2_f_0_1)">
        <path d="M40.4072 124.979L96.4673 117.599L180.14 195.884L182.084 195.628L175.535 107.19L231.595 99.8092L311.239 246.985L267.168 252.787L221.124 167.701L219.828 167.872L228.309 256.671L201.737 260.169L119.062 180.522L117.766 180.692L164.122 266.353L120.051 272.155L40.4072 124.979Z" fill="url(#paint6_linear_0_1)"/>
        <path d="M334.62 245.754C326.681 246.799 319.038 246.574 311.691 245.078C304.371 243.527 297.7 240.607 291.677 236.319C285.654 232.031 280.659 226.222 276.692 218.892C273.426 212.856 271.8 207.553 271.815 202.983C271.804 198.365 273.139 194.418 275.82 191.139C278.5 187.861 282.206 185.141 286.937 182.978C291.722 180.808 297.212 179.085 303.405 177.808C310.113 176.411 315.392 175.101 319.241 173.875C323.119 172.595 325.666 171.208 326.882 169.713C328.073 168.171 328.097 166.345 326.957 164.237L326.801 163.95C325.245 161.075 322.811 159.035 319.497 157.829C316.183 156.623 312.581 156.276 308.693 156.788C304.426 157.35 301.396 158.647 299.604 160.679C297.839 162.656 297.606 165.381 298.907 168.854L257.753 174.272C254.664 167.494 253.723 160.997 254.93 154.782C256.165 148.512 259.994 143.133 266.417 138.643C272.813 134.106 282.196 131.023 294.563 129.395C303.475 128.222 311.973 128.104 320.059 129.041C328.12 129.93 335.529 131.7 342.286 134.351C349.018 136.955 354.872 140.29 359.85 144.356C364.856 148.368 368.745 152.936 371.519 158.063L412.43 233.663L370.628 239.166L362.228 223.644L361.256 223.772C361.001 228.219 359.779 231.947 357.588 234.955C355.452 237.956 352.427 240.331 348.512 242.078C344.652 243.818 340.021 245.043 334.62 245.754ZM335.669 218.826C339.072 218.378 341.921 217.336 344.217 215.699C346.568 214.055 348.053 211.935 348.673 209.339C349.293 206.742 348.695 203.767 346.88 200.414L341.903 191.215C340.948 191.803 339.899 192.377 338.756 192.938C337.668 193.492 336.458 194.036 335.127 194.571C333.85 195.098 332.453 195.616 330.934 196.124C329.469 196.624 327.911 197.112 326.258 197.586C323.061 198.52 320.653 199.684 319.035 201.077C317.445 202.416 316.538 203.947 316.313 205.67C316.117 207.338 316.537 209.13 317.574 211.047C319.233 214.113 321.719 216.3 325.031 217.609C328.342 218.918 331.889 219.324 335.669 218.826Z" fill="url(#paint7_linear_0_1)"/>
        <path d="M425.604 203.907L400.417 156.722L406.25 155.954L416.32 114.905L466.547 108.292L447.262 172.726L434.624 174.389L425.604 203.907ZM399.578 235.355L319.934 88.1791L364.652 82.2918L444.296 229.467L399.578 235.355ZM476.377 225.244L424.216 185.305L438.136 153.296L527.576 218.503L476.377 225.244Z" fill="url(#paint8_linear_0_1)"/>
        <path d="M559.296 216.483C546.01 218.232 533.341 217.488 521.291 214.25C509.269 210.957 498.371 205.412 488.597 197.615C478.852 189.763 470.764 179.896 464.335 168.014C458.164 156.612 455.364 146.306 455.934 137.096C456.504 127.885 460.231 120.286 467.116 114.299C474.001 108.312 483.87 104.472 496.724 102.78C506.121 101.543 515.327 101.716 524.342 103.301C533.358 104.885 541.901 107.789 549.972 112.013C558.017 116.189 565.39 121.582 572.092 128.193C578.794 134.803 584.517 142.492 589.261 151.26L594.239 160.458L483.091 175.091L471.269 153.245L541.263 144.03C539.498 140.875 537.076 138.217 533.997 136.056C530.947 133.84 527.573 132.257 523.877 131.307C520.209 130.302 516.511 130.044 512.785 130.535C509.166 131.011 506.221 132.143 503.948 133.931C501.65 135.67 500.23 137.859 499.69 140.496C499.204 143.126 499.776 146.053 501.405 149.277L514.16 172.848C516.079 176.393 518.627 179.445 521.805 182.004C524.983 184.562 528.566 186.425 532.554 187.594C536.542 188.762 540.75 189.055 545.179 188.472C548.257 188.067 550.858 187.314 552.982 186.213C555.159 185.105 556.778 183.712 557.836 182.033C558.869 180.306 559.26 178.356 559.009 176.182L599.839 170.806C602.583 178.657 602.865 185.753 600.685 192.096C598.48 198.391 593.899 203.665 586.943 207.916C580.015 212.113 570.799 214.969 559.296 216.483Z" fill="url(#paint9_linear_0_1)"/>
    </g>
    <g filter="url(#filter3_f_0_1)">
        <path d="M302.181 246.893L289.75 413.774L244.789 420.293L257.22 253.412L302.181 246.893Z" fill="url(#paint10_linear_0_1)"/>
        <path d="M322.387 410.654C313.546 411.936 305.579 410.78 298.488 407.187C291.45 403.586 286.048 397.357 282.282 388.499C278.569 379.634 277.251 367.976 278.327 353.526C279.452 338.424 282.685 325.811 288.025 315.686C293.42 305.554 299.973 297.752 307.687 292.281C315.454 286.802 323.435 283.469 331.629 282.281C337.775 281.39 343.085 281.695 347.56 283.195C352.038 284.642 355.707 286.931 358.567 290.063C361.431 293.14 363.513 296.681 364.815 300.683L365.462 300.59L370.196 237.031L414.834 230.559L402.403 397.44L358.089 403.866L359.619 383.331L358.648 383.472C356.608 387.959 353.844 392.122 350.359 395.959C346.931 399.733 342.854 402.931 338.126 405.551C333.456 408.109 328.209 409.81 322.387 410.654ZM341.457 373.713C345.554 373.119 349.147 371.415 352.237 368.603C355.384 365.729 357.903 361.978 359.794 357.351C361.743 352.662 362.944 347.276 363.398 341.191C363.859 334.998 363.445 329.819 362.155 325.653C360.924 321.426 358.912 318.359 356.121 316.453C353.388 314.485 349.973 313.798 345.876 314.392C341.779 314.986 338.185 316.689 335.096 319.501C332.065 322.251 329.602 325.967 327.707 330.648C325.869 335.267 324.72 340.673 324.259 346.866C323.798 353.059 324.156 358.273 325.333 362.509C326.569 366.682 328.526 369.757 331.206 371.733C333.943 373.647 337.36 374.307 341.457 373.713Z" fill="url(#paint11_linear_0_1)"/>
        <path d="M449.507 392.868C436.245 394.79 425.006 393.894 415.791 390.179C406.633 386.402 399.825 380.081 395.365 371.216C390.964 362.289 389.265 351.09 390.269 337.618C391.232 324.689 394.661 313.014 400.557 302.594C406.453 292.174 414.318 283.591 424.153 276.845C433.988 270.1 445.32 265.796 458.151 263.936C467.531 262.576 475.913 262.812 483.296 264.643C490.678 266.474 496.857 269.797 501.831 274.61C506.81 279.37 510.459 285.504 512.779 293.013C515.1 300.522 515.889 309.247 515.149 319.188L514.372 329.618L403.425 345.705L405.27 320.934L475.138 310.803C475.351 307.226 474.669 304.208 473.092 301.75C471.574 299.229 469.388 297.424 466.537 296.332C463.743 295.179 460.486 294.872 456.766 295.412C453.154 295.935 449.78 297.204 446.644 299.217C443.512 301.176 440.928 303.646 438.893 306.628C436.911 309.602 435.731 312.917 435.352 316.572L433.361 343.299C433.062 347.319 433.63 350.783 435.067 353.692C436.503 356.6 438.718 358.724 441.712 360.063C444.705 361.402 448.412 361.752 452.832 361.111C455.905 360.665 458.741 359.824 461.339 358.587C463.992 357.343 466.295 355.773 468.25 353.878C470.208 351.928 471.705 349.723 472.742 347.262L513.498 341.352C511.449 350.247 507.571 358.279 501.864 365.447C496.162 372.561 488.866 378.509 479.977 383.291C471.147 388.01 460.99 391.203 449.507 392.868Z" fill="url(#paint12_linear_0_1)"/>
        <path d="M529.009 381.018C521.085 382.167 514.174 381.879 508.276 380.155C502.436 378.369 497.992 375.037 494.942 370.159C491.892 365.281 490.677 358.686 491.296 350.375C491.806 343.53 493.4 337.522 496.078 332.352C498.761 327.126 502.293 322.665 506.674 318.966C511.056 315.268 516.057 312.205 521.677 309.778C527.351 307.344 533.414 305.417 539.866 303.997C546.861 302.446 552.489 300.985 556.751 299.615C561.07 298.182 564.226 296.623 566.218 294.937C568.214 293.197 569.302 291.132 569.48 288.741L569.504 288.416C569.747 285.156 568.693 282.837 566.342 281.458C563.992 280.079 560.876 279.671 556.995 280.234C552.736 280.852 549.188 282.307 546.351 284.599C543.571 286.829 541.769 289.911 540.942 293.846L499.863 299.803C500.968 292.119 503.889 284.764 508.626 277.736C513.42 270.646 520.085 264.575 528.621 259.522C537.16 254.415 547.603 250.966 559.948 249.176C568.843 247.886 576.743 247.789 583.647 248.884C590.556 249.924 596.35 251.959 601.031 254.988C605.715 257.963 609.165 261.761 611.381 266.384C613.654 270.944 614.574 276.131 614.141 281.943L607.756 367.666L566.03 373.716L567.341 356.115L566.37 356.256C563.542 361.287 560.242 365.5 556.47 368.895C552.751 372.282 548.579 374.956 543.953 376.916C539.382 378.869 534.401 380.236 529.009 381.018ZM545.677 350.551C549.074 350.058 552.307 348.891 555.377 347.048C558.502 345.198 561.106 342.805 563.191 339.87C565.276 336.935 566.461 333.566 566.744 329.763L567.521 319.333C566.298 319.994 564.997 320.639 563.617 321.269C562.291 321.891 560.859 322.502 559.321 323.101C557.837 323.692 556.247 324.272 554.552 324.841C552.91 325.401 551.19 325.946 549.391 326.476C545.9 327.519 543.003 328.826 540.699 330.396C538.454 331.903 536.725 333.632 535.514 335.581C534.36 337.468 533.702 339.498 533.54 341.67C533.281 345.147 534.296 347.633 536.584 349.128C538.873 350.624 541.904 351.098 545.677 350.551Z" fill="url(#paint13_linear_0_1)"/>
    </g>
    <g filter="url(#filter4_f_0_1)">
        <path d="M414.796 474.585L369.106 480.601C366.44 477.634 363.451 475.018 360.14 472.752C356.883 470.479 353.353 468.622 349.551 467.179C345.77 465.686 341.81 464.691 337.671 464.193C333.499 463.652 329.253 463.666 324.933 464.235C317.371 465.231 312.109 467.535 309.145 471.148C306.235 474.754 305.555 479.465 307.103 485.28C308.705 491.088 312.484 497.818 318.439 505.47C324.729 513.553 331.348 520.146 338.297 525.25C345.267 530.304 352.415 533.866 359.741 535.934C367.033 537.96 374.325 538.493 381.616 537.533C385.774 536.986 389.183 536.087 391.842 534.836C394.467 533.543 396.376 531.941 397.569 530.03C398.761 528.119 399.244 525.947 399.016 523.512C398.809 521.028 397.872 518.331 396.204 515.423L442.095 509.665C445.904 515.325 448.366 521.281 449.48 527.532C450.56 533.741 449.875 539.708 447.424 545.434C444.994 551.11 440.342 556.035 433.469 560.21C426.596 564.385 417.084 567.272 404.932 568.872C389.702 570.877 374.014 570.075 357.868 566.466C341.776 562.85 326.289 556.453 311.406 547.274C296.577 538.089 283.475 526.188 272.1 511.571C260.659 496.868 254.588 484.018 253.889 473.02C253.156 461.978 256.831 453.082 264.914 446.33C272.964 439.536 284.442 435.157 299.348 433.195C309.826 431.816 320.353 431.686 330.929 432.805C341.505 433.925 351.821 436.24 361.877 439.75C371.898 443.218 381.41 447.866 390.412 453.695C399.414 459.525 407.542 466.488 414.796 474.585Z" fill="url(#paint14_linear_0_1)"/>
        <path d="M527.247 552.769C513.745 554.547 500.532 553.94 487.606 550.95C474.647 547.916 462.625 542.911 451.539 535.935C440.42 528.915 430.913 520.332 423.018 510.186C415.122 500.041 410.762 490.804 409.938 482.476C409.08 474.105 411.802 467.159 418.104 461.638C424.372 456.073 434.256 452.402 447.758 450.624C461.26 448.847 474.491 449.475 487.45 452.508C500.375 455.498 512.397 460.504 523.516 467.523C534.602 474.5 544.093 483.061 551.988 493.207C559.883 503.353 564.26 512.611 565.118 520.982C565.942 529.309 563.22 536.256 556.952 541.82C550.651 547.342 540.749 550.992 527.247 552.769ZM507.097 526.416C510.877 525.919 513.359 524.478 514.541 522.095C515.723 519.712 515.615 516.551 514.216 512.611C512.818 508.672 510.111 504.123 506.097 498.964C502.049 493.763 497.83 489.413 493.441 485.915C489.018 482.373 484.643 479.774 480.316 478.116C475.99 476.458 471.936 475.878 468.155 476.376C464.159 476.902 461.515 478.364 460.225 480.761C458.935 483.158 458.99 486.327 460.388 490.266C461.753 494.162 464.459 498.711 468.507 503.913C472.522 509.072 476.741 513.422 481.163 516.963C485.586 520.504 490.015 523.096 494.45 524.74C498.885 526.384 503.1 526.943 507.097 526.416Z" fill="url(#paint15_linear_0_1)"/>
        <path d="M574.255 544.59L497.175 445.54L539.625 439.952L554.278 458.781L555.574 458.611C553.349 452.079 553.964 446.595 557.418 442.159C560.873 437.723 566.921 434.936 575.562 433.799C584.312 432.647 593.284 433.503 602.48 436.369C611.643 439.191 619.231 443.548 625.244 449.439L626.54 449.268C623.929 442.929 624.632 437.481 628.647 432.924C632.629 428.324 639.237 425.416 648.473 424.2C660.408 422.628 672.451 424.408 684.601 429.538C696.805 434.662 706.854 442.296 714.749 452.442L766.738 519.249L722.02 525.136L677.057 467.357C673.678 463.015 669.657 459.8 664.996 457.713C660.301 455.582 655.632 454.822 650.987 455.434C646.396 456.038 643.721 457.765 642.961 460.614C642.222 463.412 643.541 466.983 646.92 471.325L691.884 529.104L649.109 534.735L604.146 476.956C600.767 472.614 596.747 469.399 592.086 467.311C587.391 465.181 582.721 464.421 578.076 465.032C574.998 465.438 572.787 466.345 571.442 467.754C570.098 469.164 569.624 471.003 570.021 473.273C570.439 475.493 571.768 478.043 574.01 480.924L618.973 538.703L574.255 544.59Z" fill="url(#paint16_linear_0_1)"/>
        <path d="M815.604 514.806C802.318 516.555 789.296 516.042 776.538 513.267C763.8 510.441 751.879 505.565 740.772 498.638C729.687 491.662 719.995 482.842 711.698 472.181C703.736 461.949 699.37 452.666 698.6 444.331C697.829 435.996 700.514 429.079 706.653 423.578C712.793 418.078 722.289 414.482 735.143 412.789C744.54 411.552 753.95 411.593 763.372 412.912C772.793 414.231 781.927 416.749 790.774 420.466C799.587 424.14 807.894 428.923 815.695 434.816C823.496 440.708 830.457 447.588 836.58 455.455L843.003 463.71L731.855 478.343L716.6 458.739L786.594 449.524C784.332 446.694 781.473 444.321 778.018 442.406C774.584 440.441 770.913 439.053 767.006 438.24C763.119 437.377 759.313 437.191 755.586 437.682C751.967 438.158 749.131 439.219 747.077 440.864C744.989 442.466 743.864 444.462 743.7 446.853C743.591 449.238 744.602 451.877 746.736 454.771L763.196 475.923C765.671 479.104 768.717 481.831 772.331 484.104C775.946 486.377 779.871 488.017 784.108 489.023C788.344 490.029 792.677 490.241 797.106 489.658C800.184 489.253 802.725 488.539 804.728 487.517C806.785 486.488 808.23 485.207 809.062 483.676C809.862 482.102 809.974 480.333 809.399 478.371L850.229 472.995C854.178 480.059 855.507 486.472 854.216 492.234C852.891 497.954 848.995 502.78 842.529 506.712C836.083 510.594 827.108 513.292 815.604 514.806Z" fill="url(#paint17_linear_0_1)"/>
    </g>
    <g filter="url(#filter5_f_0_1)">
        <path d="M461.824 594.596L469.041 558.708L612.981 537.838L605.764 573.726L555.951 580.948L530.177 709.12L485.863 715.545L511.637 587.373L461.824 594.596Z" fill="url(#paint18_linear_0_1)"/>
        <path d="M550.503 706.172L575.246 583.128L618.589 576.843L613.886 600.235L615.18 600.047C619.183 591.067 624.041 584.219 629.752 579.502C635.518 574.778 641.716 571.935 648.346 570.973C650.287 570.692 652.169 570.575 653.991 570.622C655.878 570.607 657.658 570.738 659.329 571.014L651.742 608.745C649.682 608.317 647.072 608.151 643.913 608.247C640.754 608.342 638.015 608.557 635.697 608.894C631.33 609.527 627.196 611.085 623.294 613.569C619.457 615.992 616.187 619.111 613.484 622.924C610.791 626.685 608.972 630.915 608.027 635.615L595.14 699.7L550.503 706.172Z" fill="url(#paint19_linear_0_1)"/>
        <path d="M706.448 631.299L720.366 562.087L765.004 555.614L740.261 678.659L697.887 684.803L702.591 661.411L701.297 661.599C697.023 669.84 691.071 676.666 683.441 682.076C675.822 687.432 667.376 690.782 658.103 692.127C649.424 693.385 642.22 692.511 636.491 689.505C630.817 686.491 626.871 681.775 624.656 675.356C622.494 668.929 622.288 661.234 624.038 652.269L639.825 573.765L684.462 567.292L670.544 636.505C669.374 642.585 669.976 647.138 672.351 650.164C674.78 653.182 678.797 654.284 684.404 653.472C688.124 652.932 691.487 651.693 694.494 649.753C697.566 647.752 700.119 645.205 702.155 642.11C704.255 638.954 705.686 635.35 706.448 631.299Z" fill="url(#paint20_linear_0_1)"/>
        <path d="M787.872 673.933C774.61 675.856 763.686 675.003 755.099 671.374C746.577 667.685 740.679 661.488 737.405 652.786C734.195 644.023 733.921 633.019 736.585 619.774C739.141 607.064 743.962 595.581 751.049 585.324C758.136 575.068 766.928 566.612 777.426 559.957C787.923 553.302 799.587 549.045 812.418 547.184C821.798 545.824 829.999 546.035 837.02 547.817C844.042 549.598 849.695 552.849 853.98 557.568C858.275 562.233 861.095 568.254 862.438 575.629C863.781 583.004 863.47 591.578 861.505 601.351L859.443 611.605L748.496 627.691L753.393 603.339L823.261 593.208C823.915 589.691 823.622 586.727 822.38 584.314C821.202 581.841 819.282 580.072 816.617 579.006C814.017 577.879 810.858 577.586 807.138 578.125C803.526 578.649 800.055 579.904 796.724 581.89C793.405 583.823 790.56 586.258 788.19 589.194C785.874 592.122 784.302 595.383 783.475 598.977L778.191 625.252C777.397 629.204 777.523 632.608 778.572 635.463C779.62 638.318 781.53 640.4 784.303 641.709C787.075 643.018 790.672 643.352 795.092 642.711C798.165 642.265 801.054 641.432 803.76 640.21C806.52 638.98 808.977 637.431 811.132 635.563C813.298 633.642 815.043 631.471 816.367 629.049L857.123 623.14C854.003 631.888 849.195 639.792 842.699 646.852C836.213 653.858 828.308 659.723 818.985 664.445C809.726 669.105 799.355 672.268 787.872 673.933Z" fill="url(#paint21_linear_0_1)"/>
    </g>
    <g filter="url(#filter6_bf_0_1)">
        <rect x="30" y="99.5889" width="593.424" height="57.5243" transform="rotate(-8 30 99.5889)" fill="black" fill-opacity="0.01"/>
    </g>
    <g filter="url(#filter7_bf_0_1)">
        <rect x="109.438" y="414.529" width="593.424" height="57.5243" transform="rotate(-8 109.438 414.529)" fill="black" fill-opacity="0.01"/>
    </g>
    <g filter="url(#filter8_bf_0_1)">
        <rect x="231.389" y="431.839" width="593.424" height="57.5243" transform="rotate(-8 231.389 431.839)" fill="black" fill-opacity="0.01"/>
    </g>
    <g filter="url(#filter9_bf_0_1)">
        <rect x="400.51" y="694.726" width="593.424" height="57.5243" transform="rotate(-8 400.51 694.726)" fill="black" fill-opacity="0.01"/>
    </g>
    <g filter="url(#filter10_ii_0_1)">
        <path d="M98.3174 106.415L154.311 98.5457L206.018 186.995L207.96 186.722L233.284 87.4467L289.278 79.5773L312.568 245.292L268.55 251.479L255.085 155.675L253.791 155.857L230.176 255.551L203.635 259.281L153.364 169.31L152.07 169.492L165.625 265.944L121.607 272.13L98.3174 106.415Z" fill="url(#paint22_linear_0_1)"/>
        <path d="M335.262 244.083C327.333 245.197 320.138 244.888 313.678 243.156C307.265 241.362 301.957 238.037 297.754 233.182C293.551 228.327 290.87 221.772 289.71 213.519C288.755 206.722 289.099 200.76 290.744 195.633C292.382 190.452 295.061 186.032 298.782 182.374C302.504 178.715 307.002 175.69 312.277 173.299C317.606 170.899 323.446 169.006 329.797 167.618C336.68 166.101 342.172 164.669 346.273 163.322C350.421 161.914 353.34 160.376 355.031 158.708C356.715 156.987 357.39 154.939 357.056 152.565L357.011 152.242C356.556 149.005 354.966 146.698 352.242 145.321C349.518 143.943 346.214 143.527 342.33 144.073C338.069 144.672 334.722 146.105 332.29 148.372C329.905 150.578 328.711 153.633 328.71 157.539L287.605 163.316C287.083 155.688 288.506 148.392 291.873 141.428C295.286 134.402 300.85 128.394 308.565 123.404C316.273 118.36 326.303 114.97 338.656 113.234C347.557 111.983 355.688 111.913 363.051 113.024C370.405 114.081 376.826 116.121 382.312 119.146C387.79 122.117 392.173 125.901 395.459 130.5C398.793 135.038 400.865 140.192 401.676 145.964L413.639 231.088L371.887 236.955L369.43 219.478L368.459 219.614C366.63 224.602 364.136 228.776 360.978 232.135C357.873 235.487 354.146 238.128 349.797 240.06C345.501 241.984 340.657 243.325 335.262 244.083ZM345.87 213.877C349.268 213.4 352.352 212.251 355.122 210.432C357.946 208.605 360.116 206.237 361.632 203.328C363.149 200.42 363.642 197.077 363.111 193.301L361.656 182.944C360.537 183.596 359.334 184.233 358.046 184.854C356.812 185.468 355.466 186.069 354.009 186.659C352.605 187.242 351.09 187.812 349.464 188.371C347.891 188.922 346.233 189.457 344.491 189.977C341.114 191.002 338.407 192.29 336.37 193.841C334.379 195.331 332.969 197.042 332.141 198.974C331.358 200.844 331.119 202.858 331.422 205.016C331.907 208.469 333.492 210.941 336.178 212.434C338.863 213.927 342.094 214.408 345.87 213.877Z" fill="url(#paint23_linear_0_1)"/>
        <path d="M436.797 197.798L429.66 144.672L435.486 143.853L459.719 97.8704L509.886 90.8198L468.538 162.972L455.915 164.746L436.797 197.798ZM400.802 232.892L377.512 67.1768L422.178 60.8995L445.467 226.614L400.802 232.892ZM477.51 222.111L442.113 176.917L466.785 141.105L528.648 214.924L477.51 222.111Z" fill="url(#paint24_linear_0_1)"/>
        <path d="M559.561 212.89C546.291 214.755 534.498 213.827 524.184 210.106C513.916 206.323 505.521 200.021 499.001 191.201C492.527 182.319 488.349 171.189 486.469 157.811C484.665 144.973 485.677 133.389 489.506 123.059C493.336 112.729 499.595 104.231 508.285 97.5635C516.974 90.8964 527.738 86.6606 540.577 84.8563C549.963 83.5371 558.664 83.7996 566.679 85.6435C574.695 87.4875 581.79 90.8086 587.965 95.6067C594.133 100.351 599.227 106.456 603.246 113.922C607.266 121.389 609.97 130.058 611.357 139.93L612.813 150.287L501.797 165.889L498.34 141.291L568.251 131.465C567.696 127.913 566.34 124.913 564.18 122.466C562.068 119.957 559.422 118.156 556.242 117.063C553.11 115.908 549.682 115.592 545.96 116.115C542.346 116.623 539.138 117.871 536.337 119.86C533.529 121.795 531.397 124.24 529.942 127.195C528.541 130.143 528.04 133.431 528.44 137.06L532.17 163.601C532.731 167.592 534.068 171.035 536.18 173.929C538.292 176.823 541.037 178.94 544.416 180.28C547.795 181.621 551.696 181.98 556.12 181.358C559.194 180.926 561.939 180.1 564.353 178.881C566.821 177.654 568.858 176.102 570.465 174.226C572.064 172.296 573.132 170.111 573.669 167.67L614.45 161.939C614.261 170.767 611.997 178.731 607.659 185.832C603.314 192.879 597.072 198.762 588.934 203.481C580.842 208.139 571.051 211.275 559.561 212.89Z" fill="url(#paint25_linear_0_1)"/>
    </g>
    <g filter="url(#filter11_ii_0_1)">
        <path d="M302.235 246.893L344.644 408.774L299.683 415.293L257.274 253.412L302.235 246.893Z" fill="url(#paint26_linear_0_1)"/>
        <path d="M377.816 405.605C368.975 406.887 360.241 405.801 351.614 402.348C343.041 398.887 335.31 392.87 328.419 384.297C321.583 375.717 316.329 364.418 312.656 350.401C308.819 335.751 308.017 323.506 310.251 313.665C312.539 303.816 316.817 296.221 323.085 290.882C329.406 285.535 336.664 282.268 344.858 281.08C351.004 280.188 356.671 280.461 361.86 281.896C367.034 283.279 371.641 285.483 375.678 288.507C379.703 291.479 383.062 294.903 385.756 298.779L386.403 298.685L370.251 237.031L414.889 230.559L457.297 392.44L412.983 398.865L407.765 378.946L406.794 379.087C406.146 383.447 404.632 387.496 402.254 391.232C399.915 394.907 396.703 398.026 392.618 400.587C388.572 403.088 383.639 404.761 377.816 405.605ZM385.533 369.699C389.63 369.105 392.83 367.437 395.134 364.697C397.478 361.895 398.873 358.247 399.318 353.752C399.803 349.197 399.273 343.968 397.727 338.066C396.153 332.059 393.998 327.038 391.263 323.004C388.567 318.91 385.44 315.945 381.882 314.109C378.363 312.212 374.555 311.561 370.458 312.155C366.361 312.749 363.16 314.417 360.857 317.157C358.593 319.837 357.246 323.451 356.814 327.999C356.423 332.486 357.014 337.734 358.588 343.741C360.162 349.748 362.269 354.803 364.911 358.905C367.592 362.947 370.665 365.92 374.13 367.824C377.635 369.668 381.436 370.293 385.533 369.699Z" fill="url(#paint27_linear_0_1)"/>
        <path d="M505.15 387.799C491.888 389.722 479.811 388.902 468.917 385.34C458.064 381.717 448.827 375.618 441.209 367.041C433.63 358.404 428.129 347.551 424.705 334.483C421.42 321.941 421.136 310.605 423.854 300.475C426.572 290.345 431.965 281.987 440.033 275.402C448.1 268.818 458.549 264.595 471.38 262.735C480.76 261.375 489.624 261.566 497.971 263.31C506.317 265.053 513.897 268.248 520.71 272.894C527.509 277.487 533.372 283.42 538.299 290.691C543.225 297.962 546.952 306.42 549.478 316.063L552.129 326.181L441.182 342.267L434.887 318.238L504.754 308.108C503.789 304.638 502.072 301.714 499.603 299.337C497.173 296.9 494.283 295.159 490.932 294.113C487.62 293.007 484.104 292.724 480.385 293.263C476.773 293.787 473.657 295.031 471.039 296.997C468.406 298.911 466.519 301.317 465.376 304.218C464.287 307.111 464.151 310.33 464.968 313.876L471.76 339.803C472.782 343.702 474.529 347.059 477.001 349.873C479.472 352.687 482.5 354.737 486.082 356.022C489.664 357.308 493.666 357.63 498.086 356.989C501.159 356.544 503.852 355.716 506.165 354.505C508.532 353.287 510.425 351.754 511.843 349.908C513.248 348.008 514.085 345.863 514.354 343.472L555.11 337.563C555.917 346.197 554.521 354.003 550.921 360.979C547.306 367.903 541.635 373.702 533.907 378.378C526.219 382.994 516.633 386.134 505.15 387.799Z" fill="url(#paint28_linear_0_1)"/>
        <path d="M584.546 375.959C576.621 377.108 569.281 376.859 562.527 375.213C555.813 373.507 550.047 370.295 545.23 365.578C540.413 360.862 536.949 354.472 534.836 346.41C533.097 339.77 532.772 333.937 533.862 328.911C534.937 323.833 537.157 319.49 540.521 315.885C543.886 312.279 548.11 309.288 553.195 306.909C558.333 304.523 564.048 302.628 570.339 301.224C577.156 299.689 582.57 298.247 586.581 296.9C590.633 295.492 593.423 293.966 594.951 292.322C596.465 290.626 596.918 288.618 596.311 286.3L596.228 285.984C595.4 282.822 593.525 280.578 590.603 279.251C587.682 277.924 584.28 277.542 580.399 278.105C576.14 278.723 572.904 280.149 570.692 282.384C568.52 284.559 567.654 287.556 568.095 291.376L527.016 297.332C525.622 289.876 526.24 282.731 528.87 275.895C531.54 268.999 536.509 263.082 543.777 258.145C551.032 253.155 560.831 249.765 573.177 247.975C582.072 246.685 590.32 246.556 597.921 247.587C605.507 248.566 612.257 250.513 618.169 253.43C624.068 256.294 628.946 259.963 632.803 264.436C636.701 268.848 639.389 273.873 640.866 279.512L662.65 362.665L620.923 368.715L616.45 351.642L615.48 351.783C614.187 356.674 612.128 360.774 609.302 364.083C606.529 367.384 603.044 369.995 598.847 371.916C594.704 373.83 589.937 375.177 584.546 375.959ZM591.895 346.341C595.292 345.849 598.293 344.703 600.899 342.903C603.559 341.095 605.494 338.763 606.705 335.907C607.915 333.052 608.037 329.78 607.071 326.091L604.42 315.973C603.359 316.619 602.209 317.251 600.972 317.868C599.788 318.477 598.49 319.076 597.077 319.663C595.718 320.243 594.245 320.813 592.656 321.371C591.122 321.922 589.5 322.458 587.79 322.979C584.477 324.006 581.875 325.286 579.982 326.819C578.129 328.291 576.892 329.974 576.269 331.87C575.687 333.704 575.671 335.676 576.224 337.783C577.107 341.156 578.997 343.562 581.892 345.002C584.787 346.442 588.122 346.888 591.895 346.341Z" fill="url(#paint29_linear_0_1)"/>
    </g>
    <g filter="url(#filter12_ii_0_1)">
        <path d="M466.129 451.95L420.492 458.363C419.638 454.633 418.293 451.329 416.459 448.451C414.678 445.566 412.418 443.188 409.68 441.317C406.988 439.385 403.86 438.065 400.294 437.356C396.722 436.592 392.777 436.514 388.462 437.121C380.91 438.182 374.775 440.915 370.058 445.318C365.395 449.714 362.196 455.527 360.462 462.757C358.782 469.979 358.616 478.391 359.966 487.993C361.391 498.135 363.934 506.441 367.594 512.913C371.3 519.323 375.985 523.891 381.649 526.615C387.305 529.286 393.774 530.11 401.057 529.086C405.21 528.502 408.861 527.467 412.007 525.979C415.146 524.438 417.789 522.499 419.936 520.162C422.083 517.825 423.714 515.148 424.831 512.13C425.993 509.051 426.594 505.694 426.633 502.058L472.315 495.968C472.761 503.056 471.797 510.48 469.422 518.24C467.039 525.946 463.151 533.314 457.758 540.343C452.411 547.31 445.414 553.3 436.767 558.311C428.119 563.322 417.727 566.68 405.59 568.386C390.378 570.524 376.271 569.178 363.271 564.349C350.324 559.513 339.453 551.249 330.659 539.558C321.919 527.859 316.26 512.839 313.682 494.498C311.089 476.049 312.466 460.013 317.813 446.39C323.152 432.712 331.408 421.788 342.582 413.616C353.748 405.391 366.775 400.232 381.663 398.14C392.128 396.669 401.958 396.745 411.153 398.368C420.347 399.992 428.649 403.088 436.057 407.658C443.458 412.174 449.742 418.139 454.91 425.554C460.078 432.969 463.817 441.768 466.129 451.95Z" fill="url(#paint30_linear_0_1)"/>
        <path d="M527.76 551.216C514.274 553.111 502.355 552.063 492.002 548.072C481.642 544.027 473.225 537.564 466.751 528.682C460.269 519.747 456.134 508.913 454.345 496.183C452.556 483.452 453.549 471.926 457.324 461.603C461.091 451.227 467.401 442.694 476.252 436.004C485.096 429.261 496.261 424.941 509.747 423.046C523.233 421.15 535.156 422.225 545.516 426.27C555.868 430.261 564.286 436.724 570.767 445.66C577.241 454.542 581.373 465.348 583.162 478.079C584.951 490.809 583.962 502.363 580.195 512.739C576.419 523.061 570.11 531.594 561.266 538.338C552.415 545.028 541.246 549.32 527.76 551.216ZM523.444 518.157C527.22 517.626 530.305 515.9 532.7 512.978C535.095 510.056 536.718 506.142 537.569 501.237C538.42 496.331 538.39 490.642 537.48 484.169C536.563 477.642 535.023 472.165 532.861 467.738C530.691 463.257 528.052 459.942 524.945 457.793C521.837 455.645 518.395 454.836 514.619 455.366C510.627 455.927 507.38 457.676 504.878 460.614C502.375 463.551 500.698 467.472 499.847 472.377C498.989 477.229 499.018 482.918 499.936 489.445C500.845 495.919 502.385 501.396 504.555 505.876C506.725 510.357 509.418 513.664 512.633 515.798C515.849 517.932 519.452 518.718 523.444 518.157Z" fill="url(#paint31_linear_0_1)"/>
        <path d="M575.797 542.154L558.329 417.868L600.729 411.909L604.05 435.537L605.344 435.355C606.842 427.223 610.401 420.452 616.022 415.041C621.642 409.63 628.768 406.318 637.399 405.105C646.138 403.877 653.989 405.139 660.953 408.891C667.908 412.589 672.568 418.151 674.932 425.575L676.226 425.393C677.261 417.491 680.882 410.766 687.088 405.218C693.287 399.616 700.999 396.167 710.223 394.871C722.145 393.195 732.339 395.668 740.806 402.289C749.326 408.903 754.481 418.575 756.271 431.306L768.052 515.135L723.386 521.412L713.197 448.912C712.432 443.463 710.457 439.395 707.274 436.707C704.083 433.965 700.168 432.92 695.529 433.572C690.944 434.216 687.522 436.292 685.265 439.8C683.054 443.246 682.331 447.694 683.097 453.142L693.286 525.642L650.563 531.647L640.373 459.146C639.608 453.698 637.633 449.63 634.45 446.942C631.259 444.2 627.344 443.155 622.705 443.807C619.63 444.239 617.085 445.311 615.071 447.025C613.056 448.738 611.614 451.004 610.745 453.821C609.922 456.577 609.765 459.762 610.273 463.377L620.462 535.877L575.797 542.154Z" fill="url(#paint32_linear_0_1)"/>
        <path d="M815.775 510.738C802.504 512.603 790.712 511.675 780.397 507.954C770.129 504.171 761.735 497.869 755.214 489.049C748.74 480.167 744.563 469.038 742.683 455.659C740.879 442.821 741.891 431.237 745.72 420.907C749.549 410.577 755.809 402.079 764.498 395.412C773.188 388.744 783.952 384.509 796.79 382.704C806.177 381.385 814.877 381.648 822.893 383.492C830.908 385.336 838.004 388.657 844.179 393.455C850.347 398.199 855.44 404.304 859.46 411.77C863.48 419.237 866.184 427.906 867.571 437.778L869.027 448.135L758.011 463.737L754.553 439.139L824.464 429.313C823.91 425.761 822.553 422.761 820.394 420.314C818.281 417.805 815.635 416.004 812.456 414.911C809.323 413.756 805.896 413.44 802.174 413.963C798.56 414.471 795.352 415.719 792.551 417.708C789.742 419.643 787.611 422.088 786.156 425.043C784.754 427.991 784.254 431.279 784.654 434.908L788.384 461.449C788.945 465.44 790.282 468.883 792.394 471.777C794.505 474.671 797.251 476.788 800.63 478.128C804.009 479.469 807.91 479.828 812.333 479.206C815.408 478.774 818.152 477.948 820.567 476.729C823.035 475.502 825.072 473.95 826.678 472.074C828.278 470.144 829.346 467.959 829.883 465.518L870.664 459.787C870.475 468.615 868.211 476.579 863.873 483.68C859.527 490.727 853.286 496.61 845.147 501.329C837.056 505.987 827.265 509.123 815.775 510.738Z" fill="url(#paint33_linear_0_1)"/>
    </g>
    <g filter="url(#filter13_ii_0_1)">
        <path d="M478.537 594.04L468.964 558.708L612.903 537.838L622.477 573.17L572.664 580.393L606.853 706.58L562.539 713.005L528.35 586.818L478.537 594.04Z" fill="url(#paint34_linear_0_1)"/>
        <path d="M478.537 594.04L468.964 558.708L612.903 537.838L622.477 573.17L572.664 580.393L606.853 706.58L562.539 713.005L528.35 586.818L478.537 594.04Z" fill="url(#paint35_linear_0_1)" fill-opacity="0.2" style="mix-blend-mode:multiply"/>
        <path d="M627.179 703.633L594.357 582.493L637.7 576.209L643.94 599.238L645.234 599.05C645.19 590.204 647.087 583.454 650.925 578.799C654.816 574.137 660.077 571.325 666.708 570.363C668.649 570.082 670.605 569.962 672.578 570.004C674.59 569.986 676.556 570.11 678.478 570.378L688.542 607.525C686.133 607.109 683.261 606.952 679.926 607.053C676.592 607.154 673.766 607.372 671.448 607.708C667.081 608.341 663.409 609.885 660.432 612.338C657.495 614.731 655.499 617.807 654.444 621.567C653.375 625.273 653.468 629.44 654.722 634.067L671.816 697.161L627.179 703.633Z" fill="url(#paint36_linear_0_1)"/>
        <path d="M627.179 703.633L594.357 582.493L637.7 576.209L643.94 599.238L645.234 599.05C645.19 590.204 647.087 583.454 650.925 578.799C654.816 574.137 660.077 571.325 666.708 570.363C668.649 570.082 670.605 569.962 672.578 570.004C674.59 569.986 676.556 570.11 678.478 570.378L688.542 607.525C686.133 607.109 683.261 606.952 679.926 607.053C676.592 607.154 673.766 607.372 671.448 607.708C667.081 608.341 663.409 609.885 660.432 612.338C657.495 614.731 655.499 617.807 654.444 621.567C653.375 625.273 653.468 629.44 654.722 634.067L671.816 697.161L627.179 703.633Z" fill="url(#paint37_linear_0_1)" fill-opacity="0.2" style="mix-blend-mode:multiply"/>
        <path d="M757.94 629.593L739.477 561.452L784.115 554.98L816.937 676.119L774.564 682.263L768.324 659.234L767.03 659.422C766.429 667.541 763.35 674.272 757.794 679.613C752.223 684.901 744.801 688.218 735.529 689.562C726.849 690.821 718.721 689.978 711.144 687.033C703.62 684.08 697.127 679.448 691.663 673.136C686.253 666.817 682.324 659.245 679.877 650.419L658.936 573.13L703.573 566.658L722.036 634.799C723.714 640.785 726.552 645.264 730.551 648.236C734.604 651.2 739.433 652.276 745.04 651.463C748.76 650.923 751.761 649.696 754.043 647.78C756.365 645.804 757.869 643.291 758.556 640.241C759.282 637.13 759.076 633.581 757.94 629.593Z" fill="url(#paint38_linear_0_1)"/>
        <path d="M757.94 629.593L739.477 561.452L784.115 554.98L816.937 676.119L774.564 682.263L768.324 659.234L767.03 659.422C766.429 667.541 763.35 674.272 757.794 679.613C752.223 684.901 744.801 688.218 735.529 689.562C726.849 690.821 718.721 689.978 711.144 687.033C703.62 684.08 697.127 679.448 691.663 673.136C686.253 666.817 682.324 659.245 679.877 650.419L658.936 573.13L703.573 566.658L722.036 634.799C723.714 640.785 726.552 645.264 730.551 648.236C734.604 651.2 739.433 652.276 745.04 651.463C748.76 650.923 751.761 649.696 754.043 647.78C756.365 645.804 757.869 643.291 758.556 640.241C759.282 637.13 759.076 633.581 757.94 629.593Z" fill="url(#paint39_linear_0_1)" fill-opacity="0.2" style="mix-blend-mode:multiply"/>
        <path d="M865.597 671.359C852.336 673.282 840.237 672.468 829.302 668.917C818.407 665.305 809.11 659.222 801.414 650.666C793.756 642.05 788.161 631.222 784.628 618.182C781.238 605.669 780.862 594.357 783.502 584.248C786.142 574.139 791.473 565.798 799.497 559.224C807.521 552.651 817.949 548.435 830.779 546.574C840.16 545.214 849.035 545.403 857.406 547.14C865.776 548.877 873.391 552.062 880.249 556.696C887.093 561.277 893.011 567.195 898.002 574.45C902.993 581.704 906.792 590.142 909.399 599.764L912.134 609.859L801.187 625.945L794.691 601.97L864.558 591.839C863.564 588.377 861.821 585.46 859.33 583.089C856.878 580.658 853.971 578.921 850.607 577.879C847.282 576.776 843.76 576.495 840.041 577.034C836.429 577.558 833.32 578.801 830.714 580.763C828.094 582.673 826.223 585.075 825.103 587.97C824.036 590.857 823.926 594.07 824.773 597.608L831.782 623.476C832.836 627.367 834.612 630.716 837.109 633.523C839.606 636.331 842.654 638.375 846.251 639.657C849.847 640.938 853.856 641.259 858.277 640.618C861.35 640.172 864.039 639.345 866.345 638.137C868.705 636.92 870.587 635.39 871.993 633.547C873.384 631.652 874.205 629.511 874.455 627.125L915.211 621.216C916.088 629.831 914.753 637.62 911.205 644.583C907.642 651.493 902.011 657.282 894.312 661.95C886.652 666.558 877.08 669.694 865.597 671.359Z" fill="url(#paint40_linear_0_1)"/>
        <path d="M865.597 671.359C852.336 673.282 840.237 672.468 829.302 668.917C818.407 665.305 809.11 659.222 801.414 650.666C793.756 642.05 788.161 631.222 784.628 618.182C781.238 605.669 780.862 594.357 783.502 584.248C786.142 574.139 791.473 565.798 799.497 559.224C807.521 552.651 817.949 548.435 830.779 546.574C840.16 545.214 849.035 545.403 857.406 547.14C865.776 548.877 873.391 552.062 880.249 556.696C887.093 561.277 893.011 567.195 898.002 574.45C902.993 581.704 906.792 590.142 909.399 599.764L912.134 609.859L801.187 625.945L794.691 601.97L864.558 591.839C863.564 588.377 861.821 585.46 859.33 583.089C856.878 580.658 853.971 578.921 850.607 577.879C847.282 576.776 843.76 576.495 840.041 577.034C836.429 577.558 833.32 578.801 830.714 580.763C828.094 582.673 826.223 585.075 825.103 587.97C824.036 590.857 823.926 594.07 824.773 597.608L831.782 623.476C832.836 627.367 834.612 630.716 837.109 633.523C839.606 636.331 842.654 638.375 846.251 639.657C849.847 640.938 853.856 641.259 858.277 640.618C861.35 640.172 864.039 639.345 866.345 638.137C868.705 636.92 870.587 635.39 871.993 633.547C873.384 631.652 874.205 629.511 874.455 627.125L915.211 621.216C916.088 629.831 914.753 637.62 911.205 644.583C907.642 651.493 902.011 657.282 894.312 661.95C886.652 666.558 877.08 669.694 865.597 671.359Z" fill="url(#paint41_linear_0_1)" fill-opacity="0.2" style="mix-blend-mode:multiply"/>
    </g>
    <g filter="url(#filter14_b_0_1)">
        <ellipse cx="64.3944" cy="136.819" rx="64.8317" ry="36.7213" transform="rotate(10.3978 64.3944 136.819)" fill="url(#paint42_linear_0_1)"/>
        <path d="M127.178 148.34C125.441 157.804 117.051 165.324 104.47 169.688C91.9228 174.04 75.4181 175.16 57.9473 171.954C40.4766 168.748 25.4446 161.842 15.2597 153.318C5.04834 144.772 -0.125692 134.763 1.61093 125.299C3.34754 115.835 11.7382 108.314 24.3184 103.951C36.866 99.5984 53.3707 98.4787 70.8414 101.685C88.3122 104.89 103.344 111.797 113.529 120.32C123.74 128.866 128.914 138.876 127.178 148.34Z" stroke="url(#paint43_linear_0_1)" stroke-width="2"/>
    </g>
    <defs>
        <filter id="filter0_b_0_1" x="667.182" y="292.688" width="189.203" height="184.045" filterUnits="userSpaceOnUse" color-interpolation-filters="sRGB">
            <feFlood flood-opacity="0" result="BackgroundImageFix"/>
            <feGaussianBlur in="BackgroundImageFix" stdDeviation="15"/>
            <feComposite in2="SourceAlpha" operator="in" result="effect1_backgroundBlur_0_1"/>
            <feBlend mode="normal" in="SourceGraphic" in2="effect1_backgroundBlur_0_1" result="shape"/>
        </filter>
        <filter id="filter1_f_0_1" x="234.063" y="556.303" width="179.997" height="92.002" filterUnits="userSpaceOnUse" color-interpolation-filters="sRGB">
            <feFlood flood-opacity="0" result="BackgroundImageFix"/>
            <feBlend mode="normal" in="SourceGraphic" in2="BackgroundImageFix" result="shape"/>
            <feGaussianBlur stdDeviation="5" result="effect1_foregroundBlur_0_1"/>
        </filter>
        <filter id="filter2_f_0_1" x="27.4072" y="69.292" width="587.725" height="215.863" filterUnits="userSpaceOnUse" color-interpolation-filters="sRGB">
            <feFlood flood-opacity="0" result="BackgroundImageFix"/>
            <feBlend mode="normal" in="SourceGraphic" in2="BackgroundImageFix" result="shape"/>
            <feGaussianBlur stdDeviation="6.5" result="effect1_foregroundBlur_0_1"/>
        </filter>
        <filter id="filter3_f_0_1" x="231.789" y="217.56" width="395.456" height="215.733" filterUnits="userSpaceOnUse" color-interpolation-filters="sRGB">
            <feFlood flood-opacity="0" result="BackgroundImageFix"/>
            <feBlend mode="normal" in="SourceGraphic" in2="BackgroundImageFix" result="shape"/>
            <feGaussianBlur stdDeviation="6.5" result="effect1_foregroundBlur_0_1"/>
        </filter>
        <filter id="filter4_f_0_1" x="240.798" y="398.892" width="626.895" height="184.055" filterUnits="userSpaceOnUse" color-interpolation-filters="sRGB">
            <feFlood flood-opacity="0" result="BackgroundImageFix"/>
            <feBlend mode="normal" in="SourceGraphic" in2="BackgroundImageFix" result="shape"/>
            <feGaussianBlur stdDeviation="6.5" result="effect1_foregroundBlur_0_1"/>
        </filter>
        <filter id="filter5_f_0_1" x="448.824" y="524.838" width="427.432" height="203.707" filterUnits="userSpaceOnUse" color-interpolation-filters="sRGB">
            <feFlood flood-opacity="0" result="BackgroundImageFix"/>
            <feBlend mode="normal" in="SourceGraphic" in2="BackgroundImageFix" result="shape"/>
            <feGaussianBlur stdDeviation="6.5" result="effect1_foregroundBlur_0_1"/>
        </filter>
        <filter id="filter6_bf_0_1" x="0" y="-13" width="655.655" height="199.554" filterUnits="userSpaceOnUse" color-interpolation-filters="sRGB">
            <feFlood flood-opacity="0" result="BackgroundImageFix"/>
            <feGaussianBlur in="BackgroundImageFix" stdDeviation="15"/>
            <feComposite in2="SourceAlpha" operator="in" result="effect1_backgroundBlur_0_1"/>
            <feBlend mode="normal" in="SourceGraphic" in2="effect1_backgroundBlur_0_1" result="shape"/>
            <feGaussianBlur stdDeviation="15" result="effect2_foregroundBlur_0_1"/>
        </filter>
        <filter id="filter7_bf_0_1" x="79.4375" y="301.94" width="655.655" height="199.554" filterUnits="userSpaceOnUse" color-interpolation-filters="sRGB">
            <feFlood flood-opacity="0" result="BackgroundImageFix"/>
            <feGaussianBlur in="BackgroundImageFix" stdDeviation="15"/>
            <feComposite in2="SourceAlpha" operator="in" result="effect1_backgroundBlur_0_1"/>
            <feBlend mode="normal" in="SourceGraphic" in2="effect1_backgroundBlur_0_1" result="shape"/>
            <feGaussianBlur stdDeviation="15" result="effect2_foregroundBlur_0_1"/>
        </filter>
        <filter id="filter8_bf_0_1" x="201.389" y="319.25" width="655.655" height="199.554" filterUnits="userSpaceOnUse" color-interpolation-filters="sRGB">
            <feFlood flood-opacity="0" result="BackgroundImageFix"/>
            <feGaussianBlur in="BackgroundImageFix" stdDeviation="15"/>
            <feComposite in2="SourceAlpha" operator="in" result="effect1_backgroundBlur_0_1"/>
            <feBlend mode="normal" in="SourceGraphic" in2="effect1_backgroundBlur_0_1" result="shape"/>
            <feGaussianBlur stdDeviation="15" result="effect2_foregroundBlur_0_1"/>
        </filter>
        <filter id="filter9_bf_0_1" x="370.51" y="582.137" width="655.655" height="199.554" filterUnits="userSpaceOnUse" color-interpolation-filters="sRGB">
            <feFlood flood-opacity="0" result="BackgroundImageFix"/>
            <feGaussianBlur in="BackgroundImageFix" stdDeviation="15"/>
            <feComposite in2="SourceAlpha" operator="in" result="effect1_backgroundBlur_0_1"/>
            <feBlend mode="normal" in="SourceGraphic" in2="effect1_backgroundBlur_0_1" result="shape"/>
            <feGaussianBlur stdDeviation="15" result="effect2_foregroundBlur_0_1"/>
        </filter>
        <filter id="filter10_ii_0_1" x="96.3174" y="60.8994" width="520.133" height="213.23" filterUnits="userSpaceOnUse" color-interpolation-filters="sRGB">
            <feFlood flood-opacity="0" result="BackgroundImageFix"/>
            <feBlend mode="normal" in="SourceGraphic" in2="BackgroundImageFix" result="shape"/>
            <feColorMatrix in="SourceAlpha" type="matrix" values="0 0 0 0 0 0 0 0 0 0 0 0 0 0 0 0 0 0 127 0" result="hardAlpha"/>
            <feOffset dx="2"/>
            <feGaussianBlur stdDeviation="1"/>
            <feComposite in2="hardAlpha" operator="arithmetic" k2="-1" k3="1"/>
            <feColorMatrix type="matrix" values="0 0 0 0 0.396078 0 0 0 0 0.396078 0 0 0 0 0.396078 0 0 0 0.25 0"/>
            <feBlend mode="normal" in2="shape" result="effect1_innerShadow_0_1"/>
            <feColorMatrix in="SourceAlpha" type="matrix" values="0 0 0 0 0 0 0 0 0 0 0 0 0 0 0 0 0 0 127 0" result="hardAlpha"/>
            <feOffset dx="-3" dy="3"/>
            <feGaussianBlur stdDeviation="1"/>
            <feComposite in2="hardAlpha" operator="arithmetic" k2="-1" k3="1"/>
            <feColorMatrix type="matrix" values="0 0 0 0 0.972549 0 0 0 0 0.972549 0 0 0 0 0.972549 0 0 0 1 0"/>
            <feBlend mode="normal" in2="effect1_innerShadow_0_1" result="effect2_innerShadow_0_1"/>
        </filter>
        <filter id="filter11_ii_0_1" x="255.274" y="228.56" width="409.375" height="186.733" filterUnits="userSpaceOnUse" color-interpolation-filters="sRGB">
            <feFlood flood-opacity="0" result="BackgroundImageFix"/>
            <feBlend mode="normal" in="SourceGraphic" in2="BackgroundImageFix" result="shape"/>
            <feColorMatrix in="SourceAlpha" type="matrix" values="0 0 0 0 0 0 0 0 0 0 0 0 0 0 0 0 0 0 127 0" result="hardAlpha"/>
            <feOffset dx="-3"/>
            <feGaussianBlur stdDeviation="1"/>
            <feComposite in2="hardAlpha" operator="arithmetic" k2="-1" k3="1"/>
            <feColorMatrix type="matrix" values="0 0 0 0 0.972549 0 0 0 0 0.972549 0 0 0 0 0.972549 0 0 0 1 0"/>
            <feBlend mode="normal" in2="shape" result="effect1_innerShadow_0_1"/>
            <feColorMatrix in="SourceAlpha" type="matrix" values="0 0 0 0 0 0 0 0 0 0 0 0 0 0 0 0 0 0 127 0" result="hardAlpha"/>
            <feOffset dx="2" dy="-2"/>
            <feGaussianBlur stdDeviation="1"/>
            <feComposite in2="hardAlpha" operator="arithmetic" k2="-1" k3="1"/>
            <feColorMatrix type="matrix" values="0 0 0 0 0.396078 0 0 0 0 0.396078 0 0 0 0 0.396078 0 0 0 1 0"/>
            <feBlend mode="normal" in2="effect1_innerShadow_0_1" result="effect2_innerShadow_0_1"/>
        </filter>
        <filter id="filter12_ii_0_1" x="310.412" y="379.879" width="562.252" height="189.491" filterUnits="userSpaceOnUse" color-interpolation-filters="sRGB">
            <feFlood flood-opacity="0" result="BackgroundImageFix"/>
            <feBlend mode="normal" in="SourceGraphic" in2="BackgroundImageFix" result="shape"/>
            <feColorMatrix in="SourceAlpha" type="matrix" values="0 0 0 0 0 0 0 0 0 0 0 0 0 0 0 0 0 0 127 0" result="hardAlpha"/>
            <feOffset dx="-3"/>
            <feGaussianBlur stdDeviation="1"/>
            <feComposite in2="hardAlpha" operator="arithmetic" k2="-1" k3="1"/>
            <feColorMatrix type="matrix" values="0 0 0 0 0.972549 0 0 0 0 0.972549 0 0 0 0 0.972549 0 0 0 1 0"/>
            <feBlend mode="normal" in2="shape" result="effect1_innerShadow_0_1"/>
            <feColorMatrix in="SourceAlpha" type="matrix" values="0 0 0 0 0 0 0 0 0 0 0 0 0 0 0 0 0 0 127 0" result="hardAlpha"/>
            <feOffset dx="2" dy="-2"/>
            <feGaussianBlur stdDeviation="1"/>
            <feComposite in2="hardAlpha" operator="arithmetic" k2="-1" k3="1"/>
            <feColorMatrix type="matrix" values="0 0 0 0 0.396078 0 0 0 0 0.396078 0 0 0 0 0.396078 0 0 0 1 0"/>
            <feBlend mode="normal" in2="effect1_innerShadow_0_1" result="effect2_innerShadow_0_1"/>
        </filter>
        <filter id="filter13_ii_0_1" x="466.964" y="535.838" width="450.508" height="177.167" filterUnits="userSpaceOnUse" color-interpolation-filters="sRGB">
            <feFlood flood-opacity="0" result="BackgroundImageFix"/>
            <feBlend mode="normal" in="SourceGraphic" in2="BackgroundImageFix" result="shape"/>
            <feColorMatrix in="SourceAlpha" type="matrix" values="0 0 0 0 0 0 0 0 0 0 0 0 0 0 0 0 0 0 127 0" result="hardAlpha"/>
            <feOffset dx="-3"/>
            <feGaussianBlur stdDeviation="1"/>
            <feComposite in2="hardAlpha" operator="arithmetic" k2="-1" k3="1"/>
            <feColorMatrix type="matrix" values="0 0 0 0 0.972549 0 0 0 0 0.972549 0 0 0 0 0.972549 0 0 0 1 0"/>
            <feBlend mode="normal" in2="shape" result="effect1_innerShadow_0_1"/>
            <feColorMatrix in="SourceAlpha" type="matrix" values="0 0 0 0 0 0 0 0 0 0 0 0 0 0 0 0 0 0 127 0" result="hardAlpha"/>
            <feOffset dx="2" dy="-2"/>
            <feGaussianBlur stdDeviation="1"/>
            <feComposite in2="hardAlpha" operator="arithmetic" k2="-1" k3="1"/>
            <feColorMatrix type="matrix" values="0 0 0 0 0.396078 0 0 0 0 0.396078 0 0 0 0 0.396078 0 0 0 1 0"/>
            <feBlend mode="normal" in2="effect1_innerShadow_0_1" result="effect2_innerShadow_0_1"/>
        </filter>
        <filter id="filter14_b_0_1" x="-29.7212" y="68.8428" width="188.231" height="135.953" filterUnits="userSpaceOnUse" color-interpolation-filters="sRGB">
            <feFlood flood-opacity="0" result="BackgroundImageFix"/>
            <feGaussianBlur in="BackgroundImageFix" stdDeviation="15"/>
            <feComposite in2="SourceAlpha" operator="in" result="effect1_backgroundBlur_0_1"/>
            <feBlend mode="normal" in="SourceGraphic" in2="effect1_backgroundBlur_0_1" result="shape"/>
        </filter>
        <linearGradient id="paint0_linear_0_1" x1="696.952" y1="384.71" x2="826.615" y2="384.71" gradientUnits="userSpaceOnUse">
            <stop stop-color="#F2E3FF" stop-opacity="0.25"/>
            <stop offset="0.5" stop-color="#FDFAFF" stop-opacity="0.25"/>
            <stop offset="1" stop-color="#F2E3FF" stop-opacity="0.25"/>
        </linearGradient>
        <linearGradient id="paint1_linear_0_1" x1="744.124" y1="325.541" x2="779.443" y2="443.879" gradientUnits="userSpaceOnUse">
            <stop stop-color="white"/>
            <stop offset="0.479167" stop-color="#DEB7FF"/>
            <stop offset="1" stop-color="white"/>
        </linearGradient>
        <linearGradient id="paint2_linear_0_1" x1="405.253" y1="609.585" x2="243.429" y2="617.908" gradientUnits="userSpaceOnUse">
            <stop/>
            <stop offset="1" stop-opacity="0.3"/>
        </linearGradient>
        <linearGradient id="paint3_linear_0_1" x1="332.831" y1="548.037" x2="333.015" y2="628.846" gradientUnits="userSpaceOnUse">
            <stop offset="0.770833" stop-color="#7D5C7C"/>
            <stop offset="1" stop-color="#BC9BBB"/>
        </linearGradient>
        <linearGradient id="paint4_linear_0_1" x1="256.233" y1="581.678" x2="416.286" y2="581.678" gradientUnits="userSpaceOnUse">
            <stop stop-color="#8B758A"/>
            <stop offset="0.489583" stop-color="#975294"/>
            <stop offset="1" stop-color="#997797"/>
        </linearGradient>
        <linearGradient id="paint5_linear_0_1" x1="336.26" y1="541.967" x2="333.164" y2="630.384" gradientUnits="userSpaceOnUse">
            <stop stop-color="#8B758A"/>
            <stop offset="1" stop-color="white"/>
        </linearGradient>
        <linearGradient id="paint6_linear_0_1" x1="289.945" y1="92.1272" x2="310.627" y2="249.221" gradientUnits="userSpaceOnUse">
            <stop stop-opacity="0"/>
            <stop offset="1"/>
        </linearGradient>
        <linearGradient id="paint7_linear_0_1" x1="289.945" y1="92.1272" x2="310.627" y2="249.221" gradientUnits="userSpaceOnUse">
            <stop stop-opacity="0"/>
            <stop offset="1"/>
        </linearGradient>
        <linearGradient id="paint8_linear_0_1" x1="289.945" y1="92.1272" x2="310.627" y2="249.221" gradientUnits="userSpaceOnUse">
            <stop stop-opacity="0"/>
            <stop offset="1"/>
        </linearGradient>
        <linearGradient id="paint9_linear_0_1" x1="289.945" y1="92.1272" x2="310.627" y2="249.221" gradientUnits="userSpaceOnUse">
            <stop stop-opacity="0"/>
            <stop offset="1"/>
        </linearGradient>
        <linearGradient id="paint10_linear_0_1" x1="438.703" y1="227.098" x2="462.466" y2="390.989" gradientUnits="userSpaceOnUse">
            <stop/>
            <stop offset="1" stop-opacity="0"/>
        </linearGradient>
        <linearGradient id="paint11_linear_0_1" x1="438.703" y1="227.098" x2="462.466" y2="390.989" gradientUnits="userSpaceOnUse">
            <stop/>
            <stop offset="1" stop-opacity="0"/>
        </linearGradient>
        <linearGradient id="paint12_linear_0_1" x1="438.703" y1="227.098" x2="462.466" y2="390.989" gradientUnits="userSpaceOnUse">
            <stop/>
            <stop offset="1" stop-opacity="0"/>
        </linearGradient>
        <linearGradient id="paint13_linear_0_1" x1="438.703" y1="227.098" x2="462.466" y2="390.989" gradientUnits="userSpaceOnUse">
            <stop/>
            <stop offset="1" stop-opacity="0"/>
        </linearGradient>
        <linearGradient id="paint14_linear_0_1" x1="495.125" y1="407.421" x2="514.482" y2="554.45" gradientUnits="userSpaceOnUse">
            <stop stop-opacity="0"/>
            <stop offset="1"/>
        </linearGradient>
        <linearGradient id="paint15_linear_0_1" x1="495.125" y1="407.421" x2="514.482" y2="554.45" gradientUnits="userSpaceOnUse">
            <stop stop-opacity="0"/>
            <stop offset="1"/>
        </linearGradient>
        <linearGradient id="paint16_linear_0_1" x1="495.125" y1="407.421" x2="514.482" y2="554.45" gradientUnits="userSpaceOnUse">
            <stop stop-opacity="0"/>
            <stop offset="1"/>
        </linearGradient>
        <linearGradient id="paint17_linear_0_1" x1="495.125" y1="407.421" x2="514.482" y2="554.45" gradientUnits="userSpaceOnUse">
            <stop stop-opacity="0"/>
            <stop offset="1"/>
        </linearGradient>
        <linearGradient id="paint18_linear_0_1" x1="675.583" y1="528.761" x2="698.51" y2="686.89" gradientUnits="userSpaceOnUse">
            <stop/>
            <stop offset="1" stop-opacity="0"/>
        </linearGradient>
        <linearGradient id="paint19_linear_0_1" x1="675.583" y1="528.761" x2="698.51" y2="686.89" gradientUnits="userSpaceOnUse">
            <stop/>
            <stop offset="1" stop-opacity="0"/>
        </linearGradient>
        <linearGradient id="paint20_linear_0_1" x1="675.583" y1="528.761" x2="698.51" y2="686.89" gradientUnits="userSpaceOnUse">
            <stop/>
            <stop offset="1" stop-opacity="0"/>
        </linearGradient>
        <linearGradient id="paint21_linear_0_1" x1="675.583" y1="528.761" x2="698.51" y2="686.89" gradientUnits="userSpaceOnUse">
            <stop/>
            <stop offset="1" stop-opacity="0"/>
        </linearGradient>
        <linearGradient id="paint22_linear_0_1" x1="347.559" y1="71.3864" x2="371.167" y2="239.367" gradientUnits="userSpaceOnUse">
            <stop stop-color="#B8BECE"/>
            <stop offset="1" stop-color="#D0D6E8"/>
        </linearGradient>
        <linearGradient id="paint23_linear_0_1" x1="347.559" y1="71.3864" x2="371.167" y2="239.367" gradientUnits="userSpaceOnUse">
            <stop stop-color="#B8BECE"/>
            <stop offset="1" stop-color="#D0D6E8"/>
        </linearGradient>
        <linearGradient id="paint24_linear_0_1" x1="347.559" y1="71.3864" x2="371.167" y2="239.367" gradientUnits="userSpaceOnUse">
            <stop stop-color="#B8BECE"/>
            <stop offset="1" stop-color="#D0D6E8"/>
        </linearGradient>
        <linearGradient id="paint25_linear_0_1" x1="347.559" y1="71.3864" x2="371.167" y2="239.367" gradientUnits="userSpaceOnUse">
            <stop stop-color="#B8BECE"/>
            <stop offset="1" stop-color="#D0D6E8"/>
        </linearGradient>
        <linearGradient id="paint26_linear_0_1" x1="438.758" y1="227.098" x2="462.946" y2="393.918" gradientUnits="userSpaceOnUse">
            <stop stop-color="#D1D9E7"/>
            <stop offset="1" stop-color="#CAD2E1"/>
        </linearGradient>
        <linearGradient id="paint27_linear_0_1" x1="438.758" y1="227.098" x2="462.946" y2="393.918" gradientUnits="userSpaceOnUse">
            <stop stop-color="#D1D9E7"/>
            <stop offset="1" stop-color="#CAD2E1"/>
        </linearGradient>
        <linearGradient id="paint28_linear_0_1" x1="438.758" y1="227.098" x2="462.946" y2="393.918" gradientUnits="userSpaceOnUse">
            <stop stop-color="#D1D9E7"/>
            <stop offset="1" stop-color="#CAD2E1"/>
        </linearGradient>
        <linearGradient id="paint29_linear_0_1" x1="438.758" y1="227.098" x2="462.946" y2="393.918" gradientUnits="userSpaceOnUse">
            <stop stop-color="#D1D9E7"/>
            <stop offset="1" stop-color="#CAD2E1"/>
        </linearGradient>
        <linearGradient id="paint30_linear_0_1" x1="577.208" y1="370.658" x2="601.134" y2="540.904" gradientUnits="userSpaceOnUse">
            <stop stop-color="#C8D2E1"/>
            <stop offset="0.119792" stop-color="#ADB8C9"/>
            <stop offset="1" stop-color="#B5C0D1"/>
        </linearGradient>
        <linearGradient id="paint31_linear_0_1" x1="577.208" y1="370.658" x2="601.134" y2="540.904" gradientUnits="userSpaceOnUse">
            <stop stop-color="#C8D2E1"/>
            <stop offset="0.119792" stop-color="#ADB8C9"/>
            <stop offset="1" stop-color="#B5C0D1"/>
        </linearGradient>
        <linearGradient id="paint32_linear_0_1" x1="577.208" y1="370.658" x2="601.134" y2="540.904" gradientUnits="userSpaceOnUse">
            <stop stop-color="#C8D2E1"/>
            <stop offset="0.119792" stop-color="#ADB8C9"/>
            <stop offset="1" stop-color="#B5C0D1"/>
        </linearGradient>
        <linearGradient id="paint33_linear_0_1" x1="577.208" y1="370.658" x2="601.134" y2="540.904" gradientUnits="userSpaceOnUse">
            <stop stop-color="#C8D2E1"/>
            <stop offset="0.119792" stop-color="#ADB8C9"/>
            <stop offset="1" stop-color="#B5C0D1"/>
        </linearGradient>
        <linearGradient id="paint34_linear_0_1" x1="675.505" y1="528.761" x2="699.669" y2="695.417" gradientUnits="userSpaceOnUse">
            <stop stop-color="#C2C9DC"/>
            <stop offset="0.390625" stop-color="#CFD7EC"/>
            <stop offset="1" stop-color="#CBD3E9"/>
        </linearGradient>
        <linearGradient id="paint35_linear_0_1" x1="675.505" y1="528.761" x2="699.669" y2="695.417" gradientUnits="userSpaceOnUse">
            <stop/>
            <stop offset="0.265625" stop-opacity="0"/>
        </linearGradient>
        <linearGradient id="paint36_linear_0_1" x1="675.505" y1="528.761" x2="699.669" y2="695.417" gradientUnits="userSpaceOnUse">
            <stop stop-color="#C2C9DC"/>
            <stop offset="0.390625" stop-color="#CFD7EC"/>
            <stop offset="1" stop-color="#CBD3E9"/>
        </linearGradient>
        <linearGradient id="paint37_linear_0_1" x1="675.505" y1="528.761" x2="699.669" y2="695.417" gradientUnits="userSpaceOnUse">
            <stop/>
            <stop offset="0.265625" stop-opacity="0"/>
        </linearGradient>
        <linearGradient id="paint38_linear_0_1" x1="675.505" y1="528.761" x2="699.669" y2="695.417" gradientUnits="userSpaceOnUse">
            <stop stop-color="#C2C9DC"/>
            <stop offset="0.390625" stop-color="#CFD7EC"/>
            <stop offset="1" stop-color="#CBD3E9"/>
        </linearGradient>
        <linearGradient id="paint39_linear_0_1" x1="675.505" y1="528.761" x2="699.669" y2="695.417" gradientUnits="userSpaceOnUse">
            <stop/>
            <stop offset="0.265625" stop-opacity="0"/>
        </linearGradient>
        <linearGradient id="paint40_linear_0_1" x1="675.505" y1="528.761" x2="699.669" y2="695.417" gradientUnits="userSpaceOnUse">
            <stop stop-color="#C2C9DC"/>
            <stop offset="0.390625" stop-color="#CFD7EC"/>
            <stop offset="1" stop-color="#CBD3E9"/>
        </linearGradient>
        <linearGradient id="paint41_linear_0_1" x1="675.505" y1="528.761" x2="699.669" y2="695.417" gradientUnits="userSpaceOnUse">
            <stop/>
            <stop offset="0.265625" stop-opacity="0"/>
        </linearGradient>
        <linearGradient id="paint42_linear_0_1" x1="-0.437294" y1="136.819" x2="129.226" y2="136.819" gradientUnits="userSpaceOnUse">
            <stop stop-color="#F2E3FF" stop-opacity="0.25"/>
            <stop offset="0.5" stop-color="#FDFAFF" stop-opacity="0.25"/>
            <stop offset="1" stop-color="#F2E3FF" stop-opacity="0.25"/>
        </linearGradient>
        <linearGradient id="paint43_linear_0_1" x1="71.0219" y1="100.701" x2="57.7669" y2="172.938" gradientUnits="userSpaceOnUse">
            <stop stop-color="white"/>
            <stop offset="0.479167" stop-color="#DEB7FF"/>
            <stop offset="1" stop-color="white"/>
        </linearGradient>
    </defs>
</svg>
