<svg width="268" height="121" viewBox="0 0 268 121" fill="none" xmlns="http://www.w3.org/2000/svg">
<path opacity="0.3" d="M23.424 96L1.632 28.224H16.608L32.544 80.352H26.688L42.24 28.224H54.048L69.6 80.352H63.84L79.68 28.224H94.56L72.768 96H60.96L45.312 43.872H50.88L35.232 96H23.424ZM132.188 96V69.408C132.188 66.976 131.42 65.024 129.884 63.552C128.412 62.016 126.524 61.248 124.22 61.248C122.62 61.248 121.212 61.6 119.996 62.304C118.78 62.944 117.82 63.904 117.116 65.184C116.412 66.4 116.06 67.808 116.06 69.408L110.396 66.624C110.396 62.976 111.164 59.776 112.7 57.024C114.236 54.272 116.38 52.16 119.132 50.688C121.884 49.152 125.052 48.384 128.636 48.384C132.284 48.384 135.484 49.152 138.236 50.688C140.988 52.16 143.1 54.24 144.572 56.928C146.108 59.552 146.875 62.624 146.875 66.144V96H132.188ZM101.372 96V26.304H116.06V96H101.372ZM178.773 97.056C173.973 97.056 169.621 96 165.717 93.888C161.877 91.712 158.837 88.768 156.597 85.056C154.357 81.344 153.237 77.184 153.237 72.576C153.237 67.968 154.357 63.84 156.597 60.192C158.837 56.544 161.877 53.664 165.717 51.552C169.557 49.376 173.909 48.288 178.773 48.288C183.637 48.288 187.989 49.344 191.829 51.456C195.669 53.568 198.709 56.48 200.949 60.192C203.189 63.84 204.309 67.968 204.309 72.576C204.309 77.184 203.189 81.344 200.949 85.056C198.709 88.768 195.669 91.712 191.829 93.888C187.989 96 183.637 97.056 178.773 97.056ZM178.773 83.712C180.885 83.712 182.741 83.264 184.341 82.368C185.941 81.408 187.157 80.096 187.989 78.432C188.885 76.704 189.333 74.752 189.333 72.576C189.333 70.4 188.885 68.512 187.989 66.912C187.093 65.248 185.845 63.968 184.245 63.072C182.709 62.112 180.885 61.632 178.773 61.632C176.725 61.632 174.901 62.112 173.301 63.072C171.701 63.968 170.453 65.248 169.557 66.912C168.661 68.576 168.213 70.496 168.213 72.672C168.213 74.784 168.661 76.704 169.557 78.432C170.453 80.096 171.701 81.408 173.301 82.368C174.901 83.264 176.725 83.712 178.773 83.712Z" fill="#F2E3FF"/>
<path d="M109.304 96L101.24 72.672H108.44L113.432 89.616L111.32 89.664L116.84 72.672H122.792L128.36 89.664L126.2 89.616L131.24 72.672H138.44L130.376 96H124.376L118.952 79.872H120.776L115.256 96H109.304ZM156.171 96.528C153.643 96.528 151.387 96.016 149.403 94.992C147.451 93.936 145.915 92.48 144.795 90.624C143.675 88.768 143.115 86.672 143.115 84.336C143.115 82 143.659 79.92 144.747 78.096C145.867 76.24 147.371 74.784 149.259 73.728C151.147 72.672 153.275 72.144 155.643 72.144C157.947 72.144 159.979 72.64 161.739 73.632C163.499 74.624 164.875 76 165.867 77.76C166.891 79.52 167.403 81.536 167.403 83.808C167.403 84.224 167.371 84.672 167.307 85.152C167.275 85.6 167.195 86.128 167.067 86.736L146.955 86.784V81.744L163.947 81.696L160.779 83.808C160.747 82.464 160.539 81.36 160.155 80.496C159.771 79.6 159.195 78.928 158.427 78.48C157.691 78 156.779 77.76 155.691 77.76C154.539 77.76 153.531 78.032 152.667 78.576C151.835 79.088 151.179 79.824 150.699 80.784C150.251 81.744 150.027 82.912 150.027 84.288C150.027 85.664 150.267 86.848 150.747 87.84C151.259 88.8 151.963 89.552 152.859 90.096C153.787 90.608 154.875 90.864 156.123 90.864C157.275 90.864 158.315 90.672 159.243 90.288C160.171 89.872 160.987 89.264 161.691 88.464L165.723 92.496C164.571 93.84 163.179 94.848 161.547 95.52C159.915 96.192 158.123 96.528 156.171 96.528ZM197.512 96.48C195.368 96.48 193.448 95.952 191.752 94.896C190.088 93.84 188.76 92.4 187.768 90.576C186.808 88.752 186.328 86.672 186.328 84.336C186.328 82 186.808 79.92 187.768 78.096C188.76 76.272 190.088 74.832 191.752 73.776C193.448 72.72 195.368 72.192 197.512 72.192C199.08 72.192 200.488 72.496 201.736 73.104C203.016 73.712 204.056 74.56 204.856 75.648C205.656 76.704 206.104 77.92 206.2 79.296V89.376C206.104 90.752 205.656 91.984 204.856 93.072C204.088 94.128 203.064 94.96 201.784 95.568C200.504 96.176 199.08 96.48 197.512 96.48ZM199 89.856C200.568 89.856 201.832 89.344 202.792 88.32C203.752 87.264 204.232 85.936 204.232 84.336C204.232 83.248 204.008 82.288 203.56 81.456C203.144 80.624 202.536 79.984 201.736 79.536C200.968 79.056 200.072 78.816 199.048 78.816C198.024 78.816 197.112 79.056 196.312 79.536C195.544 79.984 194.92 80.624 194.44 81.456C193.992 82.288 193.768 83.248 193.768 84.336C193.768 85.392 193.992 86.336 194.44 87.168C194.888 88 195.512 88.656 196.312 89.136C197.112 89.616 198.008 89.856 199 89.856ZM203.944 96V89.712L205.048 84.048L203.944 78.384V72.672H211.144V96H203.944ZM220.155 96V72.672H227.499V96H220.155ZM227.499 83.184L224.427 80.784C225.035 78.064 226.059 75.952 227.499 74.448C228.939 72.944 230.939 72.192 233.499 72.192C234.619 72.192 235.595 72.368 236.427 72.72C237.291 73.04 238.043 73.552 238.683 74.256L234.315 79.776C233.995 79.424 233.595 79.152 233.115 78.96C232.635 78.768 232.091 78.672 231.483 78.672C230.267 78.672 229.291 79.056 228.555 79.824C227.851 80.56 227.499 81.68 227.499 83.184ZM255.343 96.528C252.815 96.528 250.559 96.016 248.575 94.992C246.623 93.936 245.087 92.48 243.967 90.624C242.847 88.768 242.287 86.672 242.287 84.336C242.287 82 242.831 79.92 243.919 78.096C245.039 76.24 246.543 74.784 248.431 73.728C250.319 72.672 252.447 72.144 254.815 72.144C257.119 72.144 259.151 72.64 260.911 73.632C262.671 74.624 264.047 76 265.039 77.76C266.063 79.52 266.575 81.536 266.575 83.808C266.575 84.224 266.543 84.672 266.479 85.152C266.447 85.6 266.367 86.128 266.239 86.736L246.127 86.784V81.744L263.119 81.696L259.951 83.808C259.919 82.464 259.711 81.36 259.327 80.496C258.943 79.6 258.367 78.928 257.599 78.48C256.863 78 255.951 77.76 254.863 77.76C253.711 77.76 252.703 78.032 251.839 78.576C251.007 79.088 250.351 79.824 249.871 80.784C249.423 81.744 249.199 82.912 249.199 84.288C249.199 85.664 249.439 86.848 249.919 87.84C250.431 88.8 251.135 89.552 252.031 90.096C252.959 90.608 254.047 90.864 255.295 90.864C256.447 90.864 257.487 90.672 258.415 90.288C259.343 89.872 260.159 89.264 260.863 88.464L264.895 92.496C263.743 93.84 262.351 94.848 260.719 95.52C259.087 96.192 257.295 96.528 255.343 96.528Z" fill="#262439"/>
</svg>
