<svg width="342" height="269" viewBox="0 0 342 269" fill="none" xmlns="http://www.w3.org/2000/svg">
<path d="M260.154 51.1143H211.084C210.769 51.1143 210.468 51.2388 210.246 51.4604C210.023 51.682 209.898 51.9826 209.898 52.296V64.6531C209.898 64.9665 210.023 65.2671 210.246 65.4887C210.468 65.7103 210.769 65.8348 211.084 65.8348H215.5V69.9079L220.635 65.8348H260.138C260.453 65.8348 260.754 65.7103 260.976 65.4887C261.198 65.2671 261.323 64.9665 261.323 64.6531V52.2999C261.324 51.9886 261.202 51.6893 260.983 51.4673C260.764 51.2453 260.466 51.1184 260.154 51.1143Z" fill="#262439"/>
<path d="M99.5121 171.325C99.5121 171.325 99.4489 176.281 100.962 177.506C102.228 176.399 103.209 175.004 103.822 173.441C102.337 172.837 100.897 172.13 99.5121 171.325Z" fill="#8B758A"/>
<path d="M204.783 230.413L210.053 177.144C210.053 177.144 233.68 181.343 243.701 177.144L241.667 230.413H228.327L226.877 194.665L220.031 230.413H204.783Z" fill="#3F3D56"/>
<path d="M204.783 230.413L210.053 177.144C210.053 177.144 233.68 181.343 243.701 177.144L241.667 230.413H228.327L226.877 194.665L220.031 230.413H204.783Z" fill="#262439"/>
<path d="M107.053 195.208C107.053 195.208 105.745 179.787 114.558 168.276C114.558 168.276 117.608 173.815 130.786 172.511C130.786 172.511 137.288 171.361 140.298 169.655C140.298 169.655 145.489 180.984 145.161 193.144C145.161 193.144 143.186 227.714 142.546 230.412H130.146C130.146 230.412 125.9 199.986 125.572 196.169C125.572 196.169 125.572 221.62 126.662 230.397H113.594C113.594 230.397 106.361 205.891 107.053 195.208Z" fill="#262439"/>
<path d="M105.868 164.908L106.413 146.449C106.958 135.589 122.503 133.805 122.503 133.805C122.503 133.805 137.672 132.111 142.254 134.829L160.659 149.096L159.351 171.861L152.161 178.703C152.161 178.703 146.062 168.067 146.39 165.995L154.014 159.693C154.014 159.693 143.886 152.961 142.906 151.113C142.906 151.113 136.19 164.038 142.689 175.221C142.689 175.221 136.589 180.22 129.183 180.98C129.183 180.98 127.042 149.593 131.762 135.802C131.762 135.802 126.378 139.347 121.815 135.802C121.815 135.802 117.64 144.165 118.402 157.302C118.402 157.302 120.255 175.981 118.402 180.326C118.402 180.326 111.154 178.778 109.846 176.934C109.846 176.934 110.861 174.992 112.086 170.336C112.086 170.336 110.111 177.502 100.978 177.502C100.962 177.505 105.611 173.381 105.868 164.908Z" fill="#8B758A"/>
<path d="M159.888 175.575L151.493 230.412H164.999L173.315 194.495C173.385 194.174 173.564 193.887 173.82 193.681C174.076 193.475 174.395 193.362 174.725 193.36C175.055 193.36 175.374 193.473 175.631 193.679C175.888 193.886 176.065 194.174 176.135 194.495L184.454 230.412H198.541L190.526 175.575H159.888Z" fill="#262439"/>
<path d="M156.759 171.683V174.342C156.758 174.934 156.975 175.505 157.368 175.947C157.761 176.39 158.303 176.674 158.892 176.745C164.616 177.435 180.828 179.503 190.494 176.883C191.095 176.717 191.618 176.347 191.973 175.837C192.329 175.327 192.495 174.709 192.442 174.09L192.264 172.042L173.022 167.256L156.759 171.683Z" fill="#3F3D56"/>
<path d="M156.759 171.683V174.342C156.758 174.934 156.975 175.505 157.368 175.947C157.761 176.39 158.303 176.674 158.892 176.745C164.616 177.435 180.828 179.503 190.494 176.883C191.095 176.717 191.618 176.347 191.973 175.837C192.329 175.327 192.495 174.709 192.442 174.09L192.264 172.042L173.022 167.256L156.759 171.683Z" fill="#8B758A"/>
<path opacity="0.2" d="M156.759 171.683V174.342C156.758 174.934 156.975 175.505 157.368 175.947C157.761 176.39 158.303 176.674 158.892 176.745C164.616 177.435 180.828 179.503 190.494 176.883C191.095 176.717 191.618 176.347 191.973 175.837C192.329 175.327 192.495 174.709 192.442 174.09L192.264 172.042L173.022 167.256L156.759 171.683Z" fill="white"/>
<path d="M193.169 160.875L168.484 156.542L165.774 162.238L164.727 164.778L173.343 168.276C173.343 168.276 197.637 177.667 201.026 169.56C201.026 169.56 203.076 166.122 201.141 158.61C201.07 158.337 201.013 158.061 200.971 157.782C200.576 155.309 198.182 141.715 190.183 138.382C190.183 138.382 184.474 136.066 182.827 135.778H166.358C166.358 135.778 154.263 137.48 151.26 146.587C151.26 146.587 146.915 157.191 147.002 164.778C147.002 164.778 146.323 172.361 153.196 172.657C153.196 172.657 167.133 172.597 173.343 168.284L164.727 164.778L165.79 162.226C163.833 162.003 161.857 162.003 159.9 162.226C159.9 162.226 161.243 158.74 161.338 155.36" fill="#8B758A"/>
<path opacity="0.2" d="M193.169 160.875L168.484 156.542L165.774 162.238L164.727 164.778L173.343 168.276C173.343 168.276 197.637 177.667 201.026 169.56C201.026 169.56 203.076 166.122 201.141 158.61C201.07 158.337 201.013 158.061 200.971 157.782C200.576 155.309 198.182 141.715 190.183 138.382C190.183 138.382 184.474 136.066 182.827 135.778H166.358C166.358 135.778 154.263 137.48 151.26 146.587C151.26 146.587 146.915 157.191 147.002 164.778C147.002 164.778 146.323 172.361 153.196 172.657C153.196 172.657 167.133 172.597 173.343 168.284L164.727 164.778L165.79 162.226C163.833 162.003 161.857 162.003 159.9 162.226C159.9 162.226 161.243 158.74 161.338 155.36" fill="white"/>
<path opacity="0.2" d="M168.487 156.529C167.764 157.68 167.342 159.023 166.623 160.449C165.914 161.86 165.277 163.306 164.715 164.782C166.824 165.696 169.06 166.574 171.351 167.472C175.013 168.89 179.37 170.466 182.132 171.077C182.132 171.077 192.26 173.909 197.115 172.479C197.115 172.479 202.057 172.566 201.958 164.423L201.701 161.386L193.169 160.874L168.487 156.529Z" fill="black"/>
<path d="M168.006 133.285C168.006 133.285 174.437 131.091 180.552 133.175C179.892 134.278 179.177 135.408 178.391 136.562C177.083 138.493 175.76 140.242 174.472 141.813L168.006 133.285Z" fill="#8B758A"/>
<path opacity="0.2" d="M168.006 133.285C168.006 133.285 174.437 131.091 180.552 133.175C179.892 134.278 179.177 135.408 178.391 136.562C177.083 138.493 175.76 140.242 174.472 141.813L168.006 133.285Z" fill="white"/>
<path d="M119.203 171.514C119.203 171.514 121.862 172.857 128.795 172.66L128.834 158.054C128.834 158.054 129.048 143.176 131.746 135.806C131.746 135.806 126.385 139.237 121.799 135.806C121.799 135.806 118.113 142.951 118.303 152.976C118.247 154.205 118.212 155.462 118.204 156.742C118.167 161.684 118.501 166.622 119.203 171.514Z" fill="#CCCCCC"/>
<path d="M117.983 120.663C117.983 120.663 116.051 112.029 120.029 110.091C120.029 110.091 124.375 107.046 128.637 109.63C128.637 109.63 136.316 108.338 137.15 117.114C137.15 117.114 136.688 129.389 139.275 133.816H132.244L116.514 135.392C116.514 135.392 118.987 126.348 117.983 120.663Z" fill="#262439"/>
<path opacity="0.2" d="M99.5121 171.325C99.5121 171.325 99.4489 176.281 100.962 177.506C100.962 177.506 102.937 175.568 103.822 173.441C103.822 173.441 100.899 172.535 99.5121 171.325Z" fill="#231F20"/>
<path d="M137.526 171.747C137.526 171.747 134.302 173.153 132.153 173.511C131.729 173.58 131.293 173.524 130.9 173.35C130.507 173.177 130.172 172.894 129.937 172.535L129.068 171.231C128.859 170.915 128.748 170.545 128.748 170.167V169.423C128.748 169.067 128.846 168.717 129.032 168.414C129.218 168.11 129.485 167.863 129.803 167.701C131.853 166.653 136.404 164.617 139.023 165.696C139.29 165.809 139.529 165.98 139.722 166.196C140.413 166.945 142.234 168.934 142.523 169.494C142.523 169.494 145.312 169.1 146.734 167.784C146.734 167.784 148.598 172.058 149.005 172.854C149.005 172.854 143.735 177.226 140.453 174.878C140.453 174.898 138.383 173.385 137.526 171.747Z" fill="#F9B499"/>
<path opacity="0.2" d="M112.188 164.778C112.188 164.778 113.042 157.944 112.544 153.819C112.544 153.819 113.899 160.579 113.188 164.778H112.188Z" fill="#231F20"/>
<path d="M110.181 180.704C109.669 180.704 109.159 180.631 108.668 180.488L108.747 180.247C108.873 180.291 111.852 181.26 113.033 178.794L113.278 178.885C113.002 179.461 112.56 179.941 112.008 180.266C111.456 180.59 110.82 180.743 110.181 180.704Z" fill="#3F3D56"/>
<g opacity="0.2">
<path d="M144.363 183.205C137.648 182.496 137.296 178.585 137.292 178.545L137.581 178.403C137.581 178.443 137.822 182.264 144.316 182.949L144.363 183.205Z" fill="#231F20"/>
</g>
<path d="M169.649 143.306L166.358 135.779L168.006 133.285L173.216 140.159L169.649 143.306Z" fill="#8B758A"/>
<path d="M175.748 140.411L179.232 143.306L182.815 135.779L180.552 133.175L175.748 140.411Z" fill="#8B758A"/>
<path d="M170.514 128.798L169.681 135.494L174.472 141.813L175.748 140.312L179.118 135.305L178.067 128.798H170.514Z" fill="#F9B499"/>
<path d="M161.172 157.306C161.172 157.306 166.615 157.199 167.82 157.979L165.797 162.226C165.797 162.226 160.958 161.859 159.908 162.226C159.888 162.237 160.99 158.933 161.172 157.306Z" fill="#F9B499"/>
<path d="M185.359 159.5C185.359 159.5 187.943 155.135 192.32 154.773C192.919 154.729 193.521 154.805 194.089 154.998C194.658 155.191 195.182 155.496 195.63 155.896C195.805 156.052 195.947 156.242 196.046 156.455C196.144 156.668 196.198 156.899 196.204 157.133C196.209 157.368 196.166 157.601 196.078 157.818C195.989 158.036 195.857 158.233 195.689 158.397L193.169 160.875L185.359 159.5Z" fill="#F9B499"/>
<path d="M224.353 125.379C224.353 125.379 224.353 125.481 224.329 125.659C224.198 127.116 223.539 133.836 222.065 134.612L222.61 138.295C222.61 138.295 229.468 140.135 232.3 138.295V133.568C232.3 133.568 231.593 133.62 231.593 133.08L231.704 130.906L224.353 125.379Z" fill="#F9B499"/>
<path d="M209.322 158.393L210.847 183.371C210.847 183.371 223.045 188.043 225.115 187.389C225.115 187.389 225.767 153.942 224.515 145.469L219.451 135.778C217.436 135.463 209.547 139.481 207.375 140.616C207.002 140.811 206.686 141.101 206.458 141.455C202.449 147.866 199.513 154.885 197.768 162.237C197.768 162.237 199.743 176.966 204.301 183.371C204.301 183.371 210.946 181.524 212.032 179.353C212.032 179.353 208.113 166.429 207.023 164.475C207.035 164.475 207.363 164.148 209.322 158.393Z" fill="#8B758A"/>
<path d="M233.067 187.452L232.304 146.229L233.975 133.888C233.975 133.888 247.225 139.402 248.422 147.427L249.946 154.32L251.037 153.288L248.643 172.858C248.643 172.858 245.593 173.488 244.937 169.907L245.376 185.435C245.376 185.435 241.015 187.503 233.067 187.452Z" fill="#8B758A"/>
<path opacity="0.2" d="M244.499 157.306L244.934 169.911C244.934 169.911 245.443 173.429 248.639 172.861L248.832 171.286C248.832 171.286 245.009 171.353 244.499 157.306Z" fill="black"/>
<path d="M205.683 182.945C205.683 182.945 206.383 187.279 209.069 188.582C209.069 188.582 213.248 186.487 215.042 184.891C215.042 184.891 216.622 186.558 217.274 186.558C217.49 186.559 217.702 186.502 217.888 186.391C218.074 186.281 218.226 186.122 218.328 185.932C218.43 185.742 218.477 185.527 218.465 185.312C218.454 185.096 218.383 184.888 218.261 184.71C217.511 183.674 216.583 182.778 215.52 182.063C214.419 181.367 213.138 181.007 211.834 181.027C211.421 181.064 211.009 180.947 210.677 180.7C210.677 180.7 207.327 182.918 205.683 182.945Z" fill="#F9B499"/>
<path d="M263.303 157.826L250.634 156.562L241.667 230.413H254.881L263.303 157.826Z" fill="#262439"/>
<path opacity="0.2" d="M246.664 228.549L254.742 156.971L258.945 157.309L251.033 230.412H246.411L246.664 228.549Z" fill="white"/>
<path d="M251.033 152.118L250.634 156.562L263.302 157.826L263.753 153.686L251.033 152.118Z" fill="#262439"/>
<path opacity="0.2" d="M251.033 152.118L250.634 156.562L263.302 157.826L263.753 153.686L251.033 152.118Z" fill="black"/>
<path d="M251.444 147.718L251.049 152.133L263.768 153.709L264.223 148.899C264.284 148.274 264.221 147.643 264.037 147.041C263.853 146.44 263.552 145.881 263.151 145.397C262.75 144.912 262.256 144.511 261.699 144.217C261.142 143.923 260.533 143.742 259.905 143.684L256.654 143.381C256.026 143.323 255.393 143.389 254.791 143.576C254.188 143.763 253.629 144.066 253.145 144.469C252.661 144.872 252.261 145.367 251.969 145.924C251.677 146.482 251.499 147.091 251.444 147.718Z" fill="#262439"/>
<path d="M258.305 144.051C258.305 144.051 255.492 148.636 262.389 150.251C262.389 150.251 265.712 151.354 265.798 147.151C265.798 147.151 266.138 142.27 260.007 141.589C260.007 141.589 254.552 140.903 254.212 143.676C254.187 143.876 254.205 144.079 254.264 144.271C254.323 144.464 254.423 144.642 254.556 144.793C254.69 144.944 254.854 145.065 255.037 145.148C255.221 145.232 255.421 145.275 255.623 145.276C256.259 145.268 257.139 144.988 258.305 144.051Z" fill="#F9B499"/>
<path d="M225.285 178.856C225.285 178.856 225.439 151.767 224.514 145.468C224.514 145.468 223.049 141.265 222.61 138.295C222.61 138.295 229.741 140.079 232.301 138.295V146.228L232.909 178.974L225.285 178.856Z" fill="#CCCCCC"/>
<path d="M78.7802 143.641L99.6694 146.032C100.052 146.078 100.412 146.235 100.706 146.483C101 146.731 101.215 147.059 101.325 147.427L108.091 170.482L102.312 169.836L83.2046 166.571L77.4648 145.166C77.4124 144.974 77.4079 144.773 77.4517 144.579C77.4956 144.385 77.5864 144.205 77.7163 144.055C77.8462 143.904 78.0111 143.788 78.1966 143.716C78.3821 143.644 78.5825 143.618 78.7802 143.641Z" fill="#262439"/>
<path d="M98.6738 145.917H101.403C101.712 145.916 102.013 146.015 102.261 146.199C102.509 146.383 102.69 146.642 102.778 146.937L109.423 168.882L125.082 166.602C125.209 166.583 125.338 166.592 125.462 166.628C125.585 166.663 125.7 166.725 125.797 166.809C125.895 166.893 125.973 166.996 126.027 167.113C126.08 167.229 126.108 167.356 126.109 167.484C126.108 167.702 126.028 167.913 125.882 168.077C125.737 168.24 125.536 168.344 125.319 168.37L108.107 170.482L101.324 147.426C101.324 147.426 100.961 145.689 98.6738 145.917Z" fill="#262439"/>
<path opacity="0.2" d="M98.6738 145.917H101.403C101.712 145.916 102.013 146.015 102.261 146.199C102.509 146.383 102.69 146.642 102.778 146.937L109.423 168.882L125.082 166.602C125.209 166.583 125.338 166.592 125.462 166.628C125.585 166.663 125.7 166.725 125.797 166.809C125.895 166.893 125.973 166.996 126.027 167.113C126.08 167.229 126.108 167.356 126.109 167.484C126.108 167.702 126.028 167.913 125.882 168.077C125.737 168.24 125.536 168.344 125.319 168.37L108.107 170.482L101.324 147.426C101.324 147.426 100.961 145.689 98.6738 145.917Z" fill="#231F20"/>
<path d="M108.032 164.325L124.205 166.728L109.407 168.883L108.032 164.325Z" fill="#262439"/>
<path d="M121.799 135.806C121.799 135.806 122.885 133.804 122.869 130.456L129.131 126.974L130.948 124.236L132.243 133.804L131.746 135.806C131.746 135.806 125.725 139.808 121.799 135.806Z" fill="#F9B499"/>
<path d="M92.6619 164.42C92.1716 164.295 91.6564 164.305 91.1712 164.448C90.6859 164.592 90.2487 164.863 89.9057 165.234C89.5627 165.605 89.3268 166.062 89.223 166.556C89.1192 167.05 89.1513 167.563 89.316 168.04C89.8256 169.616 91.2912 171.325 95.2415 171.325C95.2415 171.325 98.0738 171.262 99.5236 171.325C99.5236 171.325 102.154 173.106 103.833 173.441C104.354 172.343 104.785 171.205 105.121 170.037C105.121 170.037 98.9547 170.132 97.0981 167.492C97.0862 167.492 94.9807 165.027 92.6619 164.42Z" fill="#F9B499"/>
<path d="M160.915 153.993L161.152 157.306C161.152 157.306 166.516 157.243 167.8 157.98L168.808 155.986L160.915 153.993Z" fill="#8B758A"/>
<path opacity="0.2" d="M160.915 153.993L161.152 157.306C161.152 157.306 166.516 157.243 167.8 157.98L168.808 155.986L160.915 153.993Z" fill="white"/>
<path opacity="0.2" d="M209.425 160.894L212.482 154.517L209.678 165.022L209.425 160.894Z" fill="black"/>
<path opacity="0.2" d="M215.184 181.858C215.184 181.858 217.42 183.185 218.269 184.71C218.269 184.71 218.696 185.596 218.324 185.986L220.031 186.502V186.108C219.723 184.424 218.926 182.868 217.738 181.632C216.551 180.396 215.025 179.535 213.351 179.156L210.052 170.34L210.211 172.904L212.043 179.337C211.731 179.908 211.259 180.376 210.685 180.684C211.034 180.894 211.434 181.007 211.842 181.011C213.003 181.043 214.144 181.327 215.184 181.842" fill="black"/>
<path d="M217.598 140.151L221.086 140.911L220.552 143.306L224.503 145.469C223.325 141.719 222.704 137.817 222.662 133.888C222.662 133.888 218.056 134.286 217.598 140.151Z" fill="#8B758A"/>
<path opacity="0.2" d="M217.598 140.151L221.086 140.911L220.552 143.306L224.503 145.469C223.325 141.719 222.704 137.817 222.662 133.888C222.662 133.888 218.056 134.286 217.598 140.151Z" fill="white"/>
<path d="M232.301 146.229V133.58C232.301 133.58 235.066 132.493 238.471 139.907L235.445 140.773C235.37 140.794 235.301 140.831 235.241 140.881C235.182 140.931 235.134 140.994 235.101 141.064C235.067 141.134 235.049 141.21 235.048 141.288C235.047 141.366 235.063 141.443 235.094 141.514L235.931 143.408L232.301 146.229Z" fill="#8B758A"/>
<path opacity="0.2" d="M232.301 146.229V133.58C232.301 133.58 235.066 132.493 238.471 139.907L235.445 140.773C235.37 140.794 235.301 140.831 235.241 140.881C235.182 140.931 235.134 140.994 235.101 141.064C235.067 141.134 235.049 141.21 235.048 141.288C235.047 141.366 235.063 141.443 235.094 141.514L235.931 143.408L232.301 146.229Z" fill="white"/>
<path d="M54.2256 97.3516H296.366" stroke="#CCCCCC" stroke-width="1.97" stroke-miterlimit="10"/>
<path d="M293.791 81.5244H56.8012C55.3787 81.5244 54.2256 82.6743 54.2256 84.0927V228.348C54.2256 229.766 55.3787 230.916 56.8012 230.916H293.791C295.213 230.916 296.366 229.766 296.366 228.348V84.0927C296.366 82.6743 295.213 81.5244 293.791 81.5244Z" stroke="#CCCCCC" stroke-width="1.97" stroke-miterlimit="10"/>
<path d="M70.1852 89.5995C70.1852 90.0366 70.0552 90.4638 69.8117 90.8272C69.5682 91.1906 69.222 91.4739 68.8171 91.6411C68.4122 91.8084 67.9666 91.8522 67.5367 91.7669C67.1068 91.6816 66.7119 91.4712 66.402 91.1621C66.0921 90.8531 65.881 90.4593 65.7955 90.0306C65.71 89.602 65.7539 89.1576 65.9216 88.7538C66.0894 88.35 66.3734 88.0049 66.7378 87.7621C67.1023 87.5193 67.5307 87.3896 67.969 87.3896C68.5568 87.3896 69.1205 87.6225 69.5361 88.0369C69.9517 88.4513 70.1852 89.0134 70.1852 89.5995Z" fill="#262439"/>
<path opacity="0.2" d="M70.1852 89.5995C70.1852 90.0366 70.0552 90.4638 69.8117 90.8272C69.5682 91.1906 69.222 91.4739 68.8171 91.6411C68.4122 91.8084 67.9666 91.8522 67.5367 91.7669C67.1068 91.6816 66.7119 91.4712 66.402 91.1621C66.0921 90.8531 65.881 90.4593 65.7955 90.0306C65.71 89.602 65.7539 89.1576 65.9216 88.7538C66.0894 88.35 66.3734 88.0049 66.7378 87.7621C67.1023 87.5193 67.5307 87.3896 67.969 87.3896C68.5568 87.3896 69.1205 87.6225 69.5361 88.0369C69.9517 88.4513 70.1852 89.0134 70.1852 89.5995Z" fill="white"/>
<path d="M78.7925 89.5995C78.7925 90.0366 78.6625 90.4638 78.419 90.8272C78.1755 91.1906 77.8294 91.4739 77.4244 91.6411C77.0195 91.8084 76.5739 91.8522 76.144 91.7669C75.7141 91.6816 75.3192 91.4712 75.0093 91.1621C74.6994 90.8531 74.4883 90.4593 74.4028 90.0306C74.3173 89.602 74.3612 89.1576 74.5289 88.7538C74.6967 88.35 74.9807 88.0049 75.3451 87.7621C75.7096 87.5193 76.138 87.3896 76.5763 87.3896C77.1641 87.3896 77.7278 87.6225 78.1434 88.0369C78.559 88.4513 78.7925 89.0134 78.7925 89.5995Z" fill="#CCCCCC"/>
<path d="M87.4001 89.5995C87.4001 90.0366 87.2701 90.4638 87.0266 90.8272C86.7831 91.1906 86.437 91.4739 86.0321 91.6411C85.6271 91.8084 85.1815 91.8522 84.7517 91.7669C84.3218 91.6816 83.9269 91.4712 83.617 91.1621C83.307 90.8531 83.096 90.4593 83.0105 90.0306C82.925 89.602 82.9689 89.1576 83.1366 88.7538C83.3043 88.35 83.5884 88.0049 83.9528 87.7621C84.3172 87.5193 84.7457 87.3896 85.184 87.3896C85.7718 87.3896 86.3354 87.6225 86.751 88.0369C87.1666 88.4513 87.4001 89.0134 87.4001 89.5995Z" fill="#262439"/>
<path d="M328.363 92.3887H270.377C269.07 92.3887 268.011 93.4451 268.011 94.7482V148.305C268.011 149.608 269.07 150.664 270.377 150.664H328.363C329.67 150.664 330.729 149.608 330.729 148.305V94.7482C330.729 93.4451 329.67 92.3887 328.363 92.3887Z" fill="#EDEDED"/>
<path d="M328.363 92.3887H270.377C269.07 92.3887 268.011 93.4451 268.011 94.7482V148.305C268.011 149.608 269.07 150.664 270.377 150.664H328.363C329.67 150.664 330.729 149.608 330.729 148.305V94.7482C330.729 93.4451 329.67 92.3887 328.363 92.3887Z" stroke="#CCCCCC" stroke-width="1.97" stroke-miterlimit="10"/>
<path d="M284.129 135.507H314.791C316.104 135.507 317.169 134.445 317.169 133.135V107.882C317.169 106.572 316.104 105.51 314.791 105.51H284.129C282.815 105.51 281.751 106.572 281.751 107.882V133.135C281.751 134.445 282.815 135.507 284.129 135.507Z" fill="#CCCCCC"/>
<path d="M307.542 125.494H293.696H291.195V114.566H307.542V117.296V125.494Z" stroke="white" stroke-width="1.65" stroke-linecap="round" stroke-linejoin="round"/>
<path d="M291.195 114.566L299.368 120.987L307.542 114.566" stroke="white" stroke-width="1.65" stroke-linecap="round" stroke-linejoin="round"/>
<path d="M68.2803 141.08H12.9802C11.7345 141.08 10.7246 142.087 10.7246 143.329V191.54C10.7246 192.783 11.7345 193.79 12.9802 193.79H68.2803C69.526 193.79 70.5359 192.783 70.5359 191.54V143.329C70.5359 142.087 69.526 141.08 68.2803 141.08Z" fill="#EDEDED"/>
<path d="M68.2803 141.08H12.9802C11.7345 141.08 10.7246 142.087 10.7246 143.329V191.54C10.7246 192.783 11.7345 193.79 12.9802 193.79H68.2803C69.526 193.79 70.5359 192.783 70.5359 191.54V143.329C70.5359 142.087 69.526 141.08 68.2803 141.08Z" stroke="#CCCCCC" stroke-width="1.97" stroke-miterlimit="10"/>
<path d="M55.0907 150.108H25.7519C24.3033 150.108 23.1289 151.279 23.1289 152.724V181.019C23.1289 182.463 24.3033 183.634 25.7519 183.634H55.0907C56.5393 183.634 57.7137 182.463 57.7137 181.019V152.724C57.7137 151.279 56.5393 150.108 55.0907 150.108Z" fill="#CCCCCC"/>
<path d="M33.7157 160.291C32.3469 161.655 31.4145 163.393 31.0364 165.285C30.6583 167.177 30.8514 169.139 31.5915 170.922C32.3315 172.704 33.5851 174.228 35.1938 175.3C36.8024 176.372 38.6938 176.945 40.6287 176.945C42.5636 176.945 44.4549 176.372 46.0636 175.3C47.6723 174.228 48.9259 172.704 49.6659 170.922C50.406 169.139 50.5991 167.177 50.221 165.285C49.8429 163.393 48.9105 161.655 47.5417 160.291C45.7026 158.474 43.218 157.454 40.6287 157.454C38.0393 157.454 35.5548 158.474 33.7157 160.291ZM47.5417 161.694H44.4289C44.1012 160.688 43.6957 159.71 43.2161 158.767C44.9148 159.287 46.4158 160.307 47.5219 161.694H47.5417ZM37.0418 166.626C37.0416 165.352 37.1968 164.084 37.504 162.848H43.7573C44.0725 164.083 44.2357 165.351 44.2432 166.626H37.0418ZM44.1839 167.768C44.0909 169.048 43.8659 170.315 43.5124 171.55H37.7529C37.3962 170.316 37.1698 169.048 37.0774 167.768H44.1839ZM40.6287 158.401C41.0903 158.4 41.5513 158.436 42.0073 158.507C42.5846 159.524 43.0597 160.595 43.4255 161.706H37.8319C38.1977 160.595 38.6727 159.524 39.25 158.507C39.7071 158.432 40.1694 158.392 40.6326 158.389L40.6287 158.401ZM38.065 158.795C37.5821 159.736 37.1765 160.715 36.8522 161.721H33.7394C34.8484 160.321 36.3584 159.291 38.0689 158.767L38.065 158.795ZM32.9612 162.836H36.5164C36.2125 164.077 36.0495 165.348 36.0306 166.626H31.8275C31.9098 165.293 32.2977 163.996 32.9612 162.836ZM32.9612 171.538C32.3 170.379 31.9123 169.086 31.8275 167.756H36.0503C36.1142 169.034 36.3128 170.301 36.6429 171.538H32.9612ZM33.7512 172.676H36.9944C37.3223 173.689 37.7182 174.679 38.1795 175.638C36.4279 175.133 34.8766 174.098 33.7394 172.676H33.7512ZM40.6445 175.981C40.2574 175.982 39.8708 175.957 39.4871 175.906C38.9599 174.861 38.5032 173.782 38.1203 172.676H43.1648C42.7835 173.783 42.3268 174.862 41.798 175.906C41.4117 175.958 41.0223 175.983 40.6326 175.981H40.6445ZM43.0858 175.638C43.5567 174.68 43.9606 173.69 44.2946 172.676H47.5338C46.3879 174.104 44.8231 175.14 43.0581 175.638H43.0858ZM48.312 171.538H44.6382C44.9676 170.301 45.1675 169.034 45.2347 167.756H49.4536C49.3628 169.088 48.9683 170.381 48.3001 171.538H48.312ZM49.4457 166.614H45.2308C45.2071 165.34 45.0402 164.073 44.733 162.836H48.2883C48.956 163.995 49.3479 165.292 49.4339 166.626L49.4457 166.614Z" fill="white"/>
<path d="M74.1548 67.7533H24.9895C24.748 67.7538 24.5087 67.7068 24.2854 67.615C24.062 67.5232 23.8591 67.3883 23.6881 67.2182C23.5171 67.048 23.3814 66.8459 23.2889 66.6235C23.1963 66.401 23.1487 66.1625 23.1487 65.9216C23.1482 65.6804 23.1954 65.4414 23.2878 65.2185C23.3801 64.9956 23.5157 64.793 23.6867 64.6224C23.8577 64.4519 24.0609 64.3167 24.2844 64.2246C24.508 64.1325 24.7476 64.0854 24.9895 64.0859H74.1548C74.643 64.0859 75.1112 64.2793 75.4565 64.6236C75.8017 64.9678 75.9956 65.4347 75.9956 65.9216C75.9946 66.4077 75.8002 66.8736 75.4551 67.217C75.1099 67.5604 74.6423 67.7533 74.1548 67.7533Z" fill="#CCCCCC"/>
<path d="M329.826 187.503H305.962C305.475 187.503 305.007 187.31 304.663 186.967C304.319 186.623 304.125 186.157 304.125 185.672C304.124 185.431 304.172 185.192 304.264 184.969C304.356 184.747 304.491 184.544 304.662 184.374C304.832 184.203 305.035 184.068 305.258 183.976C305.481 183.883 305.72 183.836 305.962 183.836H329.826C330.314 183.836 330.782 184.029 331.127 184.374C331.472 184.718 331.666 185.185 331.666 185.672C331.665 186.158 331.471 186.624 331.126 186.967C330.781 187.31 330.313 187.503 329.826 187.503Z" fill="#CCCCCC"/>
<path d="M313.372 203.221H309.939C309.316 203.221 308.81 203.725 308.81 204.347V207.589C308.81 208.211 309.316 208.716 309.939 208.716H313.372C313.996 208.716 314.502 208.211 314.502 207.589V204.347C314.502 203.725 313.996 203.221 313.372 203.221Z" fill="#262439"/>
<path d="M36.9588 215.924H33.526C32.9021 215.924 32.3962 216.428 32.3962 217.05V220.292C32.3962 220.915 32.9021 221.419 33.526 221.419H36.9588C37.5828 221.419 38.0886 220.915 38.0886 220.292V217.05C38.0886 216.428 37.5828 215.924 36.9588 215.924Z" fill="#262439"/>
<path d="M216.902 56.3652H251.416" stroke="white" stroke-width="1.18" stroke-miterlimit="10"/>
<path d="M216.902 59.8945H230.961" stroke="white" stroke-width="1.18" stroke-miterlimit="10"/>
<path d="M115.581 37.6973H141.234C141.911 37.6973 142.56 37.9654 143.039 38.4426C143.517 38.9198 143.786 39.5671 143.786 40.242V64.1762C143.786 64.5103 143.72 64.8412 143.592 65.15C143.464 65.4587 143.276 65.7392 143.039 65.9755C142.802 66.2118 142.521 66.3993 142.211 66.5272C141.901 66.655 141.569 66.7209 141.234 66.7209H116.395C115.502 66.7209 114.646 66.3673 114.015 65.7379C113.384 65.1085 113.029 64.2548 113.029 63.3647V40.242C113.029 39.5671 113.298 38.9198 113.777 38.4426C114.255 37.9654 114.904 37.6973 115.581 37.6973Z" fill="#CCCCCC"/>
<path d="M135.582 54.3599L133.832 52.6109C133.692 52.4493 133.519 52.3189 133.325 52.2279C133.131 52.137 132.92 52.0877 132.706 52.083C132.28 52.0943 131.875 52.2726 131.58 52.5794L130.581 53.572L130.391 53.4775C130.284 53.4306 130.18 53.378 130.079 53.3199C129.091 52.6783 128.214 51.88 127.484 50.9564C127.157 50.5673 126.883 50.1369 126.67 49.6762C126.923 49.4596 127.14 49.2075 127.357 48.9908L127.642 48.7111C127.808 48.568 127.941 48.3909 128.033 48.1917C128.124 47.9925 128.172 47.776 128.172 47.557C128.172 47.3379 128.124 47.1214 128.033 46.9223C127.941 46.7231 127.808 46.5459 127.642 46.4028L126.765 45.5283C126.663 45.4318 126.57 45.3278 126.484 45.2171L125.888 44.6262C125.742 44.4731 125.568 44.3501 125.375 44.2643C125.182 44.1784 124.973 44.1314 124.762 44.126C124.55 44.1283 124.341 44.1739 124.147 44.2599C123.953 44.346 123.78 44.4706 123.636 44.6262L122.542 45.7174C122.132 46.1286 121.878 46.6687 121.823 47.2458C121.785 48.0526 121.919 48.8584 122.218 49.6093C122.768 51.1112 123.596 52.4968 124.659 53.6942C126.032 55.331 127.736 56.66 129.66 57.5939C130.542 58.0389 131.495 58.3243 132.477 58.4369H132.694C133.047 58.4419 133.396 58.3721 133.72 58.2322C134.043 58.0923 134.333 57.8855 134.57 57.6254L134.602 57.5939C134.774 57.3906 134.963 57.2022 135.167 57.0306L135.562 56.6367C135.717 56.4909 135.842 56.3153 135.927 56.1204C136.013 55.9254 136.058 55.7152 136.06 55.5025C136.061 55.2897 136.02 55.0788 135.938 54.8824C135.856 54.686 135.735 54.5083 135.582 54.3599ZM134.863 55.9789L134.487 56.3728C134.27 56.5618 134.092 56.7667 133.863 56.9991C133.719 57.1515 133.544 57.2718 133.35 57.3519C133.156 57.4321 132.947 57.4702 132.738 57.4639H132.583C131.729 57.3751 130.899 57.1209 130.142 56.7155C128.349 55.8394 126.761 54.5966 125.481 53.0678C124.518 51.9432 123.748 50.6683 123.202 49.2941C122.909 48.6932 122.78 48.0263 122.826 47.36C122.835 47.1884 122.878 47.0203 122.953 46.8655C123.027 46.7106 123.132 46.5721 123.261 46.458L124.327 45.3983C124.438 45.2708 124.594 45.1916 124.762 45.1777C124.847 45.1808 124.93 45.2022 125.005 45.2402C125.081 45.2783 125.148 45.3322 125.2 45.3983L125.765 45.9577C125.859 46.071 125.964 46.1752 126.077 46.2689L126.954 47.1434C127.074 47.2608 127.15 47.4147 127.172 47.5806C127.156 47.7483 127.079 47.9043 126.954 48.0178L126.67 48.2975L125.88 49.0854L125.848 49.1169C125.737 49.2112 125.659 49.3385 125.625 49.4803C125.592 49.6221 125.605 49.7708 125.663 49.9047V49.9323C125.925 50.5397 126.272 51.1073 126.694 51.6182C127.491 52.6337 128.454 53.5085 129.542 54.2062C129.665 54.2921 129.798 54.3647 129.937 54.4229C130.044 54.4698 130.148 54.5224 130.249 54.5805L130.28 54.612C130.422 54.6883 130.586 54.7142 130.745 54.6856C130.903 54.657 131.047 54.5755 131.153 54.4544L132.248 53.3633C132.362 53.2389 132.518 53.1616 132.686 53.1466C132.839 53.1706 132.979 53.2473 133.081 53.3633L134.831 55.1122C134.893 55.1647 134.944 55.2295 134.98 55.3026C135.016 55.3756 135.035 55.4554 135.038 55.5366C135.041 55.6178 135.027 55.6988 134.997 55.7743C134.967 55.8498 134.921 55.9181 134.863 55.9749V55.9789Z" fill="white"/>
<path d="M122.854 130.456L122.807 131.741C123.756 131.897 124.731 131.792 125.625 131.435C126.519 131.079 127.298 130.486 127.879 129.72L122.854 130.456Z" fill="#F4A48E"/>
<path d="M134.749 122.44C134.452 123.992 133.208 125.048 131.983 124.804C131.593 124.724 131.237 124.526 130.964 124.236C130.257 128.042 127.757 130.85 124.782 130.85C121.258 130.85 118.402 126.911 118.402 122.038C118.402 117.166 121.258 113.227 124.782 113.227C127.8 113.227 130.312 116.114 130.992 119.998C131.23 119.691 131.546 119.454 131.907 119.311C132.269 119.168 132.662 119.125 133.046 119.186C134.271 119.435 135.041 120.888 134.749 122.44Z" fill="#F9B499"/>
<path d="M118.386 121.255C118.386 121.255 118.82 117.272 121.289 116.402C121.289 116.402 125.615 114.826 125.919 113.373C125.919 113.373 130.509 117.197 130.509 120.384C130.509 120.384 132.389 117.745 134.207 119.935C134.207 119.935 135.964 122.878 133.128 124.662C133.128 124.662 131.821 125.34 130.948 124.237C130.948 124.237 131.655 132.6 132.243 133.805L136.099 119.356L134.807 115.228L128.621 110.974H121.435C121.435 110.974 117.509 116.154 117.513 116.425C117.517 116.697 118.386 121.255 118.386 121.255Z" fill="#262439"/>
<path d="M170.258 131.043L170.534 128.798C170.534 128.798 173.623 130.602 176.029 130.767C176.009 130.779 175.057 131.937 170.258 131.043Z" fill="#F4A48E"/>
<path d="M174.271 131.043C178.231 131.043 181.441 126.899 181.441 121.786C181.441 116.674 178.231 112.529 174.271 112.529C170.312 112.529 167.102 116.674 167.102 121.786C167.102 126.899 170.312 131.043 174.271 131.043Z" fill="#F9B499"/>
<path d="M182.306 124.509C183.373 124.509 184.237 123.306 184.237 121.822C184.237 120.339 183.373 119.136 182.306 119.136C181.239 119.136 180.374 120.339 180.374 121.822C180.374 123.306 181.239 124.509 182.306 124.509Z" fill="#F9B499"/>
<path d="M166.106 124.509C167.172 124.509 168.037 123.306 168.037 121.822C168.037 120.339 167.172 119.136 166.106 119.136C165.039 119.136 164.174 120.339 164.174 121.822C164.174 123.306 165.039 124.509 166.106 124.509Z" fill="#F9B499"/>
<path d="M167.457 120.601C167.457 120.601 162.803 116.185 167.457 112.782C167.457 112.782 168.701 106.554 176.614 108.149C176.614 108.149 184.297 108.189 182.816 119.135C182.295 119.671 181.729 120.161 181.125 120.601C181.125 120.601 180.536 116.981 177.633 117.126C177.633 117.126 171.312 117.414 170.08 114.664C168.735 116.402 167.835 118.439 167.457 120.601Z" fill="#262439"/>
<path d="M231.594 133.092L231.633 132.269C231.633 132.269 226.585 132.442 225.285 129.44C225.285 129.44 226.107 133.143 231.594 133.092Z" fill="#F4A48E"/>
<path d="M237.065 123.811C237.065 128.57 234.067 132.426 230.35 132.426C227.229 132.426 224.602 129.669 223.855 125.978C223.54 126.244 223.142 126.391 222.729 126.395C221.521 126.395 220.541 125.099 220.541 123.496C220.541 121.893 221.521 120.601 222.729 120.601C223.197 120.609 223.643 120.795 223.978 121.121C224.859 117.682 227.379 115.212 230.35 115.212C234.067 115.2 237.065 119.057 237.065 123.811Z" fill="#F9B499"/>
<path d="M225.23 121.325L225.815 117.481C225.815 117.481 229.129 118.095 231.021 116.969C231.021 116.969 235.493 120.211 239.048 116.969C239.048 116.969 241.284 114.739 239.048 111.702C239.048 111.702 238.234 109.165 233.561 110.788C233.561 110.788 228.584 106.128 224.416 111.903C224.416 111.903 219.344 111.615 220.553 116.26C220.553 116.26 217.195 119.072 220.948 121.818C220.948 121.818 218.183 127.79 224.084 126.887L223.855 125.974C223.855 125.974 221.967 127.289 220.841 124.949C220.841 124.949 219.806 122.44 221.584 121.03C221.83 120.804 222.138 120.656 222.469 120.606C222.799 120.555 223.138 120.604 223.44 120.746C223.954 121.007 224.502 121.194 225.068 121.302L225.23 121.325Z" fill="#262439"/>
</svg>
